G04 #@! TF.GenerationSoftware,KiCad,Pcbnew,(5.1.6)-1*
G04 #@! TF.CreationDate,2021-03-27T23:13:27-04:00*
G04 #@! TF.ProjectId,tm3130-2481bs,746d3331-3330-42d3-9234-383162732e6b,rev?*
G04 #@! TF.SameCoordinates,Original*
G04 #@! TF.FileFunction,Soldermask,Top*
G04 #@! TF.FilePolarity,Negative*
%FSLAX46Y46*%
G04 Gerber Fmt 4.6, Leading zero omitted, Abs format (unit mm)*
G04 Created by KiCad (PCBNEW (5.1.6)-1) date 2021-03-27 23:13:27*
%MOMM*%
%LPD*%
G01*
G04 APERTURE LIST*
%ADD10C,0.100000*%
G04 APERTURE END LIST*
D10*
G36*
X141969142Y-56368242D02*
G01*
X142117101Y-56429529D01*
X142250255Y-56518499D01*
X142363501Y-56631745D01*
X142452471Y-56764899D01*
X142513758Y-56912858D01*
X142545000Y-57069925D01*
X142545000Y-57230075D01*
X142513758Y-57387142D01*
X142452471Y-57535101D01*
X142363501Y-57668255D01*
X142250255Y-57781501D01*
X142117101Y-57870471D01*
X141969142Y-57931758D01*
X141812075Y-57963000D01*
X141651925Y-57963000D01*
X141494858Y-57931758D01*
X141346899Y-57870471D01*
X141213745Y-57781501D01*
X141100499Y-57668255D01*
X141011529Y-57535101D01*
X140950242Y-57387142D01*
X140919000Y-57230075D01*
X140919000Y-57069925D01*
X140950242Y-56912858D01*
X141011529Y-56764899D01*
X141100499Y-56631745D01*
X141213745Y-56518499D01*
X141346899Y-56429529D01*
X141494858Y-56368242D01*
X141651925Y-56337000D01*
X141812075Y-56337000D01*
X141969142Y-56368242D01*
G37*
G36*
X136889142Y-56368242D02*
G01*
X137037101Y-56429529D01*
X137170255Y-56518499D01*
X137283501Y-56631745D01*
X137372471Y-56764899D01*
X137433758Y-56912858D01*
X137465000Y-57069925D01*
X137465000Y-57230075D01*
X137433758Y-57387142D01*
X137372471Y-57535101D01*
X137283501Y-57668255D01*
X137170255Y-57781501D01*
X137037101Y-57870471D01*
X136889142Y-57931758D01*
X136732075Y-57963000D01*
X136571925Y-57963000D01*
X136414858Y-57931758D01*
X136266899Y-57870471D01*
X136133745Y-57781501D01*
X136020499Y-57668255D01*
X135931529Y-57535101D01*
X135870242Y-57387142D01*
X135839000Y-57230075D01*
X135839000Y-57069925D01*
X135870242Y-56912858D01*
X135931529Y-56764899D01*
X136020499Y-56631745D01*
X136133745Y-56518499D01*
X136266899Y-56429529D01*
X136414858Y-56368242D01*
X136571925Y-56337000D01*
X136732075Y-56337000D01*
X136889142Y-56368242D01*
G37*
G36*
X134349142Y-56368242D02*
G01*
X134497101Y-56429529D01*
X134630255Y-56518499D01*
X134743501Y-56631745D01*
X134832471Y-56764899D01*
X134893758Y-56912858D01*
X134925000Y-57069925D01*
X134925000Y-57230075D01*
X134893758Y-57387142D01*
X134832471Y-57535101D01*
X134743501Y-57668255D01*
X134630255Y-57781501D01*
X134497101Y-57870471D01*
X134349142Y-57931758D01*
X134192075Y-57963000D01*
X134031925Y-57963000D01*
X133874858Y-57931758D01*
X133726899Y-57870471D01*
X133593745Y-57781501D01*
X133480499Y-57668255D01*
X133391529Y-57535101D01*
X133330242Y-57387142D01*
X133299000Y-57230075D01*
X133299000Y-57069925D01*
X133330242Y-56912858D01*
X133391529Y-56764899D01*
X133480499Y-56631745D01*
X133593745Y-56518499D01*
X133726899Y-56429529D01*
X133874858Y-56368242D01*
X134031925Y-56337000D01*
X134192075Y-56337000D01*
X134349142Y-56368242D01*
G37*
G36*
X131809142Y-56368242D02*
G01*
X131957101Y-56429529D01*
X132090255Y-56518499D01*
X132203501Y-56631745D01*
X132292471Y-56764899D01*
X132353758Y-56912858D01*
X132385000Y-57069925D01*
X132385000Y-57230075D01*
X132353758Y-57387142D01*
X132292471Y-57535101D01*
X132203501Y-57668255D01*
X132090255Y-57781501D01*
X131957101Y-57870471D01*
X131809142Y-57931758D01*
X131652075Y-57963000D01*
X131491925Y-57963000D01*
X131334858Y-57931758D01*
X131186899Y-57870471D01*
X131053745Y-57781501D01*
X130940499Y-57668255D01*
X130851529Y-57535101D01*
X130790242Y-57387142D01*
X130759000Y-57230075D01*
X130759000Y-57069925D01*
X130790242Y-56912858D01*
X130851529Y-56764899D01*
X130940499Y-56631745D01*
X131053745Y-56518499D01*
X131186899Y-56429529D01*
X131334858Y-56368242D01*
X131491925Y-56337000D01*
X131652075Y-56337000D01*
X131809142Y-56368242D01*
G37*
G36*
X129845000Y-57963000D02*
G01*
X128219000Y-57963000D01*
X128219000Y-56337000D01*
X129845000Y-56337000D01*
X129845000Y-57963000D01*
G37*
G36*
X139429142Y-56368242D02*
G01*
X139577101Y-56429529D01*
X139710255Y-56518499D01*
X139823501Y-56631745D01*
X139912471Y-56764899D01*
X139973758Y-56912858D01*
X140005000Y-57069925D01*
X140005000Y-57230075D01*
X139973758Y-57387142D01*
X139912471Y-57535101D01*
X139823501Y-57668255D01*
X139710255Y-57781501D01*
X139577101Y-57870471D01*
X139429142Y-57931758D01*
X139272075Y-57963000D01*
X139111925Y-57963000D01*
X138954858Y-57931758D01*
X138806899Y-57870471D01*
X138673745Y-57781501D01*
X138560499Y-57668255D01*
X138471529Y-57535101D01*
X138410242Y-57387142D01*
X138379000Y-57230075D01*
X138379000Y-57069925D01*
X138410242Y-56912858D01*
X138471529Y-56764899D01*
X138560499Y-56631745D01*
X138673745Y-56518499D01*
X138806899Y-56429529D01*
X138954858Y-56368242D01*
X139111925Y-56337000D01*
X139272075Y-56337000D01*
X139429142Y-56368242D01*
G37*
G36*
X150341246Y-56289912D02*
G01*
X150411183Y-56303823D01*
X150465759Y-56326429D01*
X150542942Y-56358399D01*
X150661522Y-56437632D01*
X150762368Y-56538478D01*
X150841601Y-56657058D01*
X150896177Y-56788818D01*
X150920851Y-56912858D01*
X150924000Y-56928692D01*
X150924000Y-57071308D01*
X150896177Y-57211183D01*
X150873571Y-57265759D01*
X150841601Y-57342942D01*
X150762368Y-57461522D01*
X150661522Y-57562368D01*
X150542942Y-57641601D01*
X150478588Y-57668257D01*
X150411183Y-57696177D01*
X150341246Y-57710088D01*
X150271309Y-57724000D01*
X150128691Y-57724000D01*
X150058754Y-57710088D01*
X149988817Y-57696177D01*
X149921412Y-57668257D01*
X149857058Y-57641601D01*
X149738478Y-57562368D01*
X149637632Y-57461522D01*
X149558399Y-57342942D01*
X149526429Y-57265759D01*
X149503823Y-57211183D01*
X149476000Y-57071308D01*
X149476000Y-56928692D01*
X149479150Y-56912858D01*
X149503823Y-56788818D01*
X149558399Y-56657058D01*
X149637632Y-56538478D01*
X149738478Y-56437632D01*
X149857058Y-56358399D01*
X149934241Y-56326429D01*
X149988817Y-56303823D01*
X150058754Y-56289912D01*
X150128691Y-56276000D01*
X150271309Y-56276000D01*
X150341246Y-56289912D01*
G37*
G36*
X126877242Y-54725404D02*
G01*
X126914337Y-54736657D01*
X126948515Y-54754925D01*
X126978481Y-54779519D01*
X127003075Y-54809485D01*
X127021343Y-54843663D01*
X127032596Y-54880758D01*
X127037000Y-54925474D01*
X127037000Y-55818526D01*
X127032596Y-55863242D01*
X127021343Y-55900337D01*
X127003075Y-55934515D01*
X126978481Y-55964481D01*
X126948515Y-55989075D01*
X126914337Y-56007343D01*
X126877242Y-56018596D01*
X126832526Y-56023000D01*
X125389474Y-56023000D01*
X125344758Y-56018596D01*
X125307663Y-56007343D01*
X125273485Y-55989075D01*
X125243519Y-55964481D01*
X125218925Y-55934515D01*
X125200657Y-55900337D01*
X125189404Y-55863242D01*
X125185000Y-55818526D01*
X125185000Y-54925474D01*
X125189404Y-54880758D01*
X125200657Y-54843663D01*
X125218925Y-54809485D01*
X125243519Y-54779519D01*
X125273485Y-54754925D01*
X125307663Y-54736657D01*
X125344758Y-54725404D01*
X125389474Y-54721000D01*
X126832526Y-54721000D01*
X126877242Y-54725404D01*
G37*
G36*
X144991855Y-54660140D02*
G01*
X145055618Y-54666420D01*
X145146404Y-54693960D01*
X145178336Y-54703646D01*
X145291425Y-54764094D01*
X145390554Y-54845446D01*
X145471906Y-54944575D01*
X145532354Y-55057664D01*
X145532355Y-55057668D01*
X145569580Y-55180382D01*
X145582149Y-55308000D01*
X145569580Y-55435618D01*
X145542040Y-55526404D01*
X145532354Y-55558336D01*
X145471906Y-55671425D01*
X145390554Y-55770554D01*
X145291425Y-55851906D01*
X145178336Y-55912354D01*
X145146404Y-55922040D01*
X145055618Y-55949580D01*
X144991855Y-55955860D01*
X144959974Y-55959000D01*
X144346026Y-55959000D01*
X144314145Y-55955860D01*
X144250382Y-55949580D01*
X144159596Y-55922040D01*
X144127664Y-55912354D01*
X144014575Y-55851906D01*
X143915446Y-55770554D01*
X143834094Y-55671425D01*
X143773646Y-55558336D01*
X143763960Y-55526404D01*
X143736420Y-55435618D01*
X143723851Y-55308000D01*
X143736420Y-55180382D01*
X143773645Y-55057668D01*
X143773646Y-55057664D01*
X143834094Y-54944575D01*
X143915446Y-54845446D01*
X144014575Y-54764094D01*
X144127664Y-54703646D01*
X144159596Y-54693960D01*
X144250382Y-54666420D01*
X144314145Y-54660140D01*
X144346026Y-54657000D01*
X144959974Y-54657000D01*
X144991855Y-54660140D01*
G37*
G36*
X126449855Y-52724140D02*
G01*
X126513618Y-52730420D01*
X126604404Y-52757960D01*
X126636336Y-52767646D01*
X126749425Y-52828094D01*
X126848554Y-52909446D01*
X126929906Y-53008575D01*
X126990354Y-53121664D01*
X126990355Y-53121668D01*
X127027580Y-53244382D01*
X127040149Y-53372000D01*
X127027580Y-53499618D01*
X127009769Y-53558332D01*
X126990354Y-53622336D01*
X126929906Y-53735425D01*
X126848554Y-53834554D01*
X126749425Y-53915906D01*
X126636336Y-53976354D01*
X126604404Y-53986040D01*
X126513618Y-54013580D01*
X126449855Y-54019860D01*
X126417974Y-54023000D01*
X125804026Y-54023000D01*
X125772145Y-54019860D01*
X125708382Y-54013580D01*
X125617596Y-53986040D01*
X125585664Y-53976354D01*
X125472575Y-53915906D01*
X125373446Y-53834554D01*
X125292094Y-53735425D01*
X125231646Y-53622336D01*
X125212231Y-53558332D01*
X125194420Y-53499618D01*
X125181851Y-53372000D01*
X125194420Y-53244382D01*
X125231645Y-53121668D01*
X125231646Y-53121664D01*
X125292094Y-53008575D01*
X125373446Y-52909446D01*
X125472575Y-52828094D01*
X125585664Y-52767646D01*
X125617596Y-52757960D01*
X125708382Y-52730420D01*
X125772145Y-52724140D01*
X125804026Y-52721000D01*
X126417974Y-52721000D01*
X126449855Y-52724140D01*
G37*
G36*
X144991855Y-52660140D02*
G01*
X145055618Y-52666420D01*
X145146404Y-52693960D01*
X145178336Y-52703646D01*
X145291425Y-52764094D01*
X145390554Y-52845446D01*
X145471906Y-52944575D01*
X145532354Y-53057664D01*
X145532355Y-53057668D01*
X145569580Y-53180382D01*
X145582149Y-53308000D01*
X145569580Y-53435618D01*
X145550166Y-53499616D01*
X145532354Y-53558336D01*
X145471906Y-53671425D01*
X145390554Y-53770554D01*
X145291425Y-53851906D01*
X145178336Y-53912354D01*
X145166626Y-53915906D01*
X145055618Y-53949580D01*
X144991855Y-53955860D01*
X144959974Y-53959000D01*
X144346026Y-53959000D01*
X144314145Y-53955860D01*
X144250382Y-53949580D01*
X144139374Y-53915906D01*
X144127664Y-53912354D01*
X144014575Y-53851906D01*
X143915446Y-53770554D01*
X143834094Y-53671425D01*
X143773646Y-53558336D01*
X143755834Y-53499616D01*
X143736420Y-53435618D01*
X143723851Y-53308000D01*
X143736420Y-53180382D01*
X143773645Y-53057668D01*
X143773646Y-53057664D01*
X143834094Y-52944575D01*
X143915446Y-52845446D01*
X144014575Y-52764094D01*
X144127664Y-52703646D01*
X144159596Y-52693960D01*
X144250382Y-52666420D01*
X144314145Y-52660140D01*
X144346026Y-52657000D01*
X144959974Y-52657000D01*
X144991855Y-52660140D01*
G37*
G36*
X126449855Y-50724140D02*
G01*
X126513618Y-50730420D01*
X126563280Y-50745485D01*
X126636336Y-50767646D01*
X126749425Y-50828094D01*
X126848554Y-50909446D01*
X126929906Y-51008575D01*
X126990354Y-51121664D01*
X126990355Y-51121668D01*
X127027580Y-51244382D01*
X127040149Y-51372000D01*
X127027580Y-51499618D01*
X127000040Y-51590404D01*
X126990354Y-51622336D01*
X126929906Y-51735425D01*
X126848554Y-51834554D01*
X126749425Y-51915906D01*
X126636336Y-51976354D01*
X126604404Y-51986040D01*
X126513618Y-52013580D01*
X126449855Y-52019860D01*
X126417974Y-52023000D01*
X125804026Y-52023000D01*
X125772145Y-52019860D01*
X125708382Y-52013580D01*
X125617596Y-51986040D01*
X125585664Y-51976354D01*
X125472575Y-51915906D01*
X125373446Y-51834554D01*
X125292094Y-51735425D01*
X125231646Y-51622336D01*
X125221960Y-51590404D01*
X125194420Y-51499618D01*
X125181851Y-51372000D01*
X125194420Y-51244382D01*
X125231645Y-51121668D01*
X125231646Y-51121664D01*
X125292094Y-51008575D01*
X125373446Y-50909446D01*
X125472575Y-50828094D01*
X125585664Y-50767646D01*
X125658720Y-50745485D01*
X125708382Y-50730420D01*
X125772145Y-50724140D01*
X125804026Y-50721000D01*
X126417974Y-50721000D01*
X126449855Y-50724140D01*
G37*
G36*
X145419242Y-50661404D02*
G01*
X145456337Y-50672657D01*
X145490515Y-50690925D01*
X145520481Y-50715519D01*
X145545075Y-50745485D01*
X145563343Y-50779663D01*
X145574596Y-50816758D01*
X145579000Y-50861474D01*
X145579000Y-51754526D01*
X145574596Y-51799242D01*
X145563343Y-51836337D01*
X145545075Y-51870515D01*
X145520481Y-51900481D01*
X145490515Y-51925075D01*
X145456337Y-51943343D01*
X145419242Y-51954596D01*
X145374526Y-51959000D01*
X143931474Y-51959000D01*
X143886758Y-51954596D01*
X143849663Y-51943343D01*
X143815485Y-51925075D01*
X143785519Y-51900481D01*
X143760925Y-51870515D01*
X143742657Y-51836337D01*
X143731404Y-51799242D01*
X143727000Y-51754526D01*
X143727000Y-50861474D01*
X143731404Y-50816758D01*
X143742657Y-50779663D01*
X143760925Y-50745485D01*
X143785519Y-50715519D01*
X143815485Y-50690925D01*
X143849663Y-50672657D01*
X143886758Y-50661404D01*
X143931474Y-50657000D01*
X145374526Y-50657000D01*
X145419242Y-50661404D01*
G37*
G36*
X136889142Y-48748242D02*
G01*
X137037101Y-48809529D01*
X137170255Y-48898499D01*
X137283501Y-49011745D01*
X137372471Y-49144899D01*
X137433758Y-49292858D01*
X137465000Y-49449925D01*
X137465000Y-49610075D01*
X137433758Y-49767142D01*
X137372471Y-49915101D01*
X137283501Y-50048255D01*
X137170255Y-50161501D01*
X137037101Y-50250471D01*
X136889142Y-50311758D01*
X136732075Y-50343000D01*
X136571925Y-50343000D01*
X136414858Y-50311758D01*
X136266899Y-50250471D01*
X136133745Y-50161501D01*
X136020499Y-50048255D01*
X135931529Y-49915101D01*
X135870242Y-49767142D01*
X135839000Y-49610075D01*
X135839000Y-49449925D01*
X135870242Y-49292858D01*
X135931529Y-49144899D01*
X136020499Y-49011745D01*
X136133745Y-48898499D01*
X136266899Y-48809529D01*
X136414858Y-48748242D01*
X136571925Y-48717000D01*
X136732075Y-48717000D01*
X136889142Y-48748242D01*
G37*
G36*
X139429142Y-48748242D02*
G01*
X139577101Y-48809529D01*
X139710255Y-48898499D01*
X139823501Y-49011745D01*
X139912471Y-49144899D01*
X139973758Y-49292858D01*
X140005000Y-49449925D01*
X140005000Y-49610075D01*
X139973758Y-49767142D01*
X139912471Y-49915101D01*
X139823501Y-50048255D01*
X139710255Y-50161501D01*
X139577101Y-50250471D01*
X139429142Y-50311758D01*
X139272075Y-50343000D01*
X139111925Y-50343000D01*
X138954858Y-50311758D01*
X138806899Y-50250471D01*
X138673745Y-50161501D01*
X138560499Y-50048255D01*
X138471529Y-49915101D01*
X138410242Y-49767142D01*
X138379000Y-49610075D01*
X138379000Y-49449925D01*
X138410242Y-49292858D01*
X138471529Y-49144899D01*
X138560499Y-49011745D01*
X138673745Y-48898499D01*
X138806899Y-48809529D01*
X138954858Y-48748242D01*
X139111925Y-48717000D01*
X139272075Y-48717000D01*
X139429142Y-48748242D01*
G37*
G36*
X134349142Y-48748242D02*
G01*
X134497101Y-48809529D01*
X134630255Y-48898499D01*
X134743501Y-49011745D01*
X134832471Y-49144899D01*
X134893758Y-49292858D01*
X134925000Y-49449925D01*
X134925000Y-49610075D01*
X134893758Y-49767142D01*
X134832471Y-49915101D01*
X134743501Y-50048255D01*
X134630255Y-50161501D01*
X134497101Y-50250471D01*
X134349142Y-50311758D01*
X134192075Y-50343000D01*
X134031925Y-50343000D01*
X133874858Y-50311758D01*
X133726899Y-50250471D01*
X133593745Y-50161501D01*
X133480499Y-50048255D01*
X133391529Y-49915101D01*
X133330242Y-49767142D01*
X133299000Y-49610075D01*
X133299000Y-49449925D01*
X133330242Y-49292858D01*
X133391529Y-49144899D01*
X133480499Y-49011745D01*
X133593745Y-48898499D01*
X133726899Y-48809529D01*
X133874858Y-48748242D01*
X134031925Y-48717000D01*
X134192075Y-48717000D01*
X134349142Y-48748242D01*
G37*
G36*
X131809142Y-48748242D02*
G01*
X131957101Y-48809529D01*
X132090255Y-48898499D01*
X132203501Y-49011745D01*
X132292471Y-49144899D01*
X132353758Y-49292858D01*
X132385000Y-49449925D01*
X132385000Y-49610075D01*
X132353758Y-49767142D01*
X132292471Y-49915101D01*
X132203501Y-50048255D01*
X132090255Y-50161501D01*
X131957101Y-50250471D01*
X131809142Y-50311758D01*
X131652075Y-50343000D01*
X131491925Y-50343000D01*
X131334858Y-50311758D01*
X131186899Y-50250471D01*
X131053745Y-50161501D01*
X130940499Y-50048255D01*
X130851529Y-49915101D01*
X130790242Y-49767142D01*
X130759000Y-49610075D01*
X130759000Y-49449925D01*
X130790242Y-49292858D01*
X130851529Y-49144899D01*
X130940499Y-49011745D01*
X131053745Y-48898499D01*
X131186899Y-48809529D01*
X131334858Y-48748242D01*
X131491925Y-48717000D01*
X131652075Y-48717000D01*
X131809142Y-48748242D01*
G37*
G36*
X129269142Y-48748242D02*
G01*
X129417101Y-48809529D01*
X129550255Y-48898499D01*
X129663501Y-49011745D01*
X129752471Y-49144899D01*
X129813758Y-49292858D01*
X129845000Y-49449925D01*
X129845000Y-49610075D01*
X129813758Y-49767142D01*
X129752471Y-49915101D01*
X129663501Y-50048255D01*
X129550255Y-50161501D01*
X129417101Y-50250471D01*
X129269142Y-50311758D01*
X129112075Y-50343000D01*
X128951925Y-50343000D01*
X128794858Y-50311758D01*
X128646899Y-50250471D01*
X128513745Y-50161501D01*
X128400499Y-50048255D01*
X128311529Y-49915101D01*
X128250242Y-49767142D01*
X128219000Y-49610075D01*
X128219000Y-49449925D01*
X128250242Y-49292858D01*
X128311529Y-49144899D01*
X128400499Y-49011745D01*
X128513745Y-48898499D01*
X128646899Y-48809529D01*
X128794858Y-48748242D01*
X128951925Y-48717000D01*
X129112075Y-48717000D01*
X129269142Y-48748242D01*
G37*
G36*
X141969142Y-48748242D02*
G01*
X142117101Y-48809529D01*
X142250255Y-48898499D01*
X142363501Y-49011745D01*
X142452471Y-49144899D01*
X142513758Y-49292858D01*
X142545000Y-49449925D01*
X142545000Y-49610075D01*
X142513758Y-49767142D01*
X142452471Y-49915101D01*
X142363501Y-50048255D01*
X142250255Y-50161501D01*
X142117101Y-50250471D01*
X141969142Y-50311758D01*
X141812075Y-50343000D01*
X141651925Y-50343000D01*
X141494858Y-50311758D01*
X141346899Y-50250471D01*
X141213745Y-50161501D01*
X141100499Y-50048255D01*
X141011529Y-49915101D01*
X140950242Y-49767142D01*
X140919000Y-49610075D01*
X140919000Y-49449925D01*
X140950242Y-49292858D01*
X141011529Y-49144899D01*
X141100499Y-49011745D01*
X141213745Y-48898499D01*
X141346899Y-48809529D01*
X141494858Y-48748242D01*
X141651925Y-48717000D01*
X141812075Y-48717000D01*
X141969142Y-48748242D01*
G37*
G36*
X148457256Y-42714298D02*
G01*
X148563579Y-42735447D01*
X148864042Y-42859903D01*
X149134451Y-43040585D01*
X149364415Y-43270549D01*
X149545097Y-43540958D01*
X149669553Y-43841421D01*
X149733000Y-44160391D01*
X149733000Y-44485609D01*
X149669553Y-44804579D01*
X149545097Y-45105042D01*
X149364415Y-45375451D01*
X149134451Y-45605415D01*
X148864042Y-45786097D01*
X148563579Y-45910553D01*
X148457256Y-45931702D01*
X148244611Y-45974000D01*
X147919389Y-45974000D01*
X147706744Y-45931702D01*
X147600421Y-45910553D01*
X147299958Y-45786097D01*
X147029549Y-45605415D01*
X146799585Y-45375451D01*
X146618903Y-45105042D01*
X146494447Y-44804579D01*
X146431000Y-44485609D01*
X146431000Y-44160391D01*
X146494447Y-43841421D01*
X146618903Y-43540958D01*
X146799585Y-43270549D01*
X147029549Y-43040585D01*
X147299958Y-42859903D01*
X147600421Y-42735447D01*
X147706744Y-42714298D01*
X147919389Y-42672000D01*
X148244611Y-42672000D01*
X148457256Y-42714298D01*
G37*
G36*
X123057256Y-42714298D02*
G01*
X123163579Y-42735447D01*
X123464042Y-42859903D01*
X123734451Y-43040585D01*
X123964415Y-43270549D01*
X124145097Y-43540958D01*
X124269553Y-43841421D01*
X124333000Y-44160391D01*
X124333000Y-44485609D01*
X124269553Y-44804579D01*
X124145097Y-45105042D01*
X123964415Y-45375451D01*
X123734451Y-45605415D01*
X123464042Y-45786097D01*
X123163579Y-45910553D01*
X123057256Y-45931702D01*
X122844611Y-45974000D01*
X122519389Y-45974000D01*
X122306744Y-45931702D01*
X122200421Y-45910553D01*
X121899958Y-45786097D01*
X121629549Y-45605415D01*
X121399585Y-45375451D01*
X121218903Y-45105042D01*
X121094447Y-44804579D01*
X121031000Y-44485609D01*
X121031000Y-44160391D01*
X121094447Y-43841421D01*
X121218903Y-43540958D01*
X121399585Y-43270549D01*
X121629549Y-43040585D01*
X121899958Y-42859903D01*
X122200421Y-42735447D01*
X122306744Y-42714298D01*
X122519389Y-42672000D01*
X122844611Y-42672000D01*
X123057256Y-42714298D01*
G37*
G36*
X126741246Y-41289912D02*
G01*
X126811183Y-41303823D01*
X126865759Y-41326429D01*
X126942942Y-41358399D01*
X127061522Y-41437632D01*
X127162368Y-41538478D01*
X127241601Y-41657058D01*
X127296177Y-41788818D01*
X127324000Y-41928691D01*
X127324000Y-42071309D01*
X127296177Y-42211182D01*
X127241601Y-42342942D01*
X127162368Y-42461522D01*
X127061522Y-42562368D01*
X126942942Y-42641601D01*
X126869551Y-42672000D01*
X126811183Y-42696177D01*
X126741246Y-42710088D01*
X126671309Y-42724000D01*
X126528691Y-42724000D01*
X126458755Y-42710089D01*
X126388817Y-42696177D01*
X126330449Y-42672000D01*
X126257058Y-42641601D01*
X126138478Y-42562368D01*
X126037632Y-42461522D01*
X125958399Y-42342942D01*
X125903823Y-42211182D01*
X125876000Y-42071309D01*
X125876000Y-41928691D01*
X125903823Y-41788818D01*
X125958399Y-41657058D01*
X126037632Y-41538478D01*
X126138478Y-41437632D01*
X126257058Y-41358399D01*
X126334241Y-41326429D01*
X126388817Y-41303823D01*
X126458754Y-41289912D01*
X126528691Y-41276000D01*
X126671309Y-41276000D01*
X126741246Y-41289912D01*
G37*
G36*
X144141246Y-41289912D02*
G01*
X144211183Y-41303823D01*
X144265759Y-41326429D01*
X144342942Y-41358399D01*
X144461522Y-41437632D01*
X144562368Y-41538478D01*
X144641601Y-41657058D01*
X144696177Y-41788818D01*
X144724000Y-41928691D01*
X144724000Y-42071309D01*
X144696177Y-42211182D01*
X144641601Y-42342942D01*
X144562368Y-42461522D01*
X144461522Y-42562368D01*
X144342942Y-42641601D01*
X144269551Y-42672000D01*
X144211183Y-42696177D01*
X144141246Y-42710088D01*
X144071309Y-42724000D01*
X143928691Y-42724000D01*
X143858755Y-42710089D01*
X143788817Y-42696177D01*
X143730449Y-42672000D01*
X143657058Y-42641601D01*
X143538478Y-42562368D01*
X143437632Y-42461522D01*
X143358399Y-42342942D01*
X143303823Y-42211182D01*
X143276000Y-42071309D01*
X143276000Y-41928691D01*
X143303823Y-41788818D01*
X143358399Y-41657058D01*
X143437632Y-41538478D01*
X143538478Y-41437632D01*
X143657058Y-41358399D01*
X143734241Y-41326429D01*
X143788817Y-41303823D01*
X143858754Y-41289912D01*
X143928691Y-41276000D01*
X144071309Y-41276000D01*
X144141246Y-41289912D01*
G37*
M02*
