G04 #@! TF.GenerationSoftware,KiCad,Pcbnew,(5.1.6)-1*
G04 #@! TF.CreationDate,2021-03-27T23:13:27-04:00*
G04 #@! TF.ProjectId,tm3130-2481bs,746d3331-3330-42d3-9234-383162732e6b,rev?*
G04 #@! TF.SameCoordinates,Original*
G04 #@! TF.FileFunction,Paste,Bot*
G04 #@! TF.FilePolarity,Positive*
%FSLAX46Y46*%
G04 Gerber Fmt 4.6, Leading zero omitted, Abs format (unit mm)*
G04 Created by KiCad (PCBNEW (5.1.6)-1) date 2021-03-27 23:13:27*
%MOMM*%
%LPD*%
G01*
G04 APERTURE LIST*
%ADD10R,0.900000X0.500000*%
%ADD11R,0.600000X1.500000*%
G04 APERTURE END LIST*
G36*
G01*
X129415250Y-42195000D02*
X128902750Y-42195000D01*
G75*
G02*
X128684000Y-41976250I0J218750D01*
G01*
X128684000Y-41538750D01*
G75*
G02*
X128902750Y-41320000I218750J0D01*
G01*
X129415250Y-41320000D01*
G75*
G02*
X129634000Y-41538750I0J-218750D01*
G01*
X129634000Y-41976250D01*
G75*
G02*
X129415250Y-42195000I-218750J0D01*
G01*
G37*
G36*
G01*
X129415250Y-43770000D02*
X128902750Y-43770000D01*
G75*
G02*
X128684000Y-43551250I0J218750D01*
G01*
X128684000Y-43113750D01*
G75*
G02*
X128902750Y-42895000I218750J0D01*
G01*
X129415250Y-42895000D01*
G75*
G02*
X129634000Y-43113750I0J-218750D01*
G01*
X129634000Y-43551250D01*
G75*
G02*
X129415250Y-43770000I-218750J0D01*
G01*
G37*
G36*
G01*
X128902750Y-45130000D02*
X129415250Y-45130000D01*
G75*
G02*
X129634000Y-45348750I0J-218750D01*
G01*
X129634000Y-45786250D01*
G75*
G02*
X129415250Y-46005000I-218750J0D01*
G01*
X128902750Y-46005000D01*
G75*
G02*
X128684000Y-45786250I0J218750D01*
G01*
X128684000Y-45348750D01*
G75*
G02*
X128902750Y-45130000I218750J0D01*
G01*
G37*
G36*
G01*
X128902750Y-46705000D02*
X129415250Y-46705000D01*
G75*
G02*
X129634000Y-46923750I0J-218750D01*
G01*
X129634000Y-47361250D01*
G75*
G02*
X129415250Y-47580000I-218750J0D01*
G01*
X128902750Y-47580000D01*
G75*
G02*
X128684000Y-47361250I0J218750D01*
G01*
X128684000Y-46923750D01*
G75*
G02*
X128902750Y-46705000I218750J0D01*
G01*
G37*
D10*
X141605000Y-47105000D03*
X141605000Y-45605000D03*
X141605000Y-41795000D03*
X141605000Y-43295000D03*
D11*
X130937000Y-41750000D03*
X132207000Y-41750000D03*
X133477000Y-41750000D03*
X134747000Y-41750000D03*
X136017000Y-41750000D03*
X137287000Y-41750000D03*
X138557000Y-41750000D03*
X139827000Y-41750000D03*
X139827000Y-47150000D03*
X138557000Y-47150000D03*
X137287000Y-47150000D03*
X136017000Y-47150000D03*
X134747000Y-47150000D03*
X133477000Y-47150000D03*
X132207000Y-47150000D03*
X130937000Y-47150000D03*
D10*
X131572000Y-52693000D03*
X131572000Y-51193000D03*
X141732000Y-51193000D03*
X141732000Y-52693000D03*
X136652000Y-53987000D03*
X136652000Y-55487000D03*
X131572000Y-55487000D03*
X131572000Y-53987000D03*
X129032000Y-53987000D03*
X129032000Y-55487000D03*
X134112000Y-51193000D03*
X134112000Y-52693000D03*
X139192000Y-53987000D03*
X139192000Y-55487000D03*
X134112000Y-55487000D03*
X134112000Y-53987000D03*
M02*
