M48
; DRILL file {KiCad (5.1.6)-1} date 03/27/21 23:08:43
; FORMAT={-:-/ absolute / inch / decimal}
; #@! TF.CreationDate,2021-03-27T23:08:43-04:00
; #@! TF.GenerationSoftware,Kicad,Pcbnew,(5.1.6)-1
FMAT,2
INCH
T1C0.0157
T2C0.0295
T3C0.0300
T4C0.0454
T5C0.1260
%
G90
G05
T1
X5.08Y-2.08
X5.085Y-1.75
X5.13Y-2.08
X5.255Y-1.7
X5.305Y-1.7
X5.33Y-2.1217
X5.355Y-1.7
X5.38Y-1.745
X5.405Y-1.7
X5.41Y-1.8
X5.43Y-2.1217
X5.575Y-1.76
X5.5802Y-2.1098
T2
X4.965Y-2.0225
X4.965Y-2.1013
X4.965Y-2.18
X5.695Y-2.02
X5.695Y-2.0987
X5.695Y-2.1775
T3
X5.08Y-1.95
X5.08Y-2.25
X5.18Y-1.95
X5.18Y-2.25
X5.28Y-1.95
X5.28Y-2.25
X5.38Y-1.95
X5.38Y-2.25
X5.48Y-1.95
X5.48Y-2.25
X5.58Y-1.95
X5.58Y-2.25
T4
X5.9134Y-2.2441
X5.6693Y-1.6535
X4.9843Y-1.6535
T5
X4.83Y-1.745
X5.83Y-1.745
T0
M30
