G04 #@! TF.GenerationSoftware,KiCad,Pcbnew,(5.1.6)-1*
G04 #@! TF.CreationDate,2021-03-27T23:13:27-04:00*
G04 #@! TF.ProjectId,tm3130-2481bs,746d3331-3330-42d3-9234-383162732e6b,rev?*
G04 #@! TF.SameCoordinates,Original*
G04 #@! TF.FileFunction,Copper,L1,Top*
G04 #@! TF.FilePolarity,Positive*
%FSLAX46Y46*%
G04 Gerber Fmt 4.6, Leading zero omitted, Abs format (unit mm)*
G04 Created by KiCad (PCBNEW (5.1.6)-1) date 2021-03-27 23:13:27*
%MOMM*%
%LPD*%
G01*
G04 APERTURE LIST*
G04 #@! TA.AperFunction,ComponentPad*
%ADD10R,1.524000X1.524000*%
G04 #@! TD*
G04 #@! TA.AperFunction,ComponentPad*
%ADD11C,1.524000*%
G04 #@! TD*
G04 #@! TA.AperFunction,ComponentPad*
%ADD12O,1.750000X1.200000*%
G04 #@! TD*
G04 #@! TA.AperFunction,ViaPad*
%ADD13C,0.800000*%
G04 #@! TD*
G04 #@! TA.AperFunction,Conductor*
%ADD14C,0.250000*%
G04 #@! TD*
G04 #@! TA.AperFunction,Conductor*
%ADD15C,1.000000*%
G04 #@! TD*
G04 #@! TA.AperFunction,Conductor*
%ADD16C,0.203200*%
G04 #@! TD*
G04 APERTURE END LIST*
D10*
X129032000Y-57150000D03*
D11*
X131572000Y-57150000D03*
X134112000Y-57150000D03*
X136652000Y-57150000D03*
X139192000Y-57150000D03*
X141732000Y-57150000D03*
X141732000Y-49530000D03*
X139192000Y-49530000D03*
X136652000Y-49530000D03*
X134112000Y-49530000D03*
X131572000Y-49530000D03*
X129032000Y-49530000D03*
G04 #@! TA.AperFunction,ComponentPad*
G36*
G01*
X126736001Y-55972000D02*
X125485999Y-55972000D01*
G75*
G02*
X125236000Y-55722001I0J249999D01*
G01*
X125236000Y-55021999D01*
G75*
G02*
X125485999Y-54772000I249999J0D01*
G01*
X126736001Y-54772000D01*
G75*
G02*
X126986000Y-55021999I0J-249999D01*
G01*
X126986000Y-55722001D01*
G75*
G02*
X126736001Y-55972000I-249999J0D01*
G01*
G37*
G04 #@! TD.AperFunction*
D12*
X126111000Y-53372000D03*
X126111000Y-51372000D03*
X144653000Y-55308000D03*
X144653000Y-53308000D03*
G04 #@! TA.AperFunction,ComponentPad*
G36*
G01*
X144027999Y-50708000D02*
X145278001Y-50708000D01*
G75*
G02*
X145528000Y-50957999I0J-249999D01*
G01*
X145528000Y-51658001D01*
G75*
G02*
X145278001Y-51908000I-249999J0D01*
G01*
X144027999Y-51908000D01*
G75*
G02*
X143778000Y-51658001I0J249999D01*
G01*
X143778000Y-50957999D01*
G75*
G02*
X144027999Y-50708000I249999J0D01*
G01*
G37*
G04 #@! TD.AperFunction*
D13*
X129159000Y-44450000D03*
X136652000Y-44323000D03*
X141605000Y-44704000D03*
X130302000Y-52832000D03*
X134747000Y-43180000D03*
X137287000Y-43180000D03*
X141736653Y-53589347D03*
X129032000Y-52832000D03*
X133477000Y-43180000D03*
X137414000Y-45720000D03*
X137922000Y-53890990D03*
X136017000Y-43180000D03*
X135382000Y-53890990D03*
D14*
X126111000Y-53372000D02*
X127159000Y-53372000D01*
X127159000Y-52546000D02*
X127159000Y-53372000D01*
X127508000Y-52197000D02*
X127159000Y-52546000D01*
X127508000Y-44958000D02*
X127508000Y-52197000D01*
X128016000Y-44450000D02*
X127508000Y-44958000D01*
X129159000Y-44450000D02*
X128016000Y-44450000D01*
D15*
X128778000Y-54991000D02*
X127159000Y-53372000D01*
X141963002Y-54991000D02*
X128778000Y-54991000D01*
X143646002Y-53308000D02*
X141963002Y-54991000D01*
X144653000Y-53308000D02*
X143646002Y-53308000D01*
D14*
X136652000Y-49530000D02*
X136652000Y-44323000D01*
X126111000Y-55372000D02*
X127762000Y-55372000D01*
X127762000Y-55372000D02*
X128270000Y-55880000D01*
X128270000Y-55880000D02*
X138049000Y-55880000D01*
X138049000Y-55880000D02*
X141859000Y-55880000D01*
X141859000Y-55880000D02*
X142367000Y-55880000D01*
X142367000Y-55880000D02*
X143891000Y-54356000D01*
X143891000Y-54356000D02*
X145288000Y-54356000D01*
X145288000Y-54356000D02*
X146685000Y-52959000D01*
X146685000Y-49784000D02*
X141605000Y-44704000D01*
X146685000Y-52959000D02*
X146685000Y-49784000D01*
X130302000Y-52832000D02*
X132842000Y-50292000D01*
X132842000Y-50292000D02*
X132842000Y-49022000D01*
X132842000Y-45085000D02*
X134747000Y-43180000D01*
X132842000Y-49022000D02*
X132842000Y-45085000D01*
X137287000Y-43180000D02*
X137287000Y-43307000D01*
X137287000Y-43307000D02*
X140279001Y-46299001D01*
X140279001Y-46299001D02*
X140462000Y-46482000D01*
X140462000Y-46482000D02*
X140462000Y-51435000D01*
X141736653Y-52709653D02*
X141736653Y-53589347D01*
X140462000Y-51435000D02*
X141736653Y-52709653D01*
X129032000Y-52832000D02*
X130302000Y-51562000D01*
X130302000Y-46355000D02*
X133477000Y-43180000D01*
X130302000Y-51562000D02*
X130302000Y-46355000D01*
X137414000Y-45720000D02*
X137922000Y-46228000D01*
X137922000Y-46228000D02*
X137922000Y-53890990D01*
X135382000Y-50927000D02*
X135382000Y-53890990D01*
X135382000Y-43815000D02*
X135382000Y-50927000D01*
X136017000Y-43180000D02*
X135382000Y-43815000D01*
D16*
G36*
X151384420Y-59019400D02*
G01*
X119379600Y-59019400D01*
X119379600Y-53372000D01*
X124875777Y-53372000D01*
X124894227Y-53559330D01*
X124948870Y-53739461D01*
X125037604Y-53905471D01*
X125157020Y-54050980D01*
X125302529Y-54170396D01*
X125468539Y-54259130D01*
X125648670Y-54313773D01*
X125789061Y-54327600D01*
X126432939Y-54327600D01*
X126573330Y-54313773D01*
X126753461Y-54259130D01*
X126807334Y-54230334D01*
X127468399Y-54891400D01*
X127327975Y-54891400D01*
X127297091Y-54789588D01*
X127240968Y-54684591D01*
X127165440Y-54592560D01*
X127073409Y-54517032D01*
X126968412Y-54460909D01*
X126854483Y-54426349D01*
X126736001Y-54414680D01*
X125485999Y-54414680D01*
X125367517Y-54426349D01*
X125253588Y-54460909D01*
X125148591Y-54517032D01*
X125056560Y-54592560D01*
X124981032Y-54684591D01*
X124924909Y-54789588D01*
X124890349Y-54903517D01*
X124878680Y-55021999D01*
X124878680Y-55722001D01*
X124890349Y-55840483D01*
X124924909Y-55954412D01*
X124981032Y-56059409D01*
X125056560Y-56151440D01*
X125148591Y-56226968D01*
X125253588Y-56283091D01*
X125367517Y-56317651D01*
X125485999Y-56329320D01*
X126736001Y-56329320D01*
X126854483Y-56317651D01*
X126968412Y-56283091D01*
X127073409Y-56226968D01*
X127165440Y-56151440D01*
X127240968Y-56059409D01*
X127297091Y-55954412D01*
X127327975Y-55852600D01*
X127562930Y-55852600D01*
X127913469Y-56203140D01*
X127928520Y-56221480D01*
X127947480Y-56237040D01*
X127939879Y-56251260D01*
X127919546Y-56318290D01*
X127912680Y-56388000D01*
X127912680Y-57912000D01*
X127919546Y-57981710D01*
X127939879Y-58048740D01*
X127972899Y-58110516D01*
X128017337Y-58164663D01*
X128071484Y-58209101D01*
X128133260Y-58242121D01*
X128200290Y-58262454D01*
X128270000Y-58269320D01*
X129794000Y-58269320D01*
X129863710Y-58262454D01*
X129930740Y-58242121D01*
X129992516Y-58209101D01*
X130046663Y-58164663D01*
X130091101Y-58110516D01*
X130124121Y-58048740D01*
X130144454Y-57981710D01*
X130151320Y-57912000D01*
X130151320Y-56388000D01*
X130148621Y-56360600D01*
X130780874Y-56360600D01*
X130703903Y-56437571D01*
X130581595Y-56620618D01*
X130497348Y-56824008D01*
X130454400Y-57039926D01*
X130454400Y-57260074D01*
X130497348Y-57475992D01*
X130581595Y-57679382D01*
X130703903Y-57862429D01*
X130859571Y-58018097D01*
X131042618Y-58140405D01*
X131246008Y-58224652D01*
X131461926Y-58267600D01*
X131682074Y-58267600D01*
X131897992Y-58224652D01*
X132101382Y-58140405D01*
X132284429Y-58018097D01*
X132440097Y-57862429D01*
X132562405Y-57679382D01*
X132646652Y-57475992D01*
X132689600Y-57260074D01*
X132689600Y-57039926D01*
X132646652Y-56824008D01*
X132562405Y-56620618D01*
X132440097Y-56437571D01*
X132363126Y-56360600D01*
X133320874Y-56360600D01*
X133243903Y-56437571D01*
X133121595Y-56620618D01*
X133037348Y-56824008D01*
X132994400Y-57039926D01*
X132994400Y-57260074D01*
X133037348Y-57475992D01*
X133121595Y-57679382D01*
X133243903Y-57862429D01*
X133399571Y-58018097D01*
X133582618Y-58140405D01*
X133786008Y-58224652D01*
X134001926Y-58267600D01*
X134222074Y-58267600D01*
X134437992Y-58224652D01*
X134641382Y-58140405D01*
X134824429Y-58018097D01*
X134980097Y-57862429D01*
X135102405Y-57679382D01*
X135186652Y-57475992D01*
X135229600Y-57260074D01*
X135229600Y-57039926D01*
X135186652Y-56824008D01*
X135102405Y-56620618D01*
X134980097Y-56437571D01*
X134903126Y-56360600D01*
X135860874Y-56360600D01*
X135783903Y-56437571D01*
X135661595Y-56620618D01*
X135577348Y-56824008D01*
X135534400Y-57039926D01*
X135534400Y-57260074D01*
X135577348Y-57475992D01*
X135661595Y-57679382D01*
X135783903Y-57862429D01*
X135939571Y-58018097D01*
X136122618Y-58140405D01*
X136326008Y-58224652D01*
X136541926Y-58267600D01*
X136762074Y-58267600D01*
X136977992Y-58224652D01*
X137181382Y-58140405D01*
X137364429Y-58018097D01*
X137520097Y-57862429D01*
X137642405Y-57679382D01*
X137726652Y-57475992D01*
X137769600Y-57260074D01*
X137769600Y-57039926D01*
X137726652Y-56824008D01*
X137642405Y-56620618D01*
X137520097Y-56437571D01*
X137443126Y-56360600D01*
X138400874Y-56360600D01*
X138323903Y-56437571D01*
X138201595Y-56620618D01*
X138117348Y-56824008D01*
X138074400Y-57039926D01*
X138074400Y-57260074D01*
X138117348Y-57475992D01*
X138201595Y-57679382D01*
X138323903Y-57862429D01*
X138479571Y-58018097D01*
X138662618Y-58140405D01*
X138866008Y-58224652D01*
X139081926Y-58267600D01*
X139302074Y-58267600D01*
X139517992Y-58224652D01*
X139721382Y-58140405D01*
X139904429Y-58018097D01*
X140060097Y-57862429D01*
X140182405Y-57679382D01*
X140266652Y-57475992D01*
X140309600Y-57260074D01*
X140309600Y-57039926D01*
X140266652Y-56824008D01*
X140182405Y-56620618D01*
X140060097Y-56437571D01*
X139983126Y-56360600D01*
X140940874Y-56360600D01*
X140863903Y-56437571D01*
X140741595Y-56620618D01*
X140657348Y-56824008D01*
X140614400Y-57039926D01*
X140614400Y-57260074D01*
X140657348Y-57475992D01*
X140741595Y-57679382D01*
X140863903Y-57862429D01*
X141019571Y-58018097D01*
X141202618Y-58140405D01*
X141406008Y-58224652D01*
X141621926Y-58267600D01*
X141842074Y-58267600D01*
X142057992Y-58224652D01*
X142261382Y-58140405D01*
X142444429Y-58018097D01*
X142600097Y-57862429D01*
X142722405Y-57679382D01*
X142806652Y-57475992D01*
X142849600Y-57260074D01*
X142849600Y-57039926D01*
X142823408Y-56908245D01*
X149268400Y-56908245D01*
X149268400Y-57091755D01*
X149304200Y-57271738D01*
X149374426Y-57441278D01*
X149476379Y-57593861D01*
X149606139Y-57723621D01*
X149758722Y-57825574D01*
X149928262Y-57895800D01*
X150108245Y-57931600D01*
X150291755Y-57931600D01*
X150471738Y-57895800D01*
X150641278Y-57825574D01*
X150793861Y-57723621D01*
X150923621Y-57593861D01*
X151025574Y-57441278D01*
X151095800Y-57271738D01*
X151131600Y-57091755D01*
X151131600Y-56908245D01*
X151095800Y-56728262D01*
X151025574Y-56558722D01*
X150923621Y-56406139D01*
X150793861Y-56276379D01*
X150641278Y-56174426D01*
X150471738Y-56104200D01*
X150291755Y-56068400D01*
X150108245Y-56068400D01*
X149928262Y-56104200D01*
X149758722Y-56174426D01*
X149606139Y-56276379D01*
X149476379Y-56406139D01*
X149374426Y-56558722D01*
X149304200Y-56728262D01*
X149268400Y-56908245D01*
X142823408Y-56908245D01*
X142806652Y-56824008D01*
X142722405Y-56620618D01*
X142600097Y-56437571D01*
X142503381Y-56340855D01*
X142551807Y-56326165D01*
X142635299Y-56281537D01*
X142708480Y-56221480D01*
X142723535Y-56203135D01*
X143439713Y-55486957D01*
X143485420Y-55650226D01*
X143569336Y-55817784D01*
X143684328Y-55965751D01*
X143825978Y-56088441D01*
X143988841Y-56181139D01*
X144166660Y-56240283D01*
X144352600Y-56263600D01*
X144627600Y-56263600D01*
X144627600Y-55333400D01*
X144678400Y-55333400D01*
X144678400Y-56263600D01*
X144953400Y-56263600D01*
X145139340Y-56240283D01*
X145317159Y-56181139D01*
X145480022Y-56088441D01*
X145621672Y-55965751D01*
X145736664Y-55817784D01*
X145820580Y-55650226D01*
X145867528Y-55482523D01*
X145794328Y-55333400D01*
X144678400Y-55333400D01*
X144627600Y-55333400D01*
X144607600Y-55333400D01*
X144607600Y-55282600D01*
X144627600Y-55282600D01*
X144627600Y-55262600D01*
X144678400Y-55262600D01*
X144678400Y-55282600D01*
X145794328Y-55282600D01*
X145867528Y-55133477D01*
X145820580Y-54965774D01*
X145736664Y-54798216D01*
X145644322Y-54679394D01*
X145644535Y-54679135D01*
X147008140Y-53315531D01*
X147026480Y-53300480D01*
X147081418Y-53233537D01*
X147086537Y-53227300D01*
X147131164Y-53143809D01*
X147131165Y-53143806D01*
X147158646Y-53053214D01*
X147165600Y-52982607D01*
X147165600Y-52982605D01*
X147167925Y-52959001D01*
X147165600Y-52935397D01*
X147165600Y-49807604D01*
X147167925Y-49784000D01*
X147161110Y-49714807D01*
X147158646Y-49689786D01*
X147131165Y-49599193D01*
X147086537Y-49515701D01*
X147026480Y-49442520D01*
X147008140Y-49427469D01*
X142360349Y-44779679D01*
X142360600Y-44778420D01*
X142360600Y-44629580D01*
X142331563Y-44483600D01*
X142274604Y-44346089D01*
X142191913Y-44222333D01*
X142099970Y-44130390D01*
X146126400Y-44130390D01*
X146126400Y-44515610D01*
X146201553Y-44893427D01*
X146348970Y-45249324D01*
X146562987Y-45569622D01*
X146835378Y-45842013D01*
X147155676Y-46056030D01*
X147511573Y-46203447D01*
X147889390Y-46278600D01*
X148274610Y-46278600D01*
X148652427Y-46203447D01*
X149008324Y-46056030D01*
X149328622Y-45842013D01*
X149601013Y-45569622D01*
X149815030Y-45249324D01*
X149962447Y-44893427D01*
X150037600Y-44515610D01*
X150037600Y-44130390D01*
X149962447Y-43752573D01*
X149815030Y-43396676D01*
X149601013Y-43076378D01*
X149328622Y-42803987D01*
X149008324Y-42589970D01*
X148652427Y-42442553D01*
X148274610Y-42367400D01*
X147889390Y-42367400D01*
X147511573Y-42442553D01*
X147155676Y-42589970D01*
X146835378Y-42803987D01*
X146562987Y-43076378D01*
X146348970Y-43396676D01*
X146201553Y-43752573D01*
X146126400Y-44130390D01*
X142099970Y-44130390D01*
X142086667Y-44117087D01*
X141962911Y-44034396D01*
X141825400Y-43977437D01*
X141679420Y-43948400D01*
X141530580Y-43948400D01*
X141384600Y-43977437D01*
X141247089Y-44034396D01*
X141123333Y-44117087D01*
X141018087Y-44222333D01*
X140935396Y-44346089D01*
X140878437Y-44483600D01*
X140849400Y-44629580D01*
X140849400Y-44778420D01*
X140878437Y-44924400D01*
X140935396Y-45061911D01*
X141018087Y-45185667D01*
X141123333Y-45290913D01*
X141247089Y-45373604D01*
X141384600Y-45430563D01*
X141530580Y-45459600D01*
X141679420Y-45459600D01*
X141680679Y-45459349D01*
X146204401Y-49983072D01*
X146204400Y-52759929D01*
X145863695Y-53100634D01*
X145815130Y-52940539D01*
X145726396Y-52774529D01*
X145606980Y-52629020D01*
X145461471Y-52509604D01*
X145295461Y-52420870D01*
X145115330Y-52366227D01*
X144974939Y-52352400D01*
X144331061Y-52352400D01*
X144190670Y-52366227D01*
X144010539Y-52420870D01*
X143951550Y-52452400D01*
X143688014Y-52452400D01*
X143646001Y-52448262D01*
X143603988Y-52452400D01*
X143603979Y-52452400D01*
X143478275Y-52464781D01*
X143316994Y-52513705D01*
X143168357Y-52593153D01*
X143168355Y-52593154D01*
X143168356Y-52593154D01*
X143070715Y-52673285D01*
X143070710Y-52673290D01*
X143038075Y-52700073D01*
X143011292Y-52732708D01*
X142437394Y-53306607D01*
X142406257Y-53231436D01*
X142323566Y-53107680D01*
X142218320Y-53002434D01*
X142217253Y-53001721D01*
X142217253Y-52733257D01*
X142219578Y-52709653D01*
X142213426Y-52647192D01*
X142210299Y-52615439D01*
X142182818Y-52524846D01*
X142138190Y-52441354D01*
X142078133Y-52368173D01*
X142059793Y-52353122D01*
X140942600Y-51235930D01*
X140942600Y-50957999D01*
X143420680Y-50957999D01*
X143420680Y-51658001D01*
X143432349Y-51776483D01*
X143466909Y-51890412D01*
X143523032Y-51995409D01*
X143598560Y-52087440D01*
X143690591Y-52162968D01*
X143795588Y-52219091D01*
X143909517Y-52253651D01*
X144027999Y-52265320D01*
X145278001Y-52265320D01*
X145396483Y-52253651D01*
X145510412Y-52219091D01*
X145615409Y-52162968D01*
X145707440Y-52087440D01*
X145782968Y-51995409D01*
X145839091Y-51890412D01*
X145873651Y-51776483D01*
X145885320Y-51658001D01*
X145885320Y-50957999D01*
X145873651Y-50839517D01*
X145839091Y-50725588D01*
X145782968Y-50620591D01*
X145707440Y-50528560D01*
X145615409Y-50453032D01*
X145510412Y-50396909D01*
X145396483Y-50362349D01*
X145278001Y-50350680D01*
X144027999Y-50350680D01*
X143909517Y-50362349D01*
X143795588Y-50396909D01*
X143690591Y-50453032D01*
X143598560Y-50528560D01*
X143523032Y-50620591D01*
X143466909Y-50725588D01*
X143432349Y-50839517D01*
X143420680Y-50957999D01*
X140942600Y-50957999D01*
X140942600Y-50321126D01*
X141019571Y-50398097D01*
X141202618Y-50520405D01*
X141406008Y-50604652D01*
X141621926Y-50647600D01*
X141842074Y-50647600D01*
X142057992Y-50604652D01*
X142261382Y-50520405D01*
X142444429Y-50398097D01*
X142600097Y-50242429D01*
X142722405Y-50059382D01*
X142806652Y-49855992D01*
X142849600Y-49640074D01*
X142849600Y-49419926D01*
X142806652Y-49204008D01*
X142722405Y-49000618D01*
X142600097Y-48817571D01*
X142444429Y-48661903D01*
X142261382Y-48539595D01*
X142057992Y-48455348D01*
X141842074Y-48412400D01*
X141621926Y-48412400D01*
X141406008Y-48455348D01*
X141202618Y-48539595D01*
X141019571Y-48661903D01*
X140942600Y-48738874D01*
X140942600Y-46505604D01*
X140944925Y-46482000D01*
X140941696Y-46449213D01*
X140935646Y-46387786D01*
X140908165Y-46297193D01*
X140863537Y-46213701D01*
X140803480Y-46140520D01*
X140785135Y-46125465D01*
X140635533Y-45975863D01*
X140635528Y-45975857D01*
X138021279Y-43361609D01*
X138042600Y-43254420D01*
X138042600Y-43105580D01*
X138013563Y-42959600D01*
X137956604Y-42822089D01*
X137873913Y-42698333D01*
X137768667Y-42593087D01*
X137644911Y-42510396D01*
X137507400Y-42453437D01*
X137361420Y-42424400D01*
X137212580Y-42424400D01*
X137066600Y-42453437D01*
X136929089Y-42510396D01*
X136805333Y-42593087D01*
X136700087Y-42698333D01*
X136652000Y-42770300D01*
X136603913Y-42698333D01*
X136498667Y-42593087D01*
X136374911Y-42510396D01*
X136237400Y-42453437D01*
X136091420Y-42424400D01*
X135942580Y-42424400D01*
X135796600Y-42453437D01*
X135659089Y-42510396D01*
X135535333Y-42593087D01*
X135430087Y-42698333D01*
X135382000Y-42770300D01*
X135333913Y-42698333D01*
X135228667Y-42593087D01*
X135104911Y-42510396D01*
X134967400Y-42453437D01*
X134821420Y-42424400D01*
X134672580Y-42424400D01*
X134526600Y-42453437D01*
X134389089Y-42510396D01*
X134265333Y-42593087D01*
X134160087Y-42698333D01*
X134112000Y-42770300D01*
X134063913Y-42698333D01*
X133958667Y-42593087D01*
X133834911Y-42510396D01*
X133697400Y-42453437D01*
X133551420Y-42424400D01*
X133402580Y-42424400D01*
X133256600Y-42453437D01*
X133119089Y-42510396D01*
X132995333Y-42593087D01*
X132890087Y-42698333D01*
X132807396Y-42822089D01*
X132750437Y-42959600D01*
X132721400Y-43105580D01*
X132721400Y-43254420D01*
X132721650Y-43255679D01*
X129978861Y-45998469D01*
X129960521Y-46013520D01*
X129936169Y-46043194D01*
X129900463Y-46086702D01*
X129855836Y-46170192D01*
X129828355Y-46260787D01*
X129819075Y-46355000D01*
X129821401Y-46378614D01*
X129821401Y-48738875D01*
X129744429Y-48661903D01*
X129561382Y-48539595D01*
X129357992Y-48455348D01*
X129142074Y-48412400D01*
X128921926Y-48412400D01*
X128706008Y-48455348D01*
X128502618Y-48539595D01*
X128319571Y-48661903D01*
X128163903Y-48817571D01*
X128041595Y-49000618D01*
X127988600Y-49128559D01*
X127988600Y-45157070D01*
X128215071Y-44930600D01*
X128571374Y-44930600D01*
X128572087Y-44931667D01*
X128677333Y-45036913D01*
X128801089Y-45119604D01*
X128938600Y-45176563D01*
X129084580Y-45205600D01*
X129233420Y-45205600D01*
X129379400Y-45176563D01*
X129516911Y-45119604D01*
X129640667Y-45036913D01*
X129745913Y-44931667D01*
X129828604Y-44807911D01*
X129885563Y-44670400D01*
X129914600Y-44524420D01*
X129914600Y-44375580D01*
X129885563Y-44229600D01*
X129828604Y-44092089D01*
X129745913Y-43968333D01*
X129640667Y-43863087D01*
X129516911Y-43780396D01*
X129379400Y-43723437D01*
X129233420Y-43694400D01*
X129084580Y-43694400D01*
X128938600Y-43723437D01*
X128801089Y-43780396D01*
X128677333Y-43863087D01*
X128572087Y-43968333D01*
X128571374Y-43969400D01*
X128039603Y-43969400D01*
X128015999Y-43967075D01*
X127992395Y-43969400D01*
X127992393Y-43969400D01*
X127921786Y-43976354D01*
X127831193Y-44003835D01*
X127831191Y-44003836D01*
X127747700Y-44048463D01*
X127717947Y-44072881D01*
X127674520Y-44108520D01*
X127659469Y-44126860D01*
X127184865Y-44601465D01*
X127166520Y-44616520D01*
X127106463Y-44689701D01*
X127061835Y-44773194D01*
X127034354Y-44863787D01*
X127027774Y-44930600D01*
X127025075Y-44958000D01*
X127027400Y-44981604D01*
X127027401Y-50668974D01*
X126938022Y-50591559D01*
X126775159Y-50498861D01*
X126597340Y-50439717D01*
X126411400Y-50416400D01*
X126136400Y-50416400D01*
X126136400Y-51346600D01*
X126156400Y-51346600D01*
X126156400Y-51397400D01*
X126136400Y-51397400D01*
X126136400Y-52327600D01*
X126411400Y-52327600D01*
X126597340Y-52304283D01*
X126775159Y-52245139D01*
X126792097Y-52235498D01*
X126757463Y-52277701D01*
X126712835Y-52361194D01*
X126685354Y-52451787D01*
X126684166Y-52463849D01*
X126573330Y-52430227D01*
X126432939Y-52416400D01*
X125789061Y-52416400D01*
X125648670Y-52430227D01*
X125468539Y-52484870D01*
X125302529Y-52573604D01*
X125157020Y-52693020D01*
X125037604Y-52838529D01*
X124948870Y-53004539D01*
X124894227Y-53184670D01*
X124875777Y-53372000D01*
X119379600Y-53372000D01*
X119379600Y-51546523D01*
X124896472Y-51546523D01*
X124943420Y-51714226D01*
X125027336Y-51881784D01*
X125142328Y-52029751D01*
X125283978Y-52152441D01*
X125446841Y-52245139D01*
X125624660Y-52304283D01*
X125810600Y-52327600D01*
X126085600Y-52327600D01*
X126085600Y-51397400D01*
X124969672Y-51397400D01*
X124896472Y-51546523D01*
X119379600Y-51546523D01*
X119379600Y-51197477D01*
X124896472Y-51197477D01*
X124969672Y-51346600D01*
X126085600Y-51346600D01*
X126085600Y-50416400D01*
X125810600Y-50416400D01*
X125624660Y-50439717D01*
X125446841Y-50498861D01*
X125283978Y-50591559D01*
X125142328Y-50714249D01*
X125027336Y-50862216D01*
X124943420Y-51029774D01*
X124896472Y-51197477D01*
X119379600Y-51197477D01*
X119379600Y-44130390D01*
X120726400Y-44130390D01*
X120726400Y-44515610D01*
X120801553Y-44893427D01*
X120948970Y-45249324D01*
X121162987Y-45569622D01*
X121435378Y-45842013D01*
X121755676Y-46056030D01*
X122111573Y-46203447D01*
X122489390Y-46278600D01*
X122874610Y-46278600D01*
X123252427Y-46203447D01*
X123608324Y-46056030D01*
X123928622Y-45842013D01*
X124201013Y-45569622D01*
X124415030Y-45249324D01*
X124562447Y-44893427D01*
X124637600Y-44515610D01*
X124637600Y-44130390D01*
X124562447Y-43752573D01*
X124415030Y-43396676D01*
X124201013Y-43076378D01*
X123928622Y-42803987D01*
X123608324Y-42589970D01*
X123252427Y-42442553D01*
X122874610Y-42367400D01*
X122489390Y-42367400D01*
X122111573Y-42442553D01*
X121755676Y-42589970D01*
X121435378Y-42803987D01*
X121162987Y-43076378D01*
X120948970Y-43396676D01*
X120801553Y-43752573D01*
X120726400Y-44130390D01*
X119379600Y-44130390D01*
X119379600Y-41908245D01*
X125668400Y-41908245D01*
X125668400Y-42091755D01*
X125704200Y-42271738D01*
X125774426Y-42441278D01*
X125876379Y-42593861D01*
X126006139Y-42723621D01*
X126158722Y-42825574D01*
X126328262Y-42895800D01*
X126508245Y-42931600D01*
X126691755Y-42931600D01*
X126871738Y-42895800D01*
X127041278Y-42825574D01*
X127193861Y-42723621D01*
X127323621Y-42593861D01*
X127425574Y-42441278D01*
X127495800Y-42271738D01*
X127531600Y-42091755D01*
X127531600Y-41908245D01*
X143068400Y-41908245D01*
X143068400Y-42091755D01*
X143104200Y-42271738D01*
X143174426Y-42441278D01*
X143276379Y-42593861D01*
X143406139Y-42723621D01*
X143558722Y-42825574D01*
X143728262Y-42895800D01*
X143908245Y-42931600D01*
X144091755Y-42931600D01*
X144271738Y-42895800D01*
X144441278Y-42825574D01*
X144593861Y-42723621D01*
X144723621Y-42593861D01*
X144825574Y-42441278D01*
X144895800Y-42271738D01*
X144931600Y-42091755D01*
X144931600Y-41908245D01*
X144895800Y-41728262D01*
X144825574Y-41558722D01*
X144723621Y-41406139D01*
X144593861Y-41276379D01*
X144441278Y-41174426D01*
X144271738Y-41104200D01*
X144091755Y-41068400D01*
X143908245Y-41068400D01*
X143728262Y-41104200D01*
X143558722Y-41174426D01*
X143406139Y-41276379D01*
X143276379Y-41406139D01*
X143174426Y-41558722D01*
X143104200Y-41728262D01*
X143068400Y-41908245D01*
X127531600Y-41908245D01*
X127495800Y-41728262D01*
X127425574Y-41558722D01*
X127323621Y-41406139D01*
X127193861Y-41276379D01*
X127041278Y-41174426D01*
X126871738Y-41104200D01*
X126691755Y-41068400D01*
X126508245Y-41068400D01*
X126328262Y-41104200D01*
X126158722Y-41174426D01*
X126006139Y-41276379D01*
X125876379Y-41406139D01*
X125774426Y-41558722D01*
X125704200Y-41728262D01*
X125668400Y-41908245D01*
X119379600Y-41908245D01*
X119379600Y-39780600D01*
X151385381Y-39780600D01*
X151384420Y-59019400D01*
G37*
X151384420Y-59019400D02*
X119379600Y-59019400D01*
X119379600Y-53372000D01*
X124875777Y-53372000D01*
X124894227Y-53559330D01*
X124948870Y-53739461D01*
X125037604Y-53905471D01*
X125157020Y-54050980D01*
X125302529Y-54170396D01*
X125468539Y-54259130D01*
X125648670Y-54313773D01*
X125789061Y-54327600D01*
X126432939Y-54327600D01*
X126573330Y-54313773D01*
X126753461Y-54259130D01*
X126807334Y-54230334D01*
X127468399Y-54891400D01*
X127327975Y-54891400D01*
X127297091Y-54789588D01*
X127240968Y-54684591D01*
X127165440Y-54592560D01*
X127073409Y-54517032D01*
X126968412Y-54460909D01*
X126854483Y-54426349D01*
X126736001Y-54414680D01*
X125485999Y-54414680D01*
X125367517Y-54426349D01*
X125253588Y-54460909D01*
X125148591Y-54517032D01*
X125056560Y-54592560D01*
X124981032Y-54684591D01*
X124924909Y-54789588D01*
X124890349Y-54903517D01*
X124878680Y-55021999D01*
X124878680Y-55722001D01*
X124890349Y-55840483D01*
X124924909Y-55954412D01*
X124981032Y-56059409D01*
X125056560Y-56151440D01*
X125148591Y-56226968D01*
X125253588Y-56283091D01*
X125367517Y-56317651D01*
X125485999Y-56329320D01*
X126736001Y-56329320D01*
X126854483Y-56317651D01*
X126968412Y-56283091D01*
X127073409Y-56226968D01*
X127165440Y-56151440D01*
X127240968Y-56059409D01*
X127297091Y-55954412D01*
X127327975Y-55852600D01*
X127562930Y-55852600D01*
X127913469Y-56203140D01*
X127928520Y-56221480D01*
X127947480Y-56237040D01*
X127939879Y-56251260D01*
X127919546Y-56318290D01*
X127912680Y-56388000D01*
X127912680Y-57912000D01*
X127919546Y-57981710D01*
X127939879Y-58048740D01*
X127972899Y-58110516D01*
X128017337Y-58164663D01*
X128071484Y-58209101D01*
X128133260Y-58242121D01*
X128200290Y-58262454D01*
X128270000Y-58269320D01*
X129794000Y-58269320D01*
X129863710Y-58262454D01*
X129930740Y-58242121D01*
X129992516Y-58209101D01*
X130046663Y-58164663D01*
X130091101Y-58110516D01*
X130124121Y-58048740D01*
X130144454Y-57981710D01*
X130151320Y-57912000D01*
X130151320Y-56388000D01*
X130148621Y-56360600D01*
X130780874Y-56360600D01*
X130703903Y-56437571D01*
X130581595Y-56620618D01*
X130497348Y-56824008D01*
X130454400Y-57039926D01*
X130454400Y-57260074D01*
X130497348Y-57475992D01*
X130581595Y-57679382D01*
X130703903Y-57862429D01*
X130859571Y-58018097D01*
X131042618Y-58140405D01*
X131246008Y-58224652D01*
X131461926Y-58267600D01*
X131682074Y-58267600D01*
X131897992Y-58224652D01*
X132101382Y-58140405D01*
X132284429Y-58018097D01*
X132440097Y-57862429D01*
X132562405Y-57679382D01*
X132646652Y-57475992D01*
X132689600Y-57260074D01*
X132689600Y-57039926D01*
X132646652Y-56824008D01*
X132562405Y-56620618D01*
X132440097Y-56437571D01*
X132363126Y-56360600D01*
X133320874Y-56360600D01*
X133243903Y-56437571D01*
X133121595Y-56620618D01*
X133037348Y-56824008D01*
X132994400Y-57039926D01*
X132994400Y-57260074D01*
X133037348Y-57475992D01*
X133121595Y-57679382D01*
X133243903Y-57862429D01*
X133399571Y-58018097D01*
X133582618Y-58140405D01*
X133786008Y-58224652D01*
X134001926Y-58267600D01*
X134222074Y-58267600D01*
X134437992Y-58224652D01*
X134641382Y-58140405D01*
X134824429Y-58018097D01*
X134980097Y-57862429D01*
X135102405Y-57679382D01*
X135186652Y-57475992D01*
X135229600Y-57260074D01*
X135229600Y-57039926D01*
X135186652Y-56824008D01*
X135102405Y-56620618D01*
X134980097Y-56437571D01*
X134903126Y-56360600D01*
X135860874Y-56360600D01*
X135783903Y-56437571D01*
X135661595Y-56620618D01*
X135577348Y-56824008D01*
X135534400Y-57039926D01*
X135534400Y-57260074D01*
X135577348Y-57475992D01*
X135661595Y-57679382D01*
X135783903Y-57862429D01*
X135939571Y-58018097D01*
X136122618Y-58140405D01*
X136326008Y-58224652D01*
X136541926Y-58267600D01*
X136762074Y-58267600D01*
X136977992Y-58224652D01*
X137181382Y-58140405D01*
X137364429Y-58018097D01*
X137520097Y-57862429D01*
X137642405Y-57679382D01*
X137726652Y-57475992D01*
X137769600Y-57260074D01*
X137769600Y-57039926D01*
X137726652Y-56824008D01*
X137642405Y-56620618D01*
X137520097Y-56437571D01*
X137443126Y-56360600D01*
X138400874Y-56360600D01*
X138323903Y-56437571D01*
X138201595Y-56620618D01*
X138117348Y-56824008D01*
X138074400Y-57039926D01*
X138074400Y-57260074D01*
X138117348Y-57475992D01*
X138201595Y-57679382D01*
X138323903Y-57862429D01*
X138479571Y-58018097D01*
X138662618Y-58140405D01*
X138866008Y-58224652D01*
X139081926Y-58267600D01*
X139302074Y-58267600D01*
X139517992Y-58224652D01*
X139721382Y-58140405D01*
X139904429Y-58018097D01*
X140060097Y-57862429D01*
X140182405Y-57679382D01*
X140266652Y-57475992D01*
X140309600Y-57260074D01*
X140309600Y-57039926D01*
X140266652Y-56824008D01*
X140182405Y-56620618D01*
X140060097Y-56437571D01*
X139983126Y-56360600D01*
X140940874Y-56360600D01*
X140863903Y-56437571D01*
X140741595Y-56620618D01*
X140657348Y-56824008D01*
X140614400Y-57039926D01*
X140614400Y-57260074D01*
X140657348Y-57475992D01*
X140741595Y-57679382D01*
X140863903Y-57862429D01*
X141019571Y-58018097D01*
X141202618Y-58140405D01*
X141406008Y-58224652D01*
X141621926Y-58267600D01*
X141842074Y-58267600D01*
X142057992Y-58224652D01*
X142261382Y-58140405D01*
X142444429Y-58018097D01*
X142600097Y-57862429D01*
X142722405Y-57679382D01*
X142806652Y-57475992D01*
X142849600Y-57260074D01*
X142849600Y-57039926D01*
X142823408Y-56908245D01*
X149268400Y-56908245D01*
X149268400Y-57091755D01*
X149304200Y-57271738D01*
X149374426Y-57441278D01*
X149476379Y-57593861D01*
X149606139Y-57723621D01*
X149758722Y-57825574D01*
X149928262Y-57895800D01*
X150108245Y-57931600D01*
X150291755Y-57931600D01*
X150471738Y-57895800D01*
X150641278Y-57825574D01*
X150793861Y-57723621D01*
X150923621Y-57593861D01*
X151025574Y-57441278D01*
X151095800Y-57271738D01*
X151131600Y-57091755D01*
X151131600Y-56908245D01*
X151095800Y-56728262D01*
X151025574Y-56558722D01*
X150923621Y-56406139D01*
X150793861Y-56276379D01*
X150641278Y-56174426D01*
X150471738Y-56104200D01*
X150291755Y-56068400D01*
X150108245Y-56068400D01*
X149928262Y-56104200D01*
X149758722Y-56174426D01*
X149606139Y-56276379D01*
X149476379Y-56406139D01*
X149374426Y-56558722D01*
X149304200Y-56728262D01*
X149268400Y-56908245D01*
X142823408Y-56908245D01*
X142806652Y-56824008D01*
X142722405Y-56620618D01*
X142600097Y-56437571D01*
X142503381Y-56340855D01*
X142551807Y-56326165D01*
X142635299Y-56281537D01*
X142708480Y-56221480D01*
X142723535Y-56203135D01*
X143439713Y-55486957D01*
X143485420Y-55650226D01*
X143569336Y-55817784D01*
X143684328Y-55965751D01*
X143825978Y-56088441D01*
X143988841Y-56181139D01*
X144166660Y-56240283D01*
X144352600Y-56263600D01*
X144627600Y-56263600D01*
X144627600Y-55333400D01*
X144678400Y-55333400D01*
X144678400Y-56263600D01*
X144953400Y-56263600D01*
X145139340Y-56240283D01*
X145317159Y-56181139D01*
X145480022Y-56088441D01*
X145621672Y-55965751D01*
X145736664Y-55817784D01*
X145820580Y-55650226D01*
X145867528Y-55482523D01*
X145794328Y-55333400D01*
X144678400Y-55333400D01*
X144627600Y-55333400D01*
X144607600Y-55333400D01*
X144607600Y-55282600D01*
X144627600Y-55282600D01*
X144627600Y-55262600D01*
X144678400Y-55262600D01*
X144678400Y-55282600D01*
X145794328Y-55282600D01*
X145867528Y-55133477D01*
X145820580Y-54965774D01*
X145736664Y-54798216D01*
X145644322Y-54679394D01*
X145644535Y-54679135D01*
X147008140Y-53315531D01*
X147026480Y-53300480D01*
X147081418Y-53233537D01*
X147086537Y-53227300D01*
X147131164Y-53143809D01*
X147131165Y-53143806D01*
X147158646Y-53053214D01*
X147165600Y-52982607D01*
X147165600Y-52982605D01*
X147167925Y-52959001D01*
X147165600Y-52935397D01*
X147165600Y-49807604D01*
X147167925Y-49784000D01*
X147161110Y-49714807D01*
X147158646Y-49689786D01*
X147131165Y-49599193D01*
X147086537Y-49515701D01*
X147026480Y-49442520D01*
X147008140Y-49427469D01*
X142360349Y-44779679D01*
X142360600Y-44778420D01*
X142360600Y-44629580D01*
X142331563Y-44483600D01*
X142274604Y-44346089D01*
X142191913Y-44222333D01*
X142099970Y-44130390D01*
X146126400Y-44130390D01*
X146126400Y-44515610D01*
X146201553Y-44893427D01*
X146348970Y-45249324D01*
X146562987Y-45569622D01*
X146835378Y-45842013D01*
X147155676Y-46056030D01*
X147511573Y-46203447D01*
X147889390Y-46278600D01*
X148274610Y-46278600D01*
X148652427Y-46203447D01*
X149008324Y-46056030D01*
X149328622Y-45842013D01*
X149601013Y-45569622D01*
X149815030Y-45249324D01*
X149962447Y-44893427D01*
X150037600Y-44515610D01*
X150037600Y-44130390D01*
X149962447Y-43752573D01*
X149815030Y-43396676D01*
X149601013Y-43076378D01*
X149328622Y-42803987D01*
X149008324Y-42589970D01*
X148652427Y-42442553D01*
X148274610Y-42367400D01*
X147889390Y-42367400D01*
X147511573Y-42442553D01*
X147155676Y-42589970D01*
X146835378Y-42803987D01*
X146562987Y-43076378D01*
X146348970Y-43396676D01*
X146201553Y-43752573D01*
X146126400Y-44130390D01*
X142099970Y-44130390D01*
X142086667Y-44117087D01*
X141962911Y-44034396D01*
X141825400Y-43977437D01*
X141679420Y-43948400D01*
X141530580Y-43948400D01*
X141384600Y-43977437D01*
X141247089Y-44034396D01*
X141123333Y-44117087D01*
X141018087Y-44222333D01*
X140935396Y-44346089D01*
X140878437Y-44483600D01*
X140849400Y-44629580D01*
X140849400Y-44778420D01*
X140878437Y-44924400D01*
X140935396Y-45061911D01*
X141018087Y-45185667D01*
X141123333Y-45290913D01*
X141247089Y-45373604D01*
X141384600Y-45430563D01*
X141530580Y-45459600D01*
X141679420Y-45459600D01*
X141680679Y-45459349D01*
X146204401Y-49983072D01*
X146204400Y-52759929D01*
X145863695Y-53100634D01*
X145815130Y-52940539D01*
X145726396Y-52774529D01*
X145606980Y-52629020D01*
X145461471Y-52509604D01*
X145295461Y-52420870D01*
X145115330Y-52366227D01*
X144974939Y-52352400D01*
X144331061Y-52352400D01*
X144190670Y-52366227D01*
X144010539Y-52420870D01*
X143951550Y-52452400D01*
X143688014Y-52452400D01*
X143646001Y-52448262D01*
X143603988Y-52452400D01*
X143603979Y-52452400D01*
X143478275Y-52464781D01*
X143316994Y-52513705D01*
X143168357Y-52593153D01*
X143168355Y-52593154D01*
X143168356Y-52593154D01*
X143070715Y-52673285D01*
X143070710Y-52673290D01*
X143038075Y-52700073D01*
X143011292Y-52732708D01*
X142437394Y-53306607D01*
X142406257Y-53231436D01*
X142323566Y-53107680D01*
X142218320Y-53002434D01*
X142217253Y-53001721D01*
X142217253Y-52733257D01*
X142219578Y-52709653D01*
X142213426Y-52647192D01*
X142210299Y-52615439D01*
X142182818Y-52524846D01*
X142138190Y-52441354D01*
X142078133Y-52368173D01*
X142059793Y-52353122D01*
X140942600Y-51235930D01*
X140942600Y-50957999D01*
X143420680Y-50957999D01*
X143420680Y-51658001D01*
X143432349Y-51776483D01*
X143466909Y-51890412D01*
X143523032Y-51995409D01*
X143598560Y-52087440D01*
X143690591Y-52162968D01*
X143795588Y-52219091D01*
X143909517Y-52253651D01*
X144027999Y-52265320D01*
X145278001Y-52265320D01*
X145396483Y-52253651D01*
X145510412Y-52219091D01*
X145615409Y-52162968D01*
X145707440Y-52087440D01*
X145782968Y-51995409D01*
X145839091Y-51890412D01*
X145873651Y-51776483D01*
X145885320Y-51658001D01*
X145885320Y-50957999D01*
X145873651Y-50839517D01*
X145839091Y-50725588D01*
X145782968Y-50620591D01*
X145707440Y-50528560D01*
X145615409Y-50453032D01*
X145510412Y-50396909D01*
X145396483Y-50362349D01*
X145278001Y-50350680D01*
X144027999Y-50350680D01*
X143909517Y-50362349D01*
X143795588Y-50396909D01*
X143690591Y-50453032D01*
X143598560Y-50528560D01*
X143523032Y-50620591D01*
X143466909Y-50725588D01*
X143432349Y-50839517D01*
X143420680Y-50957999D01*
X140942600Y-50957999D01*
X140942600Y-50321126D01*
X141019571Y-50398097D01*
X141202618Y-50520405D01*
X141406008Y-50604652D01*
X141621926Y-50647600D01*
X141842074Y-50647600D01*
X142057992Y-50604652D01*
X142261382Y-50520405D01*
X142444429Y-50398097D01*
X142600097Y-50242429D01*
X142722405Y-50059382D01*
X142806652Y-49855992D01*
X142849600Y-49640074D01*
X142849600Y-49419926D01*
X142806652Y-49204008D01*
X142722405Y-49000618D01*
X142600097Y-48817571D01*
X142444429Y-48661903D01*
X142261382Y-48539595D01*
X142057992Y-48455348D01*
X141842074Y-48412400D01*
X141621926Y-48412400D01*
X141406008Y-48455348D01*
X141202618Y-48539595D01*
X141019571Y-48661903D01*
X140942600Y-48738874D01*
X140942600Y-46505604D01*
X140944925Y-46482000D01*
X140941696Y-46449213D01*
X140935646Y-46387786D01*
X140908165Y-46297193D01*
X140863537Y-46213701D01*
X140803480Y-46140520D01*
X140785135Y-46125465D01*
X140635533Y-45975863D01*
X140635528Y-45975857D01*
X138021279Y-43361609D01*
X138042600Y-43254420D01*
X138042600Y-43105580D01*
X138013563Y-42959600D01*
X137956604Y-42822089D01*
X137873913Y-42698333D01*
X137768667Y-42593087D01*
X137644911Y-42510396D01*
X137507400Y-42453437D01*
X137361420Y-42424400D01*
X137212580Y-42424400D01*
X137066600Y-42453437D01*
X136929089Y-42510396D01*
X136805333Y-42593087D01*
X136700087Y-42698333D01*
X136652000Y-42770300D01*
X136603913Y-42698333D01*
X136498667Y-42593087D01*
X136374911Y-42510396D01*
X136237400Y-42453437D01*
X136091420Y-42424400D01*
X135942580Y-42424400D01*
X135796600Y-42453437D01*
X135659089Y-42510396D01*
X135535333Y-42593087D01*
X135430087Y-42698333D01*
X135382000Y-42770300D01*
X135333913Y-42698333D01*
X135228667Y-42593087D01*
X135104911Y-42510396D01*
X134967400Y-42453437D01*
X134821420Y-42424400D01*
X134672580Y-42424400D01*
X134526600Y-42453437D01*
X134389089Y-42510396D01*
X134265333Y-42593087D01*
X134160087Y-42698333D01*
X134112000Y-42770300D01*
X134063913Y-42698333D01*
X133958667Y-42593087D01*
X133834911Y-42510396D01*
X133697400Y-42453437D01*
X133551420Y-42424400D01*
X133402580Y-42424400D01*
X133256600Y-42453437D01*
X133119089Y-42510396D01*
X132995333Y-42593087D01*
X132890087Y-42698333D01*
X132807396Y-42822089D01*
X132750437Y-42959600D01*
X132721400Y-43105580D01*
X132721400Y-43254420D01*
X132721650Y-43255679D01*
X129978861Y-45998469D01*
X129960521Y-46013520D01*
X129936169Y-46043194D01*
X129900463Y-46086702D01*
X129855836Y-46170192D01*
X129828355Y-46260787D01*
X129819075Y-46355000D01*
X129821401Y-46378614D01*
X129821401Y-48738875D01*
X129744429Y-48661903D01*
X129561382Y-48539595D01*
X129357992Y-48455348D01*
X129142074Y-48412400D01*
X128921926Y-48412400D01*
X128706008Y-48455348D01*
X128502618Y-48539595D01*
X128319571Y-48661903D01*
X128163903Y-48817571D01*
X128041595Y-49000618D01*
X127988600Y-49128559D01*
X127988600Y-45157070D01*
X128215071Y-44930600D01*
X128571374Y-44930600D01*
X128572087Y-44931667D01*
X128677333Y-45036913D01*
X128801089Y-45119604D01*
X128938600Y-45176563D01*
X129084580Y-45205600D01*
X129233420Y-45205600D01*
X129379400Y-45176563D01*
X129516911Y-45119604D01*
X129640667Y-45036913D01*
X129745913Y-44931667D01*
X129828604Y-44807911D01*
X129885563Y-44670400D01*
X129914600Y-44524420D01*
X129914600Y-44375580D01*
X129885563Y-44229600D01*
X129828604Y-44092089D01*
X129745913Y-43968333D01*
X129640667Y-43863087D01*
X129516911Y-43780396D01*
X129379400Y-43723437D01*
X129233420Y-43694400D01*
X129084580Y-43694400D01*
X128938600Y-43723437D01*
X128801089Y-43780396D01*
X128677333Y-43863087D01*
X128572087Y-43968333D01*
X128571374Y-43969400D01*
X128039603Y-43969400D01*
X128015999Y-43967075D01*
X127992395Y-43969400D01*
X127992393Y-43969400D01*
X127921786Y-43976354D01*
X127831193Y-44003835D01*
X127831191Y-44003836D01*
X127747700Y-44048463D01*
X127717947Y-44072881D01*
X127674520Y-44108520D01*
X127659469Y-44126860D01*
X127184865Y-44601465D01*
X127166520Y-44616520D01*
X127106463Y-44689701D01*
X127061835Y-44773194D01*
X127034354Y-44863787D01*
X127027774Y-44930600D01*
X127025075Y-44958000D01*
X127027400Y-44981604D01*
X127027401Y-50668974D01*
X126938022Y-50591559D01*
X126775159Y-50498861D01*
X126597340Y-50439717D01*
X126411400Y-50416400D01*
X126136400Y-50416400D01*
X126136400Y-51346600D01*
X126156400Y-51346600D01*
X126156400Y-51397400D01*
X126136400Y-51397400D01*
X126136400Y-52327600D01*
X126411400Y-52327600D01*
X126597340Y-52304283D01*
X126775159Y-52245139D01*
X126792097Y-52235498D01*
X126757463Y-52277701D01*
X126712835Y-52361194D01*
X126685354Y-52451787D01*
X126684166Y-52463849D01*
X126573330Y-52430227D01*
X126432939Y-52416400D01*
X125789061Y-52416400D01*
X125648670Y-52430227D01*
X125468539Y-52484870D01*
X125302529Y-52573604D01*
X125157020Y-52693020D01*
X125037604Y-52838529D01*
X124948870Y-53004539D01*
X124894227Y-53184670D01*
X124875777Y-53372000D01*
X119379600Y-53372000D01*
X119379600Y-51546523D01*
X124896472Y-51546523D01*
X124943420Y-51714226D01*
X125027336Y-51881784D01*
X125142328Y-52029751D01*
X125283978Y-52152441D01*
X125446841Y-52245139D01*
X125624660Y-52304283D01*
X125810600Y-52327600D01*
X126085600Y-52327600D01*
X126085600Y-51397400D01*
X124969672Y-51397400D01*
X124896472Y-51546523D01*
X119379600Y-51546523D01*
X119379600Y-51197477D01*
X124896472Y-51197477D01*
X124969672Y-51346600D01*
X126085600Y-51346600D01*
X126085600Y-50416400D01*
X125810600Y-50416400D01*
X125624660Y-50439717D01*
X125446841Y-50498861D01*
X125283978Y-50591559D01*
X125142328Y-50714249D01*
X125027336Y-50862216D01*
X124943420Y-51029774D01*
X124896472Y-51197477D01*
X119379600Y-51197477D01*
X119379600Y-44130390D01*
X120726400Y-44130390D01*
X120726400Y-44515610D01*
X120801553Y-44893427D01*
X120948970Y-45249324D01*
X121162987Y-45569622D01*
X121435378Y-45842013D01*
X121755676Y-46056030D01*
X122111573Y-46203447D01*
X122489390Y-46278600D01*
X122874610Y-46278600D01*
X123252427Y-46203447D01*
X123608324Y-46056030D01*
X123928622Y-45842013D01*
X124201013Y-45569622D01*
X124415030Y-45249324D01*
X124562447Y-44893427D01*
X124637600Y-44515610D01*
X124637600Y-44130390D01*
X124562447Y-43752573D01*
X124415030Y-43396676D01*
X124201013Y-43076378D01*
X123928622Y-42803987D01*
X123608324Y-42589970D01*
X123252427Y-42442553D01*
X122874610Y-42367400D01*
X122489390Y-42367400D01*
X122111573Y-42442553D01*
X121755676Y-42589970D01*
X121435378Y-42803987D01*
X121162987Y-43076378D01*
X120948970Y-43396676D01*
X120801553Y-43752573D01*
X120726400Y-44130390D01*
X119379600Y-44130390D01*
X119379600Y-41908245D01*
X125668400Y-41908245D01*
X125668400Y-42091755D01*
X125704200Y-42271738D01*
X125774426Y-42441278D01*
X125876379Y-42593861D01*
X126006139Y-42723621D01*
X126158722Y-42825574D01*
X126328262Y-42895800D01*
X126508245Y-42931600D01*
X126691755Y-42931600D01*
X126871738Y-42895800D01*
X127041278Y-42825574D01*
X127193861Y-42723621D01*
X127323621Y-42593861D01*
X127425574Y-42441278D01*
X127495800Y-42271738D01*
X127531600Y-42091755D01*
X127531600Y-41908245D01*
X143068400Y-41908245D01*
X143068400Y-42091755D01*
X143104200Y-42271738D01*
X143174426Y-42441278D01*
X143276379Y-42593861D01*
X143406139Y-42723621D01*
X143558722Y-42825574D01*
X143728262Y-42895800D01*
X143908245Y-42931600D01*
X144091755Y-42931600D01*
X144271738Y-42895800D01*
X144441278Y-42825574D01*
X144593861Y-42723621D01*
X144723621Y-42593861D01*
X144825574Y-42441278D01*
X144895800Y-42271738D01*
X144931600Y-42091755D01*
X144931600Y-41908245D01*
X144895800Y-41728262D01*
X144825574Y-41558722D01*
X144723621Y-41406139D01*
X144593861Y-41276379D01*
X144441278Y-41174426D01*
X144271738Y-41104200D01*
X144091755Y-41068400D01*
X143908245Y-41068400D01*
X143728262Y-41104200D01*
X143558722Y-41174426D01*
X143406139Y-41276379D01*
X143276379Y-41406139D01*
X143174426Y-41558722D01*
X143104200Y-41728262D01*
X143068400Y-41908245D01*
X127531600Y-41908245D01*
X127495800Y-41728262D01*
X127425574Y-41558722D01*
X127323621Y-41406139D01*
X127193861Y-41276379D01*
X127041278Y-41174426D01*
X126871738Y-41104200D01*
X126691755Y-41068400D01*
X126508245Y-41068400D01*
X126328262Y-41104200D01*
X126158722Y-41174426D01*
X126006139Y-41276379D01*
X125876379Y-41406139D01*
X125774426Y-41558722D01*
X125704200Y-41728262D01*
X125668400Y-41908245D01*
X119379600Y-41908245D01*
X119379600Y-39780600D01*
X151385381Y-39780600D01*
X151384420Y-59019400D01*
M02*
