G04 #@! TF.GenerationSoftware,KiCad,Pcbnew,(5.1.6)-1*
G04 #@! TF.CreationDate,2021-03-27T23:13:27-04:00*
G04 #@! TF.ProjectId,tm3130-2481bs,746d3331-3330-42d3-9234-383162732e6b,rev?*
G04 #@! TF.SameCoordinates,Original*
G04 #@! TF.FileFunction,Copper,L2,Bot*
G04 #@! TF.FilePolarity,Positive*
%FSLAX46Y46*%
G04 Gerber Fmt 4.6, Leading zero omitted, Abs format (unit mm)*
G04 Created by KiCad (PCBNEW (5.1.6)-1) date 2021-03-27 23:13:27*
%MOMM*%
%LPD*%
G01*
G04 APERTURE LIST*
G04 #@! TA.AperFunction,ComponentPad*
%ADD10R,1.524000X1.524000*%
G04 #@! TD*
G04 #@! TA.AperFunction,ComponentPad*
%ADD11C,1.524000*%
G04 #@! TD*
G04 #@! TA.AperFunction,SMDPad,CuDef*
%ADD12R,0.900000X0.500000*%
G04 #@! TD*
G04 #@! TA.AperFunction,SMDPad,CuDef*
%ADD13R,0.600000X1.500000*%
G04 #@! TD*
G04 #@! TA.AperFunction,ComponentPad*
%ADD14O,1.750000X1.200000*%
G04 #@! TD*
G04 #@! TA.AperFunction,ViaPad*
%ADD15C,0.800000*%
G04 #@! TD*
G04 #@! TA.AperFunction,Conductor*
%ADD16C,0.250000*%
G04 #@! TD*
G04 #@! TA.AperFunction,Conductor*
%ADD17C,0.203200*%
G04 #@! TD*
G04 APERTURE END LIST*
D10*
X129032000Y-57150000D03*
D11*
X131572000Y-57150000D03*
X134112000Y-57150000D03*
X136652000Y-57150000D03*
X139192000Y-57150000D03*
X141732000Y-57150000D03*
X141732000Y-49530000D03*
X139192000Y-49530000D03*
X136652000Y-49530000D03*
X134112000Y-49530000D03*
X131572000Y-49530000D03*
X129032000Y-49530000D03*
G04 #@! TA.AperFunction,SMDPad,CuDef*
G36*
G01*
X129415250Y-42195000D02*
X128902750Y-42195000D01*
G75*
G02*
X128684000Y-41976250I0J218750D01*
G01*
X128684000Y-41538750D01*
G75*
G02*
X128902750Y-41320000I218750J0D01*
G01*
X129415250Y-41320000D01*
G75*
G02*
X129634000Y-41538750I0J-218750D01*
G01*
X129634000Y-41976250D01*
G75*
G02*
X129415250Y-42195000I-218750J0D01*
G01*
G37*
G04 #@! TD.AperFunction*
G04 #@! TA.AperFunction,SMDPad,CuDef*
G36*
G01*
X129415250Y-43770000D02*
X128902750Y-43770000D01*
G75*
G02*
X128684000Y-43551250I0J218750D01*
G01*
X128684000Y-43113750D01*
G75*
G02*
X128902750Y-42895000I218750J0D01*
G01*
X129415250Y-42895000D01*
G75*
G02*
X129634000Y-43113750I0J-218750D01*
G01*
X129634000Y-43551250D01*
G75*
G02*
X129415250Y-43770000I-218750J0D01*
G01*
G37*
G04 #@! TD.AperFunction*
G04 #@! TA.AperFunction,SMDPad,CuDef*
G36*
G01*
X128902750Y-45130000D02*
X129415250Y-45130000D01*
G75*
G02*
X129634000Y-45348750I0J-218750D01*
G01*
X129634000Y-45786250D01*
G75*
G02*
X129415250Y-46005000I-218750J0D01*
G01*
X128902750Y-46005000D01*
G75*
G02*
X128684000Y-45786250I0J218750D01*
G01*
X128684000Y-45348750D01*
G75*
G02*
X128902750Y-45130000I218750J0D01*
G01*
G37*
G04 #@! TD.AperFunction*
G04 #@! TA.AperFunction,SMDPad,CuDef*
G36*
G01*
X128902750Y-46705000D02*
X129415250Y-46705000D01*
G75*
G02*
X129634000Y-46923750I0J-218750D01*
G01*
X129634000Y-47361250D01*
G75*
G02*
X129415250Y-47580000I-218750J0D01*
G01*
X128902750Y-47580000D01*
G75*
G02*
X128684000Y-47361250I0J218750D01*
G01*
X128684000Y-46923750D01*
G75*
G02*
X128902750Y-46705000I218750J0D01*
G01*
G37*
G04 #@! TD.AperFunction*
D12*
X141605000Y-47105000D03*
X141605000Y-45605000D03*
X141605000Y-41795000D03*
X141605000Y-43295000D03*
D13*
X130937000Y-41750000D03*
X132207000Y-41750000D03*
X133477000Y-41750000D03*
X134747000Y-41750000D03*
X136017000Y-41750000D03*
X137287000Y-41750000D03*
X138557000Y-41750000D03*
X139827000Y-41750000D03*
X139827000Y-47150000D03*
X138557000Y-47150000D03*
X137287000Y-47150000D03*
X136017000Y-47150000D03*
X134747000Y-47150000D03*
X133477000Y-47150000D03*
X132207000Y-47150000D03*
X130937000Y-47150000D03*
G04 #@! TA.AperFunction,ComponentPad*
G36*
G01*
X126736001Y-55972000D02*
X125485999Y-55972000D01*
G75*
G02*
X125236000Y-55722001I0J249999D01*
G01*
X125236000Y-55021999D01*
G75*
G02*
X125485999Y-54772000I249999J0D01*
G01*
X126736001Y-54772000D01*
G75*
G02*
X126986000Y-55021999I0J-249999D01*
G01*
X126986000Y-55722001D01*
G75*
G02*
X126736001Y-55972000I-249999J0D01*
G01*
G37*
G04 #@! TD.AperFunction*
D14*
X126111000Y-53372000D03*
X126111000Y-51372000D03*
X144653000Y-55308000D03*
X144653000Y-53308000D03*
G04 #@! TA.AperFunction,ComponentPad*
G36*
G01*
X144027999Y-50708000D02*
X145278001Y-50708000D01*
G75*
G02*
X145528000Y-50957999I0J-249999D01*
G01*
X145528000Y-51658001D01*
G75*
G02*
X145278001Y-51908000I-249999J0D01*
G01*
X144027999Y-51908000D01*
G75*
G02*
X143778000Y-51658001I0J249999D01*
G01*
X143778000Y-50957999D01*
G75*
G02*
X144027999Y-50708000I249999J0D01*
G01*
G37*
G04 #@! TD.AperFunction*
D12*
X131572000Y-52693000D03*
X131572000Y-51193000D03*
X141732000Y-51193000D03*
X141732000Y-52693000D03*
X136652000Y-53987000D03*
X136652000Y-55487000D03*
X131572000Y-55487000D03*
X131572000Y-53987000D03*
X129032000Y-53987000D03*
X129032000Y-55487000D03*
X134112000Y-51193000D03*
X134112000Y-52693000D03*
X139192000Y-53987000D03*
X139192000Y-55487000D03*
X134112000Y-55487000D03*
X134112000Y-53987000D03*
D15*
X129159000Y-44450000D03*
X136652000Y-44323000D03*
X141605000Y-44704000D03*
X130302000Y-52832000D03*
X134747000Y-43180000D03*
X137287000Y-43180000D03*
X141736653Y-53589347D03*
X129032000Y-52832000D03*
X133477000Y-43180000D03*
X137414000Y-45720000D03*
X137922000Y-53890990D03*
X136017000Y-43180000D03*
X135382000Y-53890990D03*
D16*
X129159000Y-44450000D02*
X129159000Y-43332500D01*
X130429000Y-44450000D02*
X129159000Y-44450000D01*
X130937000Y-43942000D02*
X130429000Y-44450000D01*
X130937000Y-41750000D02*
X130937000Y-43942000D01*
X129159000Y-45567500D02*
X129159000Y-44450000D01*
X141560000Y-47150000D02*
X141605000Y-47105000D01*
X139827000Y-47150000D02*
X141560000Y-47150000D01*
X141560000Y-41750000D02*
X141605000Y-41795000D01*
X139827000Y-41750000D02*
X141560000Y-41750000D01*
X132207000Y-43815000D02*
X132207000Y-41750000D01*
X132715000Y-44323000D02*
X132207000Y-43815000D01*
X136652000Y-44323000D02*
X132715000Y-44323000D01*
X140462000Y-53340000D02*
X141732000Y-54610000D01*
X140462000Y-48768000D02*
X140462000Y-53340000D01*
X141732000Y-54610000D02*
X141732000Y-57150000D01*
X139484997Y-48442999D02*
X140136999Y-48442999D01*
X139192000Y-48150002D02*
X139484997Y-48442999D01*
X138557000Y-44196000D02*
X139192000Y-44831000D01*
X140136999Y-48442999D02*
X140462000Y-48768000D01*
X139192000Y-44831000D02*
X139192000Y-48150002D01*
X138557000Y-41750000D02*
X138557000Y-44196000D01*
X138557000Y-48895000D02*
X139192000Y-49530000D01*
X138557000Y-47150000D02*
X138557000Y-48895000D01*
X129032000Y-49530000D02*
X130175000Y-48387000D01*
X130175000Y-48387000D02*
X131953000Y-48387000D01*
X132207000Y-48133000D02*
X132207000Y-47150000D01*
X131953000Y-48387000D02*
X132207000Y-48133000D01*
X141605000Y-44704000D02*
X141605000Y-45605000D01*
X144653000Y-51308000D02*
X144653000Y-46990000D01*
X144653000Y-46990000D02*
X143383000Y-45720000D01*
X143383000Y-45720000D02*
X143383000Y-43815000D01*
X142863000Y-43295000D02*
X141605000Y-43295000D01*
X143383000Y-43815000D02*
X142863000Y-43295000D01*
X130441000Y-52693000D02*
X130302000Y-52832000D01*
X131572000Y-52693000D02*
X130441000Y-52693000D01*
X134747000Y-43180000D02*
X134747000Y-41750000D01*
X131572000Y-49530000D02*
X131572000Y-51193000D01*
X141732000Y-49530000D02*
X141732000Y-51193000D01*
X137287000Y-41750000D02*
X137287000Y-43180000D01*
X141736653Y-52697653D02*
X141732000Y-52693000D01*
X141736653Y-53589347D02*
X141736653Y-52697653D01*
X136652000Y-53213000D02*
X136652000Y-53987000D01*
X137922000Y-51943000D02*
X136652000Y-53213000D01*
X137541000Y-48387000D02*
X137922000Y-48768000D01*
X136271000Y-48387000D02*
X137541000Y-48387000D01*
X137922000Y-48768000D02*
X137922000Y-51943000D01*
X136017000Y-48133000D02*
X136271000Y-48387000D01*
X136017000Y-47150000D02*
X136017000Y-48133000D01*
X136652000Y-57150000D02*
X136652000Y-55487000D01*
X131572000Y-57150000D02*
X131572000Y-55487000D01*
X131572000Y-53987000D02*
X132449000Y-53987000D01*
X132449000Y-53987000D02*
X132842000Y-53594000D01*
X132842000Y-53594000D02*
X132842000Y-48768000D01*
X133477000Y-48133000D02*
X133477000Y-47150000D01*
X132842000Y-48768000D02*
X133477000Y-48133000D01*
X129032000Y-53987000D02*
X129032000Y-52832000D01*
X133477000Y-43180000D02*
X133477000Y-41750000D01*
X129032000Y-57150000D02*
X129032000Y-55487000D01*
X134112000Y-49530000D02*
X134112000Y-51193000D01*
X134112000Y-52693000D02*
X134886000Y-52693000D01*
X134886000Y-52693000D02*
X135382000Y-52197000D01*
X135382000Y-52197000D02*
X135382000Y-48768000D01*
X134747000Y-48133000D02*
X134747000Y-47150000D01*
X135382000Y-48768000D02*
X134747000Y-48133000D01*
X137287000Y-45847000D02*
X137414000Y-45720000D01*
X137287000Y-47150000D02*
X137287000Y-45847000D01*
X139095990Y-53890990D02*
X137922000Y-53890990D01*
X139192000Y-53987000D02*
X139095990Y-53890990D01*
X139192000Y-57150000D02*
X139192000Y-55487000D01*
X134112000Y-57150000D02*
X134112000Y-55487000D01*
X136017000Y-43180000D02*
X136017000Y-41750000D01*
X135285990Y-53987000D02*
X135382000Y-53890990D01*
X134112000Y-53987000D02*
X135285990Y-53987000D01*
D17*
G36*
X151384420Y-59019400D02*
G01*
X119379600Y-59019400D01*
X119379600Y-56388000D01*
X127912680Y-56388000D01*
X127912680Y-57912000D01*
X127919546Y-57981710D01*
X127939879Y-58048740D01*
X127972899Y-58110516D01*
X128017337Y-58164663D01*
X128071484Y-58209101D01*
X128133260Y-58242121D01*
X128200290Y-58262454D01*
X128270000Y-58269320D01*
X129794000Y-58269320D01*
X129863710Y-58262454D01*
X129930740Y-58242121D01*
X129992516Y-58209101D01*
X130046663Y-58164663D01*
X130091101Y-58110516D01*
X130124121Y-58048740D01*
X130144454Y-57981710D01*
X130151320Y-57912000D01*
X130151320Y-57039926D01*
X130454400Y-57039926D01*
X130454400Y-57260074D01*
X130497348Y-57475992D01*
X130581595Y-57679382D01*
X130703903Y-57862429D01*
X130859571Y-58018097D01*
X131042618Y-58140405D01*
X131246008Y-58224652D01*
X131461926Y-58267600D01*
X131682074Y-58267600D01*
X131897992Y-58224652D01*
X132101382Y-58140405D01*
X132284429Y-58018097D01*
X132440097Y-57862429D01*
X132562405Y-57679382D01*
X132646652Y-57475992D01*
X132689600Y-57260074D01*
X132689600Y-57039926D01*
X132994400Y-57039926D01*
X132994400Y-57260074D01*
X133037348Y-57475992D01*
X133121595Y-57679382D01*
X133243903Y-57862429D01*
X133399571Y-58018097D01*
X133582618Y-58140405D01*
X133786008Y-58224652D01*
X134001926Y-58267600D01*
X134222074Y-58267600D01*
X134437992Y-58224652D01*
X134641382Y-58140405D01*
X134824429Y-58018097D01*
X134980097Y-57862429D01*
X135102405Y-57679382D01*
X135186652Y-57475992D01*
X135229600Y-57260074D01*
X135229600Y-57039926D01*
X135534400Y-57039926D01*
X135534400Y-57260074D01*
X135577348Y-57475992D01*
X135661595Y-57679382D01*
X135783903Y-57862429D01*
X135939571Y-58018097D01*
X136122618Y-58140405D01*
X136326008Y-58224652D01*
X136541926Y-58267600D01*
X136762074Y-58267600D01*
X136977992Y-58224652D01*
X137181382Y-58140405D01*
X137364429Y-58018097D01*
X137520097Y-57862429D01*
X137642405Y-57679382D01*
X137726652Y-57475992D01*
X137769600Y-57260074D01*
X137769600Y-57039926D01*
X138074400Y-57039926D01*
X138074400Y-57260074D01*
X138117348Y-57475992D01*
X138201595Y-57679382D01*
X138323903Y-57862429D01*
X138479571Y-58018097D01*
X138662618Y-58140405D01*
X138866008Y-58224652D01*
X139081926Y-58267600D01*
X139302074Y-58267600D01*
X139517992Y-58224652D01*
X139721382Y-58140405D01*
X139904429Y-58018097D01*
X140060097Y-57862429D01*
X140182405Y-57679382D01*
X140266652Y-57475992D01*
X140309600Y-57260074D01*
X140309600Y-57039926D01*
X140266652Y-56824008D01*
X140182405Y-56620618D01*
X140060097Y-56437571D01*
X139904429Y-56281903D01*
X139721382Y-56159595D01*
X139672600Y-56139389D01*
X139672600Y-56091306D01*
X139711710Y-56087454D01*
X139778740Y-56067121D01*
X139840516Y-56034101D01*
X139894663Y-55989663D01*
X139939101Y-55935516D01*
X139972121Y-55873740D01*
X139992454Y-55806710D01*
X139999320Y-55737000D01*
X139999320Y-55237000D01*
X139992454Y-55167290D01*
X139972121Y-55100260D01*
X139939101Y-55038484D01*
X139894663Y-54984337D01*
X139840516Y-54939899D01*
X139778740Y-54906879D01*
X139711710Y-54886546D01*
X139642000Y-54879680D01*
X138742000Y-54879680D01*
X138672290Y-54886546D01*
X138605260Y-54906879D01*
X138543484Y-54939899D01*
X138489337Y-54984337D01*
X138444899Y-55038484D01*
X138411879Y-55100260D01*
X138391546Y-55167290D01*
X138384680Y-55237000D01*
X138384680Y-55737000D01*
X138391546Y-55806710D01*
X138411879Y-55873740D01*
X138444899Y-55935516D01*
X138489337Y-55989663D01*
X138543484Y-56034101D01*
X138605260Y-56067121D01*
X138672290Y-56087454D01*
X138711401Y-56091306D01*
X138711401Y-56139389D01*
X138662618Y-56159595D01*
X138479571Y-56281903D01*
X138323903Y-56437571D01*
X138201595Y-56620618D01*
X138117348Y-56824008D01*
X138074400Y-57039926D01*
X137769600Y-57039926D01*
X137726652Y-56824008D01*
X137642405Y-56620618D01*
X137520097Y-56437571D01*
X137364429Y-56281903D01*
X137181382Y-56159595D01*
X137132600Y-56139389D01*
X137132600Y-56091306D01*
X137171710Y-56087454D01*
X137238740Y-56067121D01*
X137300516Y-56034101D01*
X137354663Y-55989663D01*
X137399101Y-55935516D01*
X137432121Y-55873740D01*
X137452454Y-55806710D01*
X137459320Y-55737000D01*
X137459320Y-55237000D01*
X137452454Y-55167290D01*
X137432121Y-55100260D01*
X137399101Y-55038484D01*
X137354663Y-54984337D01*
X137300516Y-54939899D01*
X137238740Y-54906879D01*
X137171710Y-54886546D01*
X137102000Y-54879680D01*
X136202000Y-54879680D01*
X136132290Y-54886546D01*
X136065260Y-54906879D01*
X136003484Y-54939899D01*
X135949337Y-54984337D01*
X135904899Y-55038484D01*
X135871879Y-55100260D01*
X135851546Y-55167290D01*
X135844680Y-55237000D01*
X135844680Y-55737000D01*
X135851546Y-55806710D01*
X135871879Y-55873740D01*
X135904899Y-55935516D01*
X135949337Y-55989663D01*
X136003484Y-56034101D01*
X136065260Y-56067121D01*
X136132290Y-56087454D01*
X136171401Y-56091306D01*
X136171401Y-56139389D01*
X136122618Y-56159595D01*
X135939571Y-56281903D01*
X135783903Y-56437571D01*
X135661595Y-56620618D01*
X135577348Y-56824008D01*
X135534400Y-57039926D01*
X135229600Y-57039926D01*
X135186652Y-56824008D01*
X135102405Y-56620618D01*
X134980097Y-56437571D01*
X134824429Y-56281903D01*
X134641382Y-56159595D01*
X134592600Y-56139389D01*
X134592600Y-56091306D01*
X134631710Y-56087454D01*
X134698740Y-56067121D01*
X134760516Y-56034101D01*
X134814663Y-55989663D01*
X134859101Y-55935516D01*
X134892121Y-55873740D01*
X134912454Y-55806710D01*
X134919320Y-55737000D01*
X134919320Y-55237000D01*
X134912454Y-55167290D01*
X134892121Y-55100260D01*
X134859101Y-55038484D01*
X134814663Y-54984337D01*
X134760516Y-54939899D01*
X134698740Y-54906879D01*
X134631710Y-54886546D01*
X134562000Y-54879680D01*
X133662000Y-54879680D01*
X133592290Y-54886546D01*
X133525260Y-54906879D01*
X133463484Y-54939899D01*
X133409337Y-54984337D01*
X133364899Y-55038484D01*
X133331879Y-55100260D01*
X133311546Y-55167290D01*
X133304680Y-55237000D01*
X133304680Y-55737000D01*
X133311546Y-55806710D01*
X133331879Y-55873740D01*
X133364899Y-55935516D01*
X133409337Y-55989663D01*
X133463484Y-56034101D01*
X133525260Y-56067121D01*
X133592290Y-56087454D01*
X133631401Y-56091306D01*
X133631401Y-56139389D01*
X133582618Y-56159595D01*
X133399571Y-56281903D01*
X133243903Y-56437571D01*
X133121595Y-56620618D01*
X133037348Y-56824008D01*
X132994400Y-57039926D01*
X132689600Y-57039926D01*
X132646652Y-56824008D01*
X132562405Y-56620618D01*
X132440097Y-56437571D01*
X132284429Y-56281903D01*
X132101382Y-56159595D01*
X132052600Y-56139389D01*
X132052600Y-56091306D01*
X132091710Y-56087454D01*
X132158740Y-56067121D01*
X132220516Y-56034101D01*
X132274663Y-55989663D01*
X132319101Y-55935516D01*
X132352121Y-55873740D01*
X132372454Y-55806710D01*
X132379320Y-55737000D01*
X132379320Y-55237000D01*
X132372454Y-55167290D01*
X132352121Y-55100260D01*
X132319101Y-55038484D01*
X132274663Y-54984337D01*
X132220516Y-54939899D01*
X132158740Y-54906879D01*
X132091710Y-54886546D01*
X132022000Y-54879680D01*
X131122000Y-54879680D01*
X131052290Y-54886546D01*
X130985260Y-54906879D01*
X130923484Y-54939899D01*
X130869337Y-54984337D01*
X130824899Y-55038484D01*
X130791879Y-55100260D01*
X130771546Y-55167290D01*
X130764680Y-55237000D01*
X130764680Y-55737000D01*
X130771546Y-55806710D01*
X130791879Y-55873740D01*
X130824899Y-55935516D01*
X130869337Y-55989663D01*
X130923484Y-56034101D01*
X130985260Y-56067121D01*
X131052290Y-56087454D01*
X131091401Y-56091306D01*
X131091401Y-56139389D01*
X131042618Y-56159595D01*
X130859571Y-56281903D01*
X130703903Y-56437571D01*
X130581595Y-56620618D01*
X130497348Y-56824008D01*
X130454400Y-57039926D01*
X130151320Y-57039926D01*
X130151320Y-56388000D01*
X130144454Y-56318290D01*
X130124121Y-56251260D01*
X130091101Y-56189484D01*
X130046663Y-56135337D01*
X129992516Y-56090899D01*
X129930740Y-56057879D01*
X129863710Y-56037546D01*
X129794000Y-56030680D01*
X129684684Y-56030680D01*
X129734663Y-55989663D01*
X129779101Y-55935516D01*
X129812121Y-55873740D01*
X129832454Y-55806710D01*
X129839320Y-55737000D01*
X129839320Y-55237000D01*
X129832454Y-55167290D01*
X129812121Y-55100260D01*
X129779101Y-55038484D01*
X129734663Y-54984337D01*
X129680516Y-54939899D01*
X129618740Y-54906879D01*
X129551710Y-54886546D01*
X129482000Y-54879680D01*
X128582000Y-54879680D01*
X128512290Y-54886546D01*
X128445260Y-54906879D01*
X128383484Y-54939899D01*
X128329337Y-54984337D01*
X128284899Y-55038484D01*
X128251879Y-55100260D01*
X128231546Y-55167290D01*
X128224680Y-55237000D01*
X128224680Y-55737000D01*
X128231546Y-55806710D01*
X128251879Y-55873740D01*
X128284899Y-55935516D01*
X128329337Y-55989663D01*
X128379316Y-56030680D01*
X128270000Y-56030680D01*
X128200290Y-56037546D01*
X128133260Y-56057879D01*
X128071484Y-56090899D01*
X128017337Y-56135337D01*
X127972899Y-56189484D01*
X127939879Y-56251260D01*
X127919546Y-56318290D01*
X127912680Y-56388000D01*
X119379600Y-56388000D01*
X119379600Y-55021999D01*
X124878680Y-55021999D01*
X124878680Y-55722001D01*
X124890349Y-55840483D01*
X124924909Y-55954412D01*
X124981032Y-56059409D01*
X125056560Y-56151440D01*
X125148591Y-56226968D01*
X125253588Y-56283091D01*
X125367517Y-56317651D01*
X125485999Y-56329320D01*
X126736001Y-56329320D01*
X126854483Y-56317651D01*
X126968412Y-56283091D01*
X127073409Y-56226968D01*
X127165440Y-56151440D01*
X127240968Y-56059409D01*
X127297091Y-55954412D01*
X127331651Y-55840483D01*
X127343320Y-55722001D01*
X127343320Y-55021999D01*
X127331651Y-54903517D01*
X127297091Y-54789588D01*
X127240968Y-54684591D01*
X127165440Y-54592560D01*
X127073409Y-54517032D01*
X126968412Y-54460909D01*
X126854483Y-54426349D01*
X126736001Y-54414680D01*
X125485999Y-54414680D01*
X125367517Y-54426349D01*
X125253588Y-54460909D01*
X125148591Y-54517032D01*
X125056560Y-54592560D01*
X124981032Y-54684591D01*
X124924909Y-54789588D01*
X124890349Y-54903517D01*
X124878680Y-55021999D01*
X119379600Y-55021999D01*
X119379600Y-53372000D01*
X124875777Y-53372000D01*
X124894227Y-53559330D01*
X124948870Y-53739461D01*
X125037604Y-53905471D01*
X125157020Y-54050980D01*
X125302529Y-54170396D01*
X125468539Y-54259130D01*
X125648670Y-54313773D01*
X125789061Y-54327600D01*
X126432939Y-54327600D01*
X126573330Y-54313773D01*
X126753461Y-54259130D01*
X126919471Y-54170396D01*
X127064980Y-54050980D01*
X127184396Y-53905471D01*
X127273130Y-53739461D01*
X127327773Y-53559330D01*
X127346223Y-53372000D01*
X127327773Y-53184670D01*
X127273130Y-53004539D01*
X127184396Y-52838529D01*
X127064980Y-52693020D01*
X126919471Y-52573604D01*
X126753461Y-52484870D01*
X126573330Y-52430227D01*
X126432939Y-52416400D01*
X125789061Y-52416400D01*
X125648670Y-52430227D01*
X125468539Y-52484870D01*
X125302529Y-52573604D01*
X125157020Y-52693020D01*
X125037604Y-52838529D01*
X124948870Y-53004539D01*
X124894227Y-53184670D01*
X124875777Y-53372000D01*
X119379600Y-53372000D01*
X119379600Y-51546523D01*
X124896472Y-51546523D01*
X124943420Y-51714226D01*
X125027336Y-51881784D01*
X125142328Y-52029751D01*
X125283978Y-52152441D01*
X125446841Y-52245139D01*
X125624660Y-52304283D01*
X125810600Y-52327600D01*
X126085600Y-52327600D01*
X126085600Y-51397400D01*
X126136400Y-51397400D01*
X126136400Y-52327600D01*
X126411400Y-52327600D01*
X126597340Y-52304283D01*
X126775159Y-52245139D01*
X126938022Y-52152441D01*
X127079672Y-52029751D01*
X127194664Y-51881784D01*
X127278580Y-51714226D01*
X127325528Y-51546523D01*
X127252328Y-51397400D01*
X126136400Y-51397400D01*
X126085600Y-51397400D01*
X124969672Y-51397400D01*
X124896472Y-51546523D01*
X119379600Y-51546523D01*
X119379600Y-51197477D01*
X124896472Y-51197477D01*
X124969672Y-51346600D01*
X126085600Y-51346600D01*
X126085600Y-50416400D01*
X126136400Y-50416400D01*
X126136400Y-51346600D01*
X127252328Y-51346600D01*
X127325528Y-51197477D01*
X127278580Y-51029774D01*
X127194664Y-50862216D01*
X127079672Y-50714249D01*
X126938022Y-50591559D01*
X126775159Y-50498861D01*
X126597340Y-50439717D01*
X126411400Y-50416400D01*
X126136400Y-50416400D01*
X126085600Y-50416400D01*
X125810600Y-50416400D01*
X125624660Y-50439717D01*
X125446841Y-50498861D01*
X125283978Y-50591559D01*
X125142328Y-50714249D01*
X125027336Y-50862216D01*
X124943420Y-51029774D01*
X124896472Y-51197477D01*
X119379600Y-51197477D01*
X119379600Y-49419926D01*
X127914400Y-49419926D01*
X127914400Y-49640074D01*
X127957348Y-49855992D01*
X128041595Y-50059382D01*
X128163903Y-50242429D01*
X128319571Y-50398097D01*
X128502618Y-50520405D01*
X128706008Y-50604652D01*
X128921926Y-50647600D01*
X129142074Y-50647600D01*
X129357992Y-50604652D01*
X129561382Y-50520405D01*
X129744429Y-50398097D01*
X129900097Y-50242429D01*
X130022405Y-50059382D01*
X130106652Y-49855992D01*
X130149600Y-49640074D01*
X130149600Y-49419926D01*
X130106652Y-49204008D01*
X130086445Y-49155225D01*
X130374071Y-48867600D01*
X130670475Y-48867600D01*
X130581595Y-49000618D01*
X130497348Y-49204008D01*
X130454400Y-49419926D01*
X130454400Y-49640074D01*
X130497348Y-49855992D01*
X130581595Y-50059382D01*
X130703903Y-50242429D01*
X130859571Y-50398097D01*
X131042618Y-50520405D01*
X131091401Y-50540611D01*
X131091401Y-50588694D01*
X131052290Y-50592546D01*
X130985260Y-50612879D01*
X130923484Y-50645899D01*
X130869337Y-50690337D01*
X130824899Y-50744484D01*
X130791879Y-50806260D01*
X130771546Y-50873290D01*
X130764680Y-50943000D01*
X130764680Y-51443000D01*
X130771546Y-51512710D01*
X130791879Y-51579740D01*
X130824899Y-51641516D01*
X130869337Y-51695663D01*
X130923484Y-51740101D01*
X130985260Y-51773121D01*
X131052290Y-51793454D01*
X131122000Y-51800320D01*
X132022000Y-51800320D01*
X132091710Y-51793454D01*
X132158740Y-51773121D01*
X132220516Y-51740101D01*
X132274663Y-51695663D01*
X132319101Y-51641516D01*
X132352121Y-51579740D01*
X132361400Y-51549151D01*
X132361400Y-52336849D01*
X132352121Y-52306260D01*
X132319101Y-52244484D01*
X132274663Y-52190337D01*
X132220516Y-52145899D01*
X132158740Y-52112879D01*
X132091710Y-52092546D01*
X132022000Y-52085680D01*
X131122000Y-52085680D01*
X131052290Y-52092546D01*
X130985260Y-52112879D01*
X130923484Y-52145899D01*
X130869337Y-52190337D01*
X130851230Y-52212400D01*
X130734747Y-52212400D01*
X130659911Y-52162396D01*
X130522400Y-52105437D01*
X130376420Y-52076400D01*
X130227580Y-52076400D01*
X130081600Y-52105437D01*
X129944089Y-52162396D01*
X129820333Y-52245087D01*
X129715087Y-52350333D01*
X129667000Y-52422300D01*
X129618913Y-52350333D01*
X129513667Y-52245087D01*
X129389911Y-52162396D01*
X129252400Y-52105437D01*
X129106420Y-52076400D01*
X128957580Y-52076400D01*
X128811600Y-52105437D01*
X128674089Y-52162396D01*
X128550333Y-52245087D01*
X128445087Y-52350333D01*
X128362396Y-52474089D01*
X128305437Y-52611600D01*
X128276400Y-52757580D01*
X128276400Y-52906420D01*
X128305437Y-53052400D01*
X128362396Y-53189911D01*
X128445087Y-53313667D01*
X128517457Y-53386037D01*
X128512290Y-53386546D01*
X128445260Y-53406879D01*
X128383484Y-53439899D01*
X128329337Y-53484337D01*
X128284899Y-53538484D01*
X128251879Y-53600260D01*
X128231546Y-53667290D01*
X128224680Y-53737000D01*
X128224680Y-54237000D01*
X128231546Y-54306710D01*
X128251879Y-54373740D01*
X128284899Y-54435516D01*
X128329337Y-54489663D01*
X128383484Y-54534101D01*
X128445260Y-54567121D01*
X128512290Y-54587454D01*
X128582000Y-54594320D01*
X129482000Y-54594320D01*
X129551710Y-54587454D01*
X129618740Y-54567121D01*
X129680516Y-54534101D01*
X129734663Y-54489663D01*
X129779101Y-54435516D01*
X129812121Y-54373740D01*
X129832454Y-54306710D01*
X129839320Y-54237000D01*
X129839320Y-53737000D01*
X129832454Y-53667290D01*
X129812121Y-53600260D01*
X129779101Y-53538484D01*
X129734663Y-53484337D01*
X129680516Y-53439899D01*
X129618740Y-53406879D01*
X129551710Y-53386546D01*
X129546543Y-53386037D01*
X129618913Y-53313667D01*
X129667000Y-53241700D01*
X129715087Y-53313667D01*
X129820333Y-53418913D01*
X129944089Y-53501604D01*
X130081600Y-53558563D01*
X130227580Y-53587600D01*
X130376420Y-53587600D01*
X130522400Y-53558563D01*
X130659911Y-53501604D01*
X130783667Y-53418913D01*
X130888913Y-53313667D01*
X130934230Y-53245845D01*
X130985260Y-53273121D01*
X131052290Y-53293454D01*
X131122000Y-53300320D01*
X132022000Y-53300320D01*
X132091710Y-53293454D01*
X132158740Y-53273121D01*
X132220516Y-53240101D01*
X132274663Y-53195663D01*
X132319101Y-53141516D01*
X132352121Y-53079740D01*
X132361400Y-53049151D01*
X132361400Y-53394929D01*
X132273196Y-53483133D01*
X132220516Y-53439899D01*
X132158740Y-53406879D01*
X132091710Y-53386546D01*
X132022000Y-53379680D01*
X131122000Y-53379680D01*
X131052290Y-53386546D01*
X130985260Y-53406879D01*
X130923484Y-53439899D01*
X130869337Y-53484337D01*
X130824899Y-53538484D01*
X130791879Y-53600260D01*
X130771546Y-53667290D01*
X130764680Y-53737000D01*
X130764680Y-54237000D01*
X130771546Y-54306710D01*
X130791879Y-54373740D01*
X130824899Y-54435516D01*
X130869337Y-54489663D01*
X130923484Y-54534101D01*
X130985260Y-54567121D01*
X131052290Y-54587454D01*
X131122000Y-54594320D01*
X132022000Y-54594320D01*
X132091710Y-54587454D01*
X132158740Y-54567121D01*
X132220516Y-54534101D01*
X132274663Y-54489663D01*
X132292770Y-54467600D01*
X132425396Y-54467600D01*
X132449000Y-54469925D01*
X132472604Y-54467600D01*
X132472607Y-54467600D01*
X132543214Y-54460646D01*
X132633807Y-54433165D01*
X132717299Y-54388537D01*
X132790480Y-54328480D01*
X132805535Y-54310135D01*
X133165140Y-53950531D01*
X133183480Y-53935480D01*
X133243537Y-53862299D01*
X133288165Y-53778807D01*
X133306523Y-53718289D01*
X133304680Y-53737000D01*
X133304680Y-54237000D01*
X133311546Y-54306710D01*
X133331879Y-54373740D01*
X133364899Y-54435516D01*
X133409337Y-54489663D01*
X133463484Y-54534101D01*
X133525260Y-54567121D01*
X133592290Y-54587454D01*
X133662000Y-54594320D01*
X134562000Y-54594320D01*
X134631710Y-54587454D01*
X134698740Y-54567121D01*
X134760516Y-54534101D01*
X134814663Y-54489663D01*
X134832770Y-54467600D01*
X134890030Y-54467600D01*
X134900333Y-54477903D01*
X135024089Y-54560594D01*
X135161600Y-54617553D01*
X135307580Y-54646590D01*
X135456420Y-54646590D01*
X135602400Y-54617553D01*
X135739911Y-54560594D01*
X135863667Y-54477903D01*
X135905420Y-54436150D01*
X135949337Y-54489663D01*
X136003484Y-54534101D01*
X136065260Y-54567121D01*
X136132290Y-54587454D01*
X136202000Y-54594320D01*
X137102000Y-54594320D01*
X137171710Y-54587454D01*
X137238740Y-54567121D01*
X137300516Y-54534101D01*
X137354663Y-54489663D01*
X137398580Y-54436150D01*
X137440333Y-54477903D01*
X137564089Y-54560594D01*
X137701600Y-54617553D01*
X137847580Y-54646590D01*
X137996420Y-54646590D01*
X138142400Y-54617553D01*
X138279911Y-54560594D01*
X138403667Y-54477903D01*
X138445420Y-54436150D01*
X138489337Y-54489663D01*
X138543484Y-54534101D01*
X138605260Y-54567121D01*
X138672290Y-54587454D01*
X138742000Y-54594320D01*
X139642000Y-54594320D01*
X139711710Y-54587454D01*
X139778740Y-54567121D01*
X139840516Y-54534101D01*
X139894663Y-54489663D01*
X139939101Y-54435516D01*
X139972121Y-54373740D01*
X139992454Y-54306710D01*
X139999320Y-54237000D01*
X139999320Y-53737000D01*
X139992454Y-53667290D01*
X139972121Y-53600260D01*
X139939101Y-53538484D01*
X139894663Y-53484337D01*
X139840516Y-53439899D01*
X139778740Y-53406879D01*
X139711710Y-53386546D01*
X139642000Y-53379680D01*
X138742000Y-53379680D01*
X138672290Y-53386546D01*
X138605260Y-53406879D01*
X138598691Y-53410390D01*
X138509626Y-53410390D01*
X138508913Y-53409323D01*
X138403667Y-53304077D01*
X138279911Y-53221386D01*
X138142400Y-53164427D01*
X137996420Y-53135390D01*
X137847580Y-53135390D01*
X137701600Y-53164427D01*
X137564089Y-53221386D01*
X137440333Y-53304077D01*
X137335087Y-53409323D01*
X137309649Y-53447394D01*
X137300516Y-53439899D01*
X137238740Y-53406879D01*
X137171710Y-53386546D01*
X137159342Y-53385328D01*
X138245145Y-52299527D01*
X138263480Y-52284480D01*
X138279204Y-52265320D01*
X138323537Y-52211300D01*
X138368164Y-52127809D01*
X138372693Y-52112879D01*
X138395646Y-52037214D01*
X138402600Y-51966607D01*
X138402600Y-51966605D01*
X138404925Y-51943001D01*
X138402600Y-51919397D01*
X138402600Y-50321126D01*
X138479571Y-50398097D01*
X138662618Y-50520405D01*
X138866008Y-50604652D01*
X139081926Y-50647600D01*
X139302074Y-50647600D01*
X139517992Y-50604652D01*
X139721382Y-50520405D01*
X139904429Y-50398097D01*
X139981400Y-50321126D01*
X139981401Y-53316386D01*
X139979075Y-53340000D01*
X139988355Y-53434213D01*
X140015836Y-53524808D01*
X140056167Y-53600260D01*
X140060464Y-53608299D01*
X140120521Y-53681480D01*
X140138861Y-53696531D01*
X141251400Y-54809072D01*
X141251401Y-56139389D01*
X141202618Y-56159595D01*
X141019571Y-56281903D01*
X140863903Y-56437571D01*
X140741595Y-56620618D01*
X140657348Y-56824008D01*
X140614400Y-57039926D01*
X140614400Y-57260074D01*
X140657348Y-57475992D01*
X140741595Y-57679382D01*
X140863903Y-57862429D01*
X141019571Y-58018097D01*
X141202618Y-58140405D01*
X141406008Y-58224652D01*
X141621926Y-58267600D01*
X141842074Y-58267600D01*
X142057992Y-58224652D01*
X142261382Y-58140405D01*
X142444429Y-58018097D01*
X142600097Y-57862429D01*
X142722405Y-57679382D01*
X142806652Y-57475992D01*
X142849600Y-57260074D01*
X142849600Y-57039926D01*
X142823408Y-56908245D01*
X149268400Y-56908245D01*
X149268400Y-57091755D01*
X149304200Y-57271738D01*
X149374426Y-57441278D01*
X149476379Y-57593861D01*
X149606139Y-57723621D01*
X149758722Y-57825574D01*
X149928262Y-57895800D01*
X150108245Y-57931600D01*
X150291755Y-57931600D01*
X150471738Y-57895800D01*
X150641278Y-57825574D01*
X150793861Y-57723621D01*
X150923621Y-57593861D01*
X151025574Y-57441278D01*
X151095800Y-57271738D01*
X151131600Y-57091755D01*
X151131600Y-56908245D01*
X151095800Y-56728262D01*
X151025574Y-56558722D01*
X150923621Y-56406139D01*
X150793861Y-56276379D01*
X150641278Y-56174426D01*
X150471738Y-56104200D01*
X150291755Y-56068400D01*
X150108245Y-56068400D01*
X149928262Y-56104200D01*
X149758722Y-56174426D01*
X149606139Y-56276379D01*
X149476379Y-56406139D01*
X149374426Y-56558722D01*
X149304200Y-56728262D01*
X149268400Y-56908245D01*
X142823408Y-56908245D01*
X142806652Y-56824008D01*
X142722405Y-56620618D01*
X142600097Y-56437571D01*
X142444429Y-56281903D01*
X142261382Y-56159595D01*
X142212600Y-56139389D01*
X142212600Y-55482523D01*
X143438472Y-55482523D01*
X143485420Y-55650226D01*
X143569336Y-55817784D01*
X143684328Y-55965751D01*
X143825978Y-56088441D01*
X143988841Y-56181139D01*
X144166660Y-56240283D01*
X144352600Y-56263600D01*
X144627600Y-56263600D01*
X144627600Y-55333400D01*
X144678400Y-55333400D01*
X144678400Y-56263600D01*
X144953400Y-56263600D01*
X145139340Y-56240283D01*
X145317159Y-56181139D01*
X145480022Y-56088441D01*
X145621672Y-55965751D01*
X145736664Y-55817784D01*
X145820580Y-55650226D01*
X145867528Y-55482523D01*
X145794328Y-55333400D01*
X144678400Y-55333400D01*
X144627600Y-55333400D01*
X143511672Y-55333400D01*
X143438472Y-55482523D01*
X142212600Y-55482523D01*
X142212600Y-55133477D01*
X143438472Y-55133477D01*
X143511672Y-55282600D01*
X144627600Y-55282600D01*
X144627600Y-54352400D01*
X144678400Y-54352400D01*
X144678400Y-55282600D01*
X145794328Y-55282600D01*
X145867528Y-55133477D01*
X145820580Y-54965774D01*
X145736664Y-54798216D01*
X145621672Y-54650249D01*
X145480022Y-54527559D01*
X145317159Y-54434861D01*
X145139340Y-54375717D01*
X144953400Y-54352400D01*
X144678400Y-54352400D01*
X144627600Y-54352400D01*
X144352600Y-54352400D01*
X144166660Y-54375717D01*
X143988841Y-54434861D01*
X143825978Y-54527559D01*
X143684328Y-54650249D01*
X143569336Y-54798216D01*
X143485420Y-54965774D01*
X143438472Y-55133477D01*
X142212600Y-55133477D01*
X142212600Y-54633603D01*
X142214925Y-54609999D01*
X142210059Y-54560594D01*
X142205646Y-54515786D01*
X142178165Y-54425193D01*
X142158572Y-54388537D01*
X142133537Y-54341700D01*
X142088528Y-54286856D01*
X142088526Y-54286854D01*
X142073480Y-54268520D01*
X142072803Y-54267965D01*
X142094564Y-54258951D01*
X142218320Y-54176260D01*
X142323566Y-54071014D01*
X142406257Y-53947258D01*
X142463216Y-53809747D01*
X142492253Y-53663767D01*
X142492253Y-53514927D01*
X142463216Y-53368947D01*
X142437971Y-53308000D01*
X143417777Y-53308000D01*
X143436227Y-53495330D01*
X143490870Y-53675461D01*
X143579604Y-53841471D01*
X143699020Y-53986980D01*
X143844529Y-54106396D01*
X144010539Y-54195130D01*
X144190670Y-54249773D01*
X144331061Y-54263600D01*
X144974939Y-54263600D01*
X145115330Y-54249773D01*
X145295461Y-54195130D01*
X145461471Y-54106396D01*
X145606980Y-53986980D01*
X145726396Y-53841471D01*
X145815130Y-53675461D01*
X145869773Y-53495330D01*
X145888223Y-53308000D01*
X145869773Y-53120670D01*
X145815130Y-52940539D01*
X145726396Y-52774529D01*
X145606980Y-52629020D01*
X145461471Y-52509604D01*
X145295461Y-52420870D01*
X145115330Y-52366227D01*
X144974939Y-52352400D01*
X144331061Y-52352400D01*
X144190670Y-52366227D01*
X144010539Y-52420870D01*
X143844529Y-52509604D01*
X143699020Y-52629020D01*
X143579604Y-52774529D01*
X143490870Y-52940539D01*
X143436227Y-53120670D01*
X143417777Y-53308000D01*
X142437971Y-53308000D01*
X142406257Y-53231436D01*
X142400880Y-53223389D01*
X142434663Y-53195663D01*
X142479101Y-53141516D01*
X142512121Y-53079740D01*
X142532454Y-53012710D01*
X142539320Y-52943000D01*
X142539320Y-52443000D01*
X142532454Y-52373290D01*
X142512121Y-52306260D01*
X142479101Y-52244484D01*
X142434663Y-52190337D01*
X142380516Y-52145899D01*
X142318740Y-52112879D01*
X142251710Y-52092546D01*
X142182000Y-52085680D01*
X141282000Y-52085680D01*
X141212290Y-52092546D01*
X141145260Y-52112879D01*
X141083484Y-52145899D01*
X141029337Y-52190337D01*
X140984899Y-52244484D01*
X140951879Y-52306260D01*
X140942600Y-52336849D01*
X140942600Y-51549151D01*
X140951879Y-51579740D01*
X140984899Y-51641516D01*
X141029337Y-51695663D01*
X141083484Y-51740101D01*
X141145260Y-51773121D01*
X141212290Y-51793454D01*
X141282000Y-51800320D01*
X142182000Y-51800320D01*
X142251710Y-51793454D01*
X142318740Y-51773121D01*
X142380516Y-51740101D01*
X142434663Y-51695663D01*
X142479101Y-51641516D01*
X142512121Y-51579740D01*
X142532454Y-51512710D01*
X142539320Y-51443000D01*
X142539320Y-50943000D01*
X142532454Y-50873290D01*
X142512121Y-50806260D01*
X142479101Y-50744484D01*
X142434663Y-50690337D01*
X142380516Y-50645899D01*
X142318740Y-50612879D01*
X142251710Y-50592546D01*
X142212600Y-50588694D01*
X142212600Y-50540611D01*
X142261382Y-50520405D01*
X142444429Y-50398097D01*
X142600097Y-50242429D01*
X142722405Y-50059382D01*
X142806652Y-49855992D01*
X142849600Y-49640074D01*
X142849600Y-49419926D01*
X142806652Y-49204008D01*
X142722405Y-49000618D01*
X142600097Y-48817571D01*
X142444429Y-48661903D01*
X142261382Y-48539595D01*
X142057992Y-48455348D01*
X141842074Y-48412400D01*
X141621926Y-48412400D01*
X141406008Y-48455348D01*
X141202618Y-48539595D01*
X141019571Y-48661903D01*
X140942105Y-48739369D01*
X140935646Y-48673786D01*
X140908165Y-48583193D01*
X140863537Y-48499701D01*
X140803480Y-48426520D01*
X140785140Y-48411469D01*
X140493534Y-48119864D01*
X140478479Y-48101519D01*
X140439565Y-48069584D01*
X140457121Y-48036740D01*
X140477454Y-47969710D01*
X140484320Y-47900000D01*
X140484320Y-47630600D01*
X140930285Y-47630600D01*
X140956484Y-47652101D01*
X141018260Y-47685121D01*
X141085290Y-47705454D01*
X141155000Y-47712320D01*
X142055000Y-47712320D01*
X142124710Y-47705454D01*
X142191740Y-47685121D01*
X142253516Y-47652101D01*
X142307663Y-47607663D01*
X142352101Y-47553516D01*
X142385121Y-47491740D01*
X142405454Y-47424710D01*
X142412320Y-47355000D01*
X142412320Y-46855000D01*
X142405454Y-46785290D01*
X142385121Y-46718260D01*
X142352101Y-46656484D01*
X142307663Y-46602337D01*
X142253516Y-46557899D01*
X142191740Y-46524879D01*
X142124710Y-46504546D01*
X142055000Y-46497680D01*
X141155000Y-46497680D01*
X141085290Y-46504546D01*
X141018260Y-46524879D01*
X140956484Y-46557899D01*
X140902337Y-46602337D01*
X140857899Y-46656484D01*
X140850995Y-46669400D01*
X140484320Y-46669400D01*
X140484320Y-46400000D01*
X140477454Y-46330290D01*
X140457121Y-46263260D01*
X140424101Y-46201484D01*
X140379663Y-46147337D01*
X140325516Y-46102899D01*
X140263740Y-46069879D01*
X140196710Y-46049546D01*
X140127000Y-46042680D01*
X139672600Y-46042680D01*
X139672600Y-45355000D01*
X140797680Y-45355000D01*
X140797680Y-45855000D01*
X140804546Y-45924710D01*
X140824879Y-45991740D01*
X140857899Y-46053516D01*
X140902337Y-46107663D01*
X140956484Y-46152101D01*
X141018260Y-46185121D01*
X141085290Y-46205454D01*
X141155000Y-46212320D01*
X142055000Y-46212320D01*
X142124710Y-46205454D01*
X142191740Y-46185121D01*
X142253516Y-46152101D01*
X142307663Y-46107663D01*
X142352101Y-46053516D01*
X142385121Y-45991740D01*
X142405454Y-45924710D01*
X142412320Y-45855000D01*
X142412320Y-45355000D01*
X142405454Y-45285290D01*
X142385121Y-45218260D01*
X142352101Y-45156484D01*
X142307663Y-45102337D01*
X142268867Y-45070497D01*
X142274604Y-45061911D01*
X142331563Y-44924400D01*
X142360600Y-44778420D01*
X142360600Y-44629580D01*
X142331563Y-44483600D01*
X142274604Y-44346089D01*
X142191913Y-44222333D01*
X142086667Y-44117087D01*
X141962911Y-44034396D01*
X141825400Y-43977437D01*
X141679420Y-43948400D01*
X141530580Y-43948400D01*
X141384600Y-43977437D01*
X141247089Y-44034396D01*
X141123333Y-44117087D01*
X141018087Y-44222333D01*
X140935396Y-44346089D01*
X140878437Y-44483600D01*
X140849400Y-44629580D01*
X140849400Y-44778420D01*
X140878437Y-44924400D01*
X140935396Y-45061911D01*
X140941133Y-45070497D01*
X140902337Y-45102337D01*
X140857899Y-45156484D01*
X140824879Y-45218260D01*
X140804546Y-45285290D01*
X140797680Y-45355000D01*
X139672600Y-45355000D01*
X139672600Y-44854604D01*
X139674925Y-44831000D01*
X139672455Y-44805925D01*
X139665646Y-44736786D01*
X139638165Y-44646193D01*
X139593537Y-44562701D01*
X139533480Y-44489520D01*
X139515140Y-44474469D01*
X139037600Y-43996930D01*
X139037600Y-43045000D01*
X140797680Y-43045000D01*
X140797680Y-43545000D01*
X140804546Y-43614710D01*
X140824879Y-43681740D01*
X140857899Y-43743516D01*
X140902337Y-43797663D01*
X140956484Y-43842101D01*
X141018260Y-43875121D01*
X141085290Y-43895454D01*
X141155000Y-43902320D01*
X142055000Y-43902320D01*
X142124710Y-43895454D01*
X142191740Y-43875121D01*
X142253516Y-43842101D01*
X142307663Y-43797663D01*
X142325770Y-43775600D01*
X142663930Y-43775600D01*
X142902401Y-44014072D01*
X142902400Y-45696396D01*
X142900075Y-45720000D01*
X142902400Y-45743604D01*
X142902400Y-45743606D01*
X142909354Y-45814213D01*
X142936835Y-45904806D01*
X142981463Y-45988299D01*
X143041520Y-46061480D01*
X143059865Y-46076535D01*
X144172401Y-47189073D01*
X144172400Y-50350680D01*
X144027999Y-50350680D01*
X143909517Y-50362349D01*
X143795588Y-50396909D01*
X143690591Y-50453032D01*
X143598560Y-50528560D01*
X143523032Y-50620591D01*
X143466909Y-50725588D01*
X143432349Y-50839517D01*
X143420680Y-50957999D01*
X143420680Y-51658001D01*
X143432349Y-51776483D01*
X143466909Y-51890412D01*
X143523032Y-51995409D01*
X143598560Y-52087440D01*
X143690591Y-52162968D01*
X143795588Y-52219091D01*
X143909517Y-52253651D01*
X144027999Y-52265320D01*
X145278001Y-52265320D01*
X145396483Y-52253651D01*
X145510412Y-52219091D01*
X145615409Y-52162968D01*
X145707440Y-52087440D01*
X145782968Y-51995409D01*
X145839091Y-51890412D01*
X145873651Y-51776483D01*
X145885320Y-51658001D01*
X145885320Y-50957999D01*
X145873651Y-50839517D01*
X145839091Y-50725588D01*
X145782968Y-50620591D01*
X145707440Y-50528560D01*
X145615409Y-50453032D01*
X145510412Y-50396909D01*
X145396483Y-50362349D01*
X145278001Y-50350680D01*
X145133600Y-50350680D01*
X145133600Y-47013603D01*
X145135925Y-46989999D01*
X145133482Y-46965192D01*
X145126646Y-46895786D01*
X145099165Y-46805193D01*
X145099164Y-46805191D01*
X145054537Y-46721700D01*
X145009528Y-46666856D01*
X145009526Y-46666854D01*
X144994480Y-46648520D01*
X144976145Y-46633473D01*
X143863600Y-45520930D01*
X143863600Y-44130390D01*
X146126400Y-44130390D01*
X146126400Y-44515610D01*
X146201553Y-44893427D01*
X146348970Y-45249324D01*
X146562987Y-45569622D01*
X146835378Y-45842013D01*
X147155676Y-46056030D01*
X147511573Y-46203447D01*
X147889390Y-46278600D01*
X148274610Y-46278600D01*
X148652427Y-46203447D01*
X149008324Y-46056030D01*
X149328622Y-45842013D01*
X149601013Y-45569622D01*
X149815030Y-45249324D01*
X149962447Y-44893427D01*
X150037600Y-44515610D01*
X150037600Y-44130390D01*
X149962447Y-43752573D01*
X149815030Y-43396676D01*
X149601013Y-43076378D01*
X149328622Y-42803987D01*
X149008324Y-42589970D01*
X148652427Y-42442553D01*
X148274610Y-42367400D01*
X147889390Y-42367400D01*
X147511573Y-42442553D01*
X147155676Y-42589970D01*
X146835378Y-42803987D01*
X146562987Y-43076378D01*
X146348970Y-43396676D01*
X146201553Y-43752573D01*
X146126400Y-44130390D01*
X143863600Y-44130390D01*
X143863600Y-43838603D01*
X143865925Y-43814999D01*
X143862517Y-43780396D01*
X143856646Y-43720786D01*
X143829165Y-43630193D01*
X143803158Y-43581537D01*
X143784537Y-43546701D01*
X143763839Y-43521480D01*
X143724480Y-43473520D01*
X143706140Y-43458469D01*
X143219535Y-42971865D01*
X143204480Y-42953520D01*
X143131299Y-42893463D01*
X143047807Y-42848835D01*
X142957214Y-42821354D01*
X142886607Y-42814400D01*
X142886604Y-42814400D01*
X142863000Y-42812075D01*
X142839396Y-42814400D01*
X142325770Y-42814400D01*
X142307663Y-42792337D01*
X142253516Y-42747899D01*
X142191740Y-42714879D01*
X142124710Y-42694546D01*
X142055000Y-42687680D01*
X141155000Y-42687680D01*
X141085290Y-42694546D01*
X141018260Y-42714879D01*
X140956484Y-42747899D01*
X140902337Y-42792337D01*
X140857899Y-42846484D01*
X140824879Y-42908260D01*
X140804546Y-42975290D01*
X140797680Y-43045000D01*
X139037600Y-43045000D01*
X139037600Y-42806677D01*
X139055516Y-42797101D01*
X139109663Y-42752663D01*
X139154101Y-42698516D01*
X139187121Y-42636740D01*
X139192000Y-42620656D01*
X139196879Y-42636740D01*
X139229899Y-42698516D01*
X139274337Y-42752663D01*
X139328484Y-42797101D01*
X139390260Y-42830121D01*
X139457290Y-42850454D01*
X139527000Y-42857320D01*
X140127000Y-42857320D01*
X140196710Y-42850454D01*
X140263740Y-42830121D01*
X140325516Y-42797101D01*
X140379663Y-42752663D01*
X140424101Y-42698516D01*
X140457121Y-42636740D01*
X140477454Y-42569710D01*
X140484320Y-42500000D01*
X140484320Y-42230600D01*
X140850995Y-42230600D01*
X140857899Y-42243516D01*
X140902337Y-42297663D01*
X140956484Y-42342101D01*
X141018260Y-42375121D01*
X141085290Y-42395454D01*
X141155000Y-42402320D01*
X142055000Y-42402320D01*
X142124710Y-42395454D01*
X142191740Y-42375121D01*
X142253516Y-42342101D01*
X142307663Y-42297663D01*
X142352101Y-42243516D01*
X142385121Y-42181740D01*
X142405454Y-42114710D01*
X142412320Y-42045000D01*
X142412320Y-41908245D01*
X143068400Y-41908245D01*
X143068400Y-42091755D01*
X143104200Y-42271738D01*
X143174426Y-42441278D01*
X143276379Y-42593861D01*
X143406139Y-42723621D01*
X143558722Y-42825574D01*
X143728262Y-42895800D01*
X143908245Y-42931600D01*
X144091755Y-42931600D01*
X144271738Y-42895800D01*
X144441278Y-42825574D01*
X144593861Y-42723621D01*
X144723621Y-42593861D01*
X144825574Y-42441278D01*
X144895800Y-42271738D01*
X144931600Y-42091755D01*
X144931600Y-41908245D01*
X144895800Y-41728262D01*
X144825574Y-41558722D01*
X144723621Y-41406139D01*
X144593861Y-41276379D01*
X144441278Y-41174426D01*
X144271738Y-41104200D01*
X144091755Y-41068400D01*
X143908245Y-41068400D01*
X143728262Y-41104200D01*
X143558722Y-41174426D01*
X143406139Y-41276379D01*
X143276379Y-41406139D01*
X143174426Y-41558722D01*
X143104200Y-41728262D01*
X143068400Y-41908245D01*
X142412320Y-41908245D01*
X142412320Y-41545000D01*
X142405454Y-41475290D01*
X142385121Y-41408260D01*
X142352101Y-41346484D01*
X142307663Y-41292337D01*
X142253516Y-41247899D01*
X142191740Y-41214879D01*
X142124710Y-41194546D01*
X142055000Y-41187680D01*
X141155000Y-41187680D01*
X141085290Y-41194546D01*
X141018260Y-41214879D01*
X140956484Y-41247899D01*
X140930285Y-41269400D01*
X140484320Y-41269400D01*
X140484320Y-41000000D01*
X140477454Y-40930290D01*
X140457121Y-40863260D01*
X140424101Y-40801484D01*
X140379663Y-40747337D01*
X140325516Y-40702899D01*
X140263740Y-40669879D01*
X140196710Y-40649546D01*
X140127000Y-40642680D01*
X139527000Y-40642680D01*
X139457290Y-40649546D01*
X139390260Y-40669879D01*
X139328484Y-40702899D01*
X139274337Y-40747337D01*
X139229899Y-40801484D01*
X139196879Y-40863260D01*
X139192000Y-40879344D01*
X139187121Y-40863260D01*
X139154101Y-40801484D01*
X139109663Y-40747337D01*
X139055516Y-40702899D01*
X138993740Y-40669879D01*
X138926710Y-40649546D01*
X138857000Y-40642680D01*
X138257000Y-40642680D01*
X138187290Y-40649546D01*
X138120260Y-40669879D01*
X138058484Y-40702899D01*
X138004337Y-40747337D01*
X137959899Y-40801484D01*
X137926879Y-40863260D01*
X137922000Y-40879344D01*
X137917121Y-40863260D01*
X137884101Y-40801484D01*
X137839663Y-40747337D01*
X137785516Y-40702899D01*
X137723740Y-40669879D01*
X137656710Y-40649546D01*
X137587000Y-40642680D01*
X136987000Y-40642680D01*
X136917290Y-40649546D01*
X136850260Y-40669879D01*
X136788484Y-40702899D01*
X136734337Y-40747337D01*
X136689899Y-40801484D01*
X136656879Y-40863260D01*
X136652000Y-40879344D01*
X136647121Y-40863260D01*
X136614101Y-40801484D01*
X136569663Y-40747337D01*
X136515516Y-40702899D01*
X136453740Y-40669879D01*
X136386710Y-40649546D01*
X136317000Y-40642680D01*
X135717000Y-40642680D01*
X135647290Y-40649546D01*
X135580260Y-40669879D01*
X135518484Y-40702899D01*
X135464337Y-40747337D01*
X135419899Y-40801484D01*
X135386879Y-40863260D01*
X135382000Y-40879344D01*
X135377121Y-40863260D01*
X135344101Y-40801484D01*
X135299663Y-40747337D01*
X135245516Y-40702899D01*
X135183740Y-40669879D01*
X135116710Y-40649546D01*
X135047000Y-40642680D01*
X134447000Y-40642680D01*
X134377290Y-40649546D01*
X134310260Y-40669879D01*
X134248484Y-40702899D01*
X134194337Y-40747337D01*
X134149899Y-40801484D01*
X134116879Y-40863260D01*
X134112000Y-40879344D01*
X134107121Y-40863260D01*
X134074101Y-40801484D01*
X134029663Y-40747337D01*
X133975516Y-40702899D01*
X133913740Y-40669879D01*
X133846710Y-40649546D01*
X133777000Y-40642680D01*
X133177000Y-40642680D01*
X133107290Y-40649546D01*
X133040260Y-40669879D01*
X132978484Y-40702899D01*
X132924337Y-40747337D01*
X132879899Y-40801484D01*
X132846879Y-40863260D01*
X132842000Y-40879344D01*
X132837121Y-40863260D01*
X132804101Y-40801484D01*
X132759663Y-40747337D01*
X132705516Y-40702899D01*
X132643740Y-40669879D01*
X132576710Y-40649546D01*
X132507000Y-40642680D01*
X131907000Y-40642680D01*
X131837290Y-40649546D01*
X131770260Y-40669879D01*
X131708484Y-40702899D01*
X131654337Y-40747337D01*
X131609899Y-40801484D01*
X131576879Y-40863260D01*
X131572000Y-40879344D01*
X131567121Y-40863260D01*
X131534101Y-40801484D01*
X131489663Y-40747337D01*
X131435516Y-40702899D01*
X131373740Y-40669879D01*
X131306710Y-40649546D01*
X131237000Y-40642680D01*
X130637000Y-40642680D01*
X130567290Y-40649546D01*
X130500260Y-40669879D01*
X130438484Y-40702899D01*
X130384337Y-40747337D01*
X130339899Y-40801484D01*
X130306879Y-40863260D01*
X130286546Y-40930290D01*
X130279680Y-41000000D01*
X130279680Y-42500000D01*
X130286546Y-42569710D01*
X130306879Y-42636740D01*
X130339899Y-42698516D01*
X130384337Y-42752663D01*
X130438484Y-42797101D01*
X130456400Y-42806678D01*
X130456401Y-43742928D01*
X130229930Y-43969400D01*
X129809425Y-43969400D01*
X129822593Y-43958593D01*
X129894235Y-43871297D01*
X129947469Y-43771702D01*
X129980251Y-43663636D01*
X129991320Y-43551250D01*
X129991320Y-43113750D01*
X129980251Y-43001364D01*
X129947469Y-42893298D01*
X129894235Y-42793703D01*
X129822593Y-42706407D01*
X129735297Y-42634765D01*
X129635702Y-42581531D01*
X129537900Y-42551862D01*
X129634000Y-42552321D01*
X129703710Y-42545455D01*
X129770741Y-42525122D01*
X129832517Y-42492102D01*
X129886664Y-42447664D01*
X129931102Y-42393517D01*
X129964122Y-42331741D01*
X129984455Y-42264710D01*
X129991321Y-42195000D01*
X129989600Y-41871800D01*
X129900700Y-41782900D01*
X129184400Y-41782900D01*
X129184400Y-41802900D01*
X129133600Y-41802900D01*
X129133600Y-41782900D01*
X128417300Y-41782900D01*
X128328400Y-41871800D01*
X128326679Y-42195000D01*
X128333545Y-42264710D01*
X128353878Y-42331741D01*
X128386898Y-42393517D01*
X128431336Y-42447664D01*
X128485483Y-42492102D01*
X128547259Y-42525122D01*
X128614290Y-42545455D01*
X128684000Y-42552321D01*
X128780100Y-42551862D01*
X128682298Y-42581531D01*
X128582703Y-42634765D01*
X128495407Y-42706407D01*
X128423765Y-42793703D01*
X128370531Y-42893298D01*
X128337749Y-43001364D01*
X128326680Y-43113750D01*
X128326680Y-43551250D01*
X128337749Y-43663636D01*
X128370531Y-43771702D01*
X128423765Y-43871297D01*
X128495407Y-43958593D01*
X128549134Y-44002685D01*
X128489396Y-44092089D01*
X128432437Y-44229600D01*
X128403400Y-44375580D01*
X128403400Y-44524420D01*
X128432437Y-44670400D01*
X128489396Y-44807911D01*
X128549134Y-44897315D01*
X128495407Y-44941407D01*
X128423765Y-45028703D01*
X128370531Y-45128298D01*
X128337749Y-45236364D01*
X128326680Y-45348750D01*
X128326680Y-45786250D01*
X128337749Y-45898636D01*
X128370531Y-46006702D01*
X128423765Y-46106297D01*
X128495407Y-46193593D01*
X128582703Y-46265235D01*
X128682298Y-46318469D01*
X128780100Y-46348138D01*
X128684000Y-46347679D01*
X128614290Y-46354545D01*
X128547259Y-46374878D01*
X128485483Y-46407898D01*
X128431336Y-46452336D01*
X128386898Y-46506483D01*
X128353878Y-46568259D01*
X128333545Y-46635290D01*
X128326679Y-46705000D01*
X128328400Y-47028200D01*
X128417300Y-47117100D01*
X129133600Y-47117100D01*
X129133600Y-47097100D01*
X129184400Y-47097100D01*
X129184400Y-47117100D01*
X129900700Y-47117100D01*
X129989600Y-47028200D01*
X129991321Y-46705000D01*
X129984455Y-46635290D01*
X129964122Y-46568259D01*
X129931102Y-46506483D01*
X129886664Y-46452336D01*
X129832517Y-46407898D01*
X129817741Y-46400000D01*
X130279679Y-46400000D01*
X130281400Y-47035700D01*
X130370300Y-47124600D01*
X130911600Y-47124600D01*
X130911600Y-46133300D01*
X130822700Y-46044400D01*
X130637000Y-46042679D01*
X130567290Y-46049545D01*
X130500259Y-46069878D01*
X130438483Y-46102898D01*
X130384336Y-46147336D01*
X130339898Y-46201483D01*
X130306878Y-46263259D01*
X130286545Y-46330290D01*
X130279679Y-46400000D01*
X129817741Y-46400000D01*
X129770741Y-46374878D01*
X129703710Y-46354545D01*
X129634000Y-46347679D01*
X129537900Y-46348138D01*
X129635702Y-46318469D01*
X129735297Y-46265235D01*
X129822593Y-46193593D01*
X129894235Y-46106297D01*
X129947469Y-46006702D01*
X129980251Y-45898636D01*
X129991320Y-45786250D01*
X129991320Y-45348750D01*
X129980251Y-45236364D01*
X129947469Y-45128298D01*
X129894235Y-45028703D01*
X129822593Y-44941407D01*
X129809425Y-44930600D01*
X130405396Y-44930600D01*
X130429000Y-44932925D01*
X130452604Y-44930600D01*
X130452607Y-44930600D01*
X130523214Y-44923646D01*
X130613807Y-44896165D01*
X130697299Y-44851537D01*
X130770480Y-44791480D01*
X130785535Y-44773135D01*
X131260140Y-44298531D01*
X131278480Y-44283480D01*
X131322079Y-44230354D01*
X131338537Y-44210300D01*
X131383164Y-44126809D01*
X131383165Y-44126807D01*
X131410646Y-44036214D01*
X131417600Y-43965607D01*
X131417600Y-43965605D01*
X131419925Y-43942001D01*
X131417600Y-43918397D01*
X131417600Y-42806677D01*
X131435516Y-42797101D01*
X131489663Y-42752663D01*
X131534101Y-42698516D01*
X131567121Y-42636740D01*
X131572000Y-42620656D01*
X131576879Y-42636740D01*
X131609899Y-42698516D01*
X131654337Y-42752663D01*
X131708484Y-42797101D01*
X131726400Y-42806678D01*
X131726400Y-43791393D01*
X131724075Y-43815000D01*
X131726400Y-43838604D01*
X131726400Y-43838606D01*
X131733354Y-43909213D01*
X131760835Y-43999806D01*
X131805463Y-44083299D01*
X131865520Y-44156480D01*
X131883865Y-44171535D01*
X132358469Y-44646140D01*
X132373520Y-44664480D01*
X132392912Y-44680394D01*
X132446700Y-44724537D01*
X132530191Y-44769164D01*
X132530193Y-44769165D01*
X132620786Y-44796646D01*
X132691393Y-44803600D01*
X132691395Y-44803600D01*
X132714999Y-44805925D01*
X132738603Y-44803600D01*
X136064374Y-44803600D01*
X136065087Y-44804667D01*
X136170333Y-44909913D01*
X136294089Y-44992604D01*
X136431600Y-45049563D01*
X136577580Y-45078600D01*
X136726420Y-45078600D01*
X136872400Y-45049563D01*
X137009911Y-44992604D01*
X137133667Y-44909913D01*
X137238913Y-44804667D01*
X137321604Y-44680911D01*
X137378563Y-44543400D01*
X137407600Y-44397420D01*
X137407600Y-44248580D01*
X137378563Y-44102600D01*
X137321604Y-43965089D01*
X137301900Y-43935600D01*
X137361420Y-43935600D01*
X137507400Y-43906563D01*
X137644911Y-43849604D01*
X137768667Y-43766913D01*
X137873913Y-43661667D01*
X137956604Y-43537911D01*
X138013563Y-43400400D01*
X138042600Y-43254420D01*
X138042600Y-43105580D01*
X138013563Y-42959600D01*
X137956604Y-42822089D01*
X137878553Y-42705277D01*
X137884101Y-42698516D01*
X137917121Y-42636740D01*
X137922000Y-42620656D01*
X137926879Y-42636740D01*
X137959899Y-42698516D01*
X138004337Y-42752663D01*
X138058484Y-42797101D01*
X138076400Y-42806678D01*
X138076401Y-44172386D01*
X138074075Y-44196000D01*
X138080891Y-44265193D01*
X138083355Y-44290214D01*
X138097096Y-44335511D01*
X138110836Y-44380808D01*
X138155463Y-44464298D01*
X138155464Y-44464299D01*
X138215521Y-44537480D01*
X138233861Y-44552531D01*
X138711400Y-45030071D01*
X138711400Y-46042680D01*
X138257000Y-46042680D01*
X138187290Y-46049546D01*
X138120260Y-46069879D01*
X138071587Y-46095895D01*
X138083604Y-46077911D01*
X138140563Y-45940400D01*
X138169600Y-45794420D01*
X138169600Y-45645580D01*
X138140563Y-45499600D01*
X138083604Y-45362089D01*
X138000913Y-45238333D01*
X137895667Y-45133087D01*
X137771911Y-45050396D01*
X137634400Y-44993437D01*
X137488420Y-44964400D01*
X137339580Y-44964400D01*
X137193600Y-44993437D01*
X137056089Y-45050396D01*
X136932333Y-45133087D01*
X136827087Y-45238333D01*
X136744396Y-45362089D01*
X136687437Y-45499600D01*
X136658400Y-45645580D01*
X136658400Y-45794420D01*
X136687437Y-45940400D01*
X136744396Y-46077911D01*
X136770793Y-46117418D01*
X136734337Y-46147337D01*
X136689899Y-46201484D01*
X136656879Y-46263260D01*
X136652000Y-46279344D01*
X136647121Y-46263260D01*
X136614101Y-46201484D01*
X136569663Y-46147337D01*
X136515516Y-46102899D01*
X136453740Y-46069879D01*
X136386710Y-46049546D01*
X136317000Y-46042680D01*
X135717000Y-46042680D01*
X135647290Y-46049546D01*
X135580260Y-46069879D01*
X135518484Y-46102899D01*
X135464337Y-46147337D01*
X135419899Y-46201484D01*
X135386879Y-46263260D01*
X135382000Y-46279344D01*
X135377121Y-46263260D01*
X135344101Y-46201484D01*
X135299663Y-46147337D01*
X135245516Y-46102899D01*
X135183740Y-46069879D01*
X135116710Y-46049546D01*
X135047000Y-46042680D01*
X134447000Y-46042680D01*
X134377290Y-46049546D01*
X134310260Y-46069879D01*
X134248484Y-46102899D01*
X134194337Y-46147337D01*
X134149899Y-46201484D01*
X134116879Y-46263260D01*
X134112000Y-46279344D01*
X134107121Y-46263260D01*
X134074101Y-46201484D01*
X134029663Y-46147337D01*
X133975516Y-46102899D01*
X133913740Y-46069879D01*
X133846710Y-46049546D01*
X133777000Y-46042680D01*
X133177000Y-46042680D01*
X133107290Y-46049546D01*
X133040260Y-46069879D01*
X132978484Y-46102899D01*
X132924337Y-46147337D01*
X132879899Y-46201484D01*
X132846879Y-46263260D01*
X132842000Y-46279344D01*
X132837121Y-46263260D01*
X132804101Y-46201484D01*
X132759663Y-46147337D01*
X132705516Y-46102899D01*
X132643740Y-46069879D01*
X132576710Y-46049546D01*
X132507000Y-46042680D01*
X131907000Y-46042680D01*
X131837290Y-46049546D01*
X131770260Y-46069879D01*
X131708484Y-46102899D01*
X131654337Y-46147337D01*
X131609899Y-46201484D01*
X131576879Y-46263260D01*
X131572001Y-46279342D01*
X131567122Y-46263259D01*
X131534102Y-46201483D01*
X131489664Y-46147336D01*
X131435517Y-46102898D01*
X131373741Y-46069878D01*
X131306710Y-46049545D01*
X131237000Y-46042679D01*
X131051300Y-46044400D01*
X130962400Y-46133300D01*
X130962400Y-47124600D01*
X130982400Y-47124600D01*
X130982400Y-47175400D01*
X130962400Y-47175400D01*
X130962400Y-47195400D01*
X130911600Y-47195400D01*
X130911600Y-47175400D01*
X130370300Y-47175400D01*
X130281400Y-47264300D01*
X130279679Y-47900000D01*
X130280309Y-47906400D01*
X130198603Y-47906400D01*
X130174999Y-47904075D01*
X130151395Y-47906400D01*
X130151393Y-47906400D01*
X130080786Y-47913354D01*
X129990193Y-47940835D01*
X129990191Y-47940836D01*
X129906700Y-47985463D01*
X129872945Y-48013165D01*
X129833520Y-48045520D01*
X129818471Y-48063858D01*
X129406775Y-48475555D01*
X129357992Y-48455348D01*
X129142074Y-48412400D01*
X128921926Y-48412400D01*
X128706008Y-48455348D01*
X128502618Y-48539595D01*
X128319571Y-48661903D01*
X128163903Y-48817571D01*
X128041595Y-49000618D01*
X127957348Y-49204008D01*
X127914400Y-49419926D01*
X119379600Y-49419926D01*
X119379600Y-47580000D01*
X128326679Y-47580000D01*
X128333545Y-47649710D01*
X128353878Y-47716741D01*
X128386898Y-47778517D01*
X128431336Y-47832664D01*
X128485483Y-47877102D01*
X128547259Y-47910122D01*
X128614290Y-47930455D01*
X128684000Y-47937321D01*
X129044700Y-47935600D01*
X129133600Y-47846700D01*
X129133600Y-47167900D01*
X129184400Y-47167900D01*
X129184400Y-47846700D01*
X129273300Y-47935600D01*
X129634000Y-47937321D01*
X129703710Y-47930455D01*
X129770741Y-47910122D01*
X129832517Y-47877102D01*
X129886664Y-47832664D01*
X129931102Y-47778517D01*
X129964122Y-47716741D01*
X129984455Y-47649710D01*
X129991321Y-47580000D01*
X129989600Y-47256800D01*
X129900700Y-47167900D01*
X129184400Y-47167900D01*
X129133600Y-47167900D01*
X128417300Y-47167900D01*
X128328400Y-47256800D01*
X128326679Y-47580000D01*
X119379600Y-47580000D01*
X119379600Y-44130390D01*
X120726400Y-44130390D01*
X120726400Y-44515610D01*
X120801553Y-44893427D01*
X120948970Y-45249324D01*
X121162987Y-45569622D01*
X121435378Y-45842013D01*
X121755676Y-46056030D01*
X122111573Y-46203447D01*
X122489390Y-46278600D01*
X122874610Y-46278600D01*
X123252427Y-46203447D01*
X123608324Y-46056030D01*
X123928622Y-45842013D01*
X124201013Y-45569622D01*
X124415030Y-45249324D01*
X124562447Y-44893427D01*
X124637600Y-44515610D01*
X124637600Y-44130390D01*
X124562447Y-43752573D01*
X124415030Y-43396676D01*
X124201013Y-43076378D01*
X123928622Y-42803987D01*
X123608324Y-42589970D01*
X123252427Y-42442553D01*
X122874610Y-42367400D01*
X122489390Y-42367400D01*
X122111573Y-42442553D01*
X121755676Y-42589970D01*
X121435378Y-42803987D01*
X121162987Y-43076378D01*
X120948970Y-43396676D01*
X120801553Y-43752573D01*
X120726400Y-44130390D01*
X119379600Y-44130390D01*
X119379600Y-41908245D01*
X125668400Y-41908245D01*
X125668400Y-42091755D01*
X125704200Y-42271738D01*
X125774426Y-42441278D01*
X125876379Y-42593861D01*
X126006139Y-42723621D01*
X126158722Y-42825574D01*
X126328262Y-42895800D01*
X126508245Y-42931600D01*
X126691755Y-42931600D01*
X126871738Y-42895800D01*
X127041278Y-42825574D01*
X127193861Y-42723621D01*
X127323621Y-42593861D01*
X127425574Y-42441278D01*
X127495800Y-42271738D01*
X127531600Y-42091755D01*
X127531600Y-41908245D01*
X127495800Y-41728262D01*
X127425574Y-41558722D01*
X127323621Y-41406139D01*
X127237482Y-41320000D01*
X128326679Y-41320000D01*
X128328400Y-41643200D01*
X128417300Y-41732100D01*
X129133600Y-41732100D01*
X129133600Y-41053300D01*
X129184400Y-41053300D01*
X129184400Y-41732100D01*
X129900700Y-41732100D01*
X129989600Y-41643200D01*
X129991321Y-41320000D01*
X129984455Y-41250290D01*
X129964122Y-41183259D01*
X129931102Y-41121483D01*
X129886664Y-41067336D01*
X129832517Y-41022898D01*
X129770741Y-40989878D01*
X129703710Y-40969545D01*
X129634000Y-40962679D01*
X129273300Y-40964400D01*
X129184400Y-41053300D01*
X129133600Y-41053300D01*
X129044700Y-40964400D01*
X128684000Y-40962679D01*
X128614290Y-40969545D01*
X128547259Y-40989878D01*
X128485483Y-41022898D01*
X128431336Y-41067336D01*
X128386898Y-41121483D01*
X128353878Y-41183259D01*
X128333545Y-41250290D01*
X128326679Y-41320000D01*
X127237482Y-41320000D01*
X127193861Y-41276379D01*
X127041278Y-41174426D01*
X126871738Y-41104200D01*
X126691755Y-41068400D01*
X126508245Y-41068400D01*
X126328262Y-41104200D01*
X126158722Y-41174426D01*
X126006139Y-41276379D01*
X125876379Y-41406139D01*
X125774426Y-41558722D01*
X125704200Y-41728262D01*
X125668400Y-41908245D01*
X119379600Y-41908245D01*
X119379600Y-39780600D01*
X151385381Y-39780600D01*
X151384420Y-59019400D01*
G37*
X151384420Y-59019400D02*
X119379600Y-59019400D01*
X119379600Y-56388000D01*
X127912680Y-56388000D01*
X127912680Y-57912000D01*
X127919546Y-57981710D01*
X127939879Y-58048740D01*
X127972899Y-58110516D01*
X128017337Y-58164663D01*
X128071484Y-58209101D01*
X128133260Y-58242121D01*
X128200290Y-58262454D01*
X128270000Y-58269320D01*
X129794000Y-58269320D01*
X129863710Y-58262454D01*
X129930740Y-58242121D01*
X129992516Y-58209101D01*
X130046663Y-58164663D01*
X130091101Y-58110516D01*
X130124121Y-58048740D01*
X130144454Y-57981710D01*
X130151320Y-57912000D01*
X130151320Y-57039926D01*
X130454400Y-57039926D01*
X130454400Y-57260074D01*
X130497348Y-57475992D01*
X130581595Y-57679382D01*
X130703903Y-57862429D01*
X130859571Y-58018097D01*
X131042618Y-58140405D01*
X131246008Y-58224652D01*
X131461926Y-58267600D01*
X131682074Y-58267600D01*
X131897992Y-58224652D01*
X132101382Y-58140405D01*
X132284429Y-58018097D01*
X132440097Y-57862429D01*
X132562405Y-57679382D01*
X132646652Y-57475992D01*
X132689600Y-57260074D01*
X132689600Y-57039926D01*
X132994400Y-57039926D01*
X132994400Y-57260074D01*
X133037348Y-57475992D01*
X133121595Y-57679382D01*
X133243903Y-57862429D01*
X133399571Y-58018097D01*
X133582618Y-58140405D01*
X133786008Y-58224652D01*
X134001926Y-58267600D01*
X134222074Y-58267600D01*
X134437992Y-58224652D01*
X134641382Y-58140405D01*
X134824429Y-58018097D01*
X134980097Y-57862429D01*
X135102405Y-57679382D01*
X135186652Y-57475992D01*
X135229600Y-57260074D01*
X135229600Y-57039926D01*
X135534400Y-57039926D01*
X135534400Y-57260074D01*
X135577348Y-57475992D01*
X135661595Y-57679382D01*
X135783903Y-57862429D01*
X135939571Y-58018097D01*
X136122618Y-58140405D01*
X136326008Y-58224652D01*
X136541926Y-58267600D01*
X136762074Y-58267600D01*
X136977992Y-58224652D01*
X137181382Y-58140405D01*
X137364429Y-58018097D01*
X137520097Y-57862429D01*
X137642405Y-57679382D01*
X137726652Y-57475992D01*
X137769600Y-57260074D01*
X137769600Y-57039926D01*
X138074400Y-57039926D01*
X138074400Y-57260074D01*
X138117348Y-57475992D01*
X138201595Y-57679382D01*
X138323903Y-57862429D01*
X138479571Y-58018097D01*
X138662618Y-58140405D01*
X138866008Y-58224652D01*
X139081926Y-58267600D01*
X139302074Y-58267600D01*
X139517992Y-58224652D01*
X139721382Y-58140405D01*
X139904429Y-58018097D01*
X140060097Y-57862429D01*
X140182405Y-57679382D01*
X140266652Y-57475992D01*
X140309600Y-57260074D01*
X140309600Y-57039926D01*
X140266652Y-56824008D01*
X140182405Y-56620618D01*
X140060097Y-56437571D01*
X139904429Y-56281903D01*
X139721382Y-56159595D01*
X139672600Y-56139389D01*
X139672600Y-56091306D01*
X139711710Y-56087454D01*
X139778740Y-56067121D01*
X139840516Y-56034101D01*
X139894663Y-55989663D01*
X139939101Y-55935516D01*
X139972121Y-55873740D01*
X139992454Y-55806710D01*
X139999320Y-55737000D01*
X139999320Y-55237000D01*
X139992454Y-55167290D01*
X139972121Y-55100260D01*
X139939101Y-55038484D01*
X139894663Y-54984337D01*
X139840516Y-54939899D01*
X139778740Y-54906879D01*
X139711710Y-54886546D01*
X139642000Y-54879680D01*
X138742000Y-54879680D01*
X138672290Y-54886546D01*
X138605260Y-54906879D01*
X138543484Y-54939899D01*
X138489337Y-54984337D01*
X138444899Y-55038484D01*
X138411879Y-55100260D01*
X138391546Y-55167290D01*
X138384680Y-55237000D01*
X138384680Y-55737000D01*
X138391546Y-55806710D01*
X138411879Y-55873740D01*
X138444899Y-55935516D01*
X138489337Y-55989663D01*
X138543484Y-56034101D01*
X138605260Y-56067121D01*
X138672290Y-56087454D01*
X138711401Y-56091306D01*
X138711401Y-56139389D01*
X138662618Y-56159595D01*
X138479571Y-56281903D01*
X138323903Y-56437571D01*
X138201595Y-56620618D01*
X138117348Y-56824008D01*
X138074400Y-57039926D01*
X137769600Y-57039926D01*
X137726652Y-56824008D01*
X137642405Y-56620618D01*
X137520097Y-56437571D01*
X137364429Y-56281903D01*
X137181382Y-56159595D01*
X137132600Y-56139389D01*
X137132600Y-56091306D01*
X137171710Y-56087454D01*
X137238740Y-56067121D01*
X137300516Y-56034101D01*
X137354663Y-55989663D01*
X137399101Y-55935516D01*
X137432121Y-55873740D01*
X137452454Y-55806710D01*
X137459320Y-55737000D01*
X137459320Y-55237000D01*
X137452454Y-55167290D01*
X137432121Y-55100260D01*
X137399101Y-55038484D01*
X137354663Y-54984337D01*
X137300516Y-54939899D01*
X137238740Y-54906879D01*
X137171710Y-54886546D01*
X137102000Y-54879680D01*
X136202000Y-54879680D01*
X136132290Y-54886546D01*
X136065260Y-54906879D01*
X136003484Y-54939899D01*
X135949337Y-54984337D01*
X135904899Y-55038484D01*
X135871879Y-55100260D01*
X135851546Y-55167290D01*
X135844680Y-55237000D01*
X135844680Y-55737000D01*
X135851546Y-55806710D01*
X135871879Y-55873740D01*
X135904899Y-55935516D01*
X135949337Y-55989663D01*
X136003484Y-56034101D01*
X136065260Y-56067121D01*
X136132290Y-56087454D01*
X136171401Y-56091306D01*
X136171401Y-56139389D01*
X136122618Y-56159595D01*
X135939571Y-56281903D01*
X135783903Y-56437571D01*
X135661595Y-56620618D01*
X135577348Y-56824008D01*
X135534400Y-57039926D01*
X135229600Y-57039926D01*
X135186652Y-56824008D01*
X135102405Y-56620618D01*
X134980097Y-56437571D01*
X134824429Y-56281903D01*
X134641382Y-56159595D01*
X134592600Y-56139389D01*
X134592600Y-56091306D01*
X134631710Y-56087454D01*
X134698740Y-56067121D01*
X134760516Y-56034101D01*
X134814663Y-55989663D01*
X134859101Y-55935516D01*
X134892121Y-55873740D01*
X134912454Y-55806710D01*
X134919320Y-55737000D01*
X134919320Y-55237000D01*
X134912454Y-55167290D01*
X134892121Y-55100260D01*
X134859101Y-55038484D01*
X134814663Y-54984337D01*
X134760516Y-54939899D01*
X134698740Y-54906879D01*
X134631710Y-54886546D01*
X134562000Y-54879680D01*
X133662000Y-54879680D01*
X133592290Y-54886546D01*
X133525260Y-54906879D01*
X133463484Y-54939899D01*
X133409337Y-54984337D01*
X133364899Y-55038484D01*
X133331879Y-55100260D01*
X133311546Y-55167290D01*
X133304680Y-55237000D01*
X133304680Y-55737000D01*
X133311546Y-55806710D01*
X133331879Y-55873740D01*
X133364899Y-55935516D01*
X133409337Y-55989663D01*
X133463484Y-56034101D01*
X133525260Y-56067121D01*
X133592290Y-56087454D01*
X133631401Y-56091306D01*
X133631401Y-56139389D01*
X133582618Y-56159595D01*
X133399571Y-56281903D01*
X133243903Y-56437571D01*
X133121595Y-56620618D01*
X133037348Y-56824008D01*
X132994400Y-57039926D01*
X132689600Y-57039926D01*
X132646652Y-56824008D01*
X132562405Y-56620618D01*
X132440097Y-56437571D01*
X132284429Y-56281903D01*
X132101382Y-56159595D01*
X132052600Y-56139389D01*
X132052600Y-56091306D01*
X132091710Y-56087454D01*
X132158740Y-56067121D01*
X132220516Y-56034101D01*
X132274663Y-55989663D01*
X132319101Y-55935516D01*
X132352121Y-55873740D01*
X132372454Y-55806710D01*
X132379320Y-55737000D01*
X132379320Y-55237000D01*
X132372454Y-55167290D01*
X132352121Y-55100260D01*
X132319101Y-55038484D01*
X132274663Y-54984337D01*
X132220516Y-54939899D01*
X132158740Y-54906879D01*
X132091710Y-54886546D01*
X132022000Y-54879680D01*
X131122000Y-54879680D01*
X131052290Y-54886546D01*
X130985260Y-54906879D01*
X130923484Y-54939899D01*
X130869337Y-54984337D01*
X130824899Y-55038484D01*
X130791879Y-55100260D01*
X130771546Y-55167290D01*
X130764680Y-55237000D01*
X130764680Y-55737000D01*
X130771546Y-55806710D01*
X130791879Y-55873740D01*
X130824899Y-55935516D01*
X130869337Y-55989663D01*
X130923484Y-56034101D01*
X130985260Y-56067121D01*
X131052290Y-56087454D01*
X131091401Y-56091306D01*
X131091401Y-56139389D01*
X131042618Y-56159595D01*
X130859571Y-56281903D01*
X130703903Y-56437571D01*
X130581595Y-56620618D01*
X130497348Y-56824008D01*
X130454400Y-57039926D01*
X130151320Y-57039926D01*
X130151320Y-56388000D01*
X130144454Y-56318290D01*
X130124121Y-56251260D01*
X130091101Y-56189484D01*
X130046663Y-56135337D01*
X129992516Y-56090899D01*
X129930740Y-56057879D01*
X129863710Y-56037546D01*
X129794000Y-56030680D01*
X129684684Y-56030680D01*
X129734663Y-55989663D01*
X129779101Y-55935516D01*
X129812121Y-55873740D01*
X129832454Y-55806710D01*
X129839320Y-55737000D01*
X129839320Y-55237000D01*
X129832454Y-55167290D01*
X129812121Y-55100260D01*
X129779101Y-55038484D01*
X129734663Y-54984337D01*
X129680516Y-54939899D01*
X129618740Y-54906879D01*
X129551710Y-54886546D01*
X129482000Y-54879680D01*
X128582000Y-54879680D01*
X128512290Y-54886546D01*
X128445260Y-54906879D01*
X128383484Y-54939899D01*
X128329337Y-54984337D01*
X128284899Y-55038484D01*
X128251879Y-55100260D01*
X128231546Y-55167290D01*
X128224680Y-55237000D01*
X128224680Y-55737000D01*
X128231546Y-55806710D01*
X128251879Y-55873740D01*
X128284899Y-55935516D01*
X128329337Y-55989663D01*
X128379316Y-56030680D01*
X128270000Y-56030680D01*
X128200290Y-56037546D01*
X128133260Y-56057879D01*
X128071484Y-56090899D01*
X128017337Y-56135337D01*
X127972899Y-56189484D01*
X127939879Y-56251260D01*
X127919546Y-56318290D01*
X127912680Y-56388000D01*
X119379600Y-56388000D01*
X119379600Y-55021999D01*
X124878680Y-55021999D01*
X124878680Y-55722001D01*
X124890349Y-55840483D01*
X124924909Y-55954412D01*
X124981032Y-56059409D01*
X125056560Y-56151440D01*
X125148591Y-56226968D01*
X125253588Y-56283091D01*
X125367517Y-56317651D01*
X125485999Y-56329320D01*
X126736001Y-56329320D01*
X126854483Y-56317651D01*
X126968412Y-56283091D01*
X127073409Y-56226968D01*
X127165440Y-56151440D01*
X127240968Y-56059409D01*
X127297091Y-55954412D01*
X127331651Y-55840483D01*
X127343320Y-55722001D01*
X127343320Y-55021999D01*
X127331651Y-54903517D01*
X127297091Y-54789588D01*
X127240968Y-54684591D01*
X127165440Y-54592560D01*
X127073409Y-54517032D01*
X126968412Y-54460909D01*
X126854483Y-54426349D01*
X126736001Y-54414680D01*
X125485999Y-54414680D01*
X125367517Y-54426349D01*
X125253588Y-54460909D01*
X125148591Y-54517032D01*
X125056560Y-54592560D01*
X124981032Y-54684591D01*
X124924909Y-54789588D01*
X124890349Y-54903517D01*
X124878680Y-55021999D01*
X119379600Y-55021999D01*
X119379600Y-53372000D01*
X124875777Y-53372000D01*
X124894227Y-53559330D01*
X124948870Y-53739461D01*
X125037604Y-53905471D01*
X125157020Y-54050980D01*
X125302529Y-54170396D01*
X125468539Y-54259130D01*
X125648670Y-54313773D01*
X125789061Y-54327600D01*
X126432939Y-54327600D01*
X126573330Y-54313773D01*
X126753461Y-54259130D01*
X126919471Y-54170396D01*
X127064980Y-54050980D01*
X127184396Y-53905471D01*
X127273130Y-53739461D01*
X127327773Y-53559330D01*
X127346223Y-53372000D01*
X127327773Y-53184670D01*
X127273130Y-53004539D01*
X127184396Y-52838529D01*
X127064980Y-52693020D01*
X126919471Y-52573604D01*
X126753461Y-52484870D01*
X126573330Y-52430227D01*
X126432939Y-52416400D01*
X125789061Y-52416400D01*
X125648670Y-52430227D01*
X125468539Y-52484870D01*
X125302529Y-52573604D01*
X125157020Y-52693020D01*
X125037604Y-52838529D01*
X124948870Y-53004539D01*
X124894227Y-53184670D01*
X124875777Y-53372000D01*
X119379600Y-53372000D01*
X119379600Y-51546523D01*
X124896472Y-51546523D01*
X124943420Y-51714226D01*
X125027336Y-51881784D01*
X125142328Y-52029751D01*
X125283978Y-52152441D01*
X125446841Y-52245139D01*
X125624660Y-52304283D01*
X125810600Y-52327600D01*
X126085600Y-52327600D01*
X126085600Y-51397400D01*
X126136400Y-51397400D01*
X126136400Y-52327600D01*
X126411400Y-52327600D01*
X126597340Y-52304283D01*
X126775159Y-52245139D01*
X126938022Y-52152441D01*
X127079672Y-52029751D01*
X127194664Y-51881784D01*
X127278580Y-51714226D01*
X127325528Y-51546523D01*
X127252328Y-51397400D01*
X126136400Y-51397400D01*
X126085600Y-51397400D01*
X124969672Y-51397400D01*
X124896472Y-51546523D01*
X119379600Y-51546523D01*
X119379600Y-51197477D01*
X124896472Y-51197477D01*
X124969672Y-51346600D01*
X126085600Y-51346600D01*
X126085600Y-50416400D01*
X126136400Y-50416400D01*
X126136400Y-51346600D01*
X127252328Y-51346600D01*
X127325528Y-51197477D01*
X127278580Y-51029774D01*
X127194664Y-50862216D01*
X127079672Y-50714249D01*
X126938022Y-50591559D01*
X126775159Y-50498861D01*
X126597340Y-50439717D01*
X126411400Y-50416400D01*
X126136400Y-50416400D01*
X126085600Y-50416400D01*
X125810600Y-50416400D01*
X125624660Y-50439717D01*
X125446841Y-50498861D01*
X125283978Y-50591559D01*
X125142328Y-50714249D01*
X125027336Y-50862216D01*
X124943420Y-51029774D01*
X124896472Y-51197477D01*
X119379600Y-51197477D01*
X119379600Y-49419926D01*
X127914400Y-49419926D01*
X127914400Y-49640074D01*
X127957348Y-49855992D01*
X128041595Y-50059382D01*
X128163903Y-50242429D01*
X128319571Y-50398097D01*
X128502618Y-50520405D01*
X128706008Y-50604652D01*
X128921926Y-50647600D01*
X129142074Y-50647600D01*
X129357992Y-50604652D01*
X129561382Y-50520405D01*
X129744429Y-50398097D01*
X129900097Y-50242429D01*
X130022405Y-50059382D01*
X130106652Y-49855992D01*
X130149600Y-49640074D01*
X130149600Y-49419926D01*
X130106652Y-49204008D01*
X130086445Y-49155225D01*
X130374071Y-48867600D01*
X130670475Y-48867600D01*
X130581595Y-49000618D01*
X130497348Y-49204008D01*
X130454400Y-49419926D01*
X130454400Y-49640074D01*
X130497348Y-49855992D01*
X130581595Y-50059382D01*
X130703903Y-50242429D01*
X130859571Y-50398097D01*
X131042618Y-50520405D01*
X131091401Y-50540611D01*
X131091401Y-50588694D01*
X131052290Y-50592546D01*
X130985260Y-50612879D01*
X130923484Y-50645899D01*
X130869337Y-50690337D01*
X130824899Y-50744484D01*
X130791879Y-50806260D01*
X130771546Y-50873290D01*
X130764680Y-50943000D01*
X130764680Y-51443000D01*
X130771546Y-51512710D01*
X130791879Y-51579740D01*
X130824899Y-51641516D01*
X130869337Y-51695663D01*
X130923484Y-51740101D01*
X130985260Y-51773121D01*
X131052290Y-51793454D01*
X131122000Y-51800320D01*
X132022000Y-51800320D01*
X132091710Y-51793454D01*
X132158740Y-51773121D01*
X132220516Y-51740101D01*
X132274663Y-51695663D01*
X132319101Y-51641516D01*
X132352121Y-51579740D01*
X132361400Y-51549151D01*
X132361400Y-52336849D01*
X132352121Y-52306260D01*
X132319101Y-52244484D01*
X132274663Y-52190337D01*
X132220516Y-52145899D01*
X132158740Y-52112879D01*
X132091710Y-52092546D01*
X132022000Y-52085680D01*
X131122000Y-52085680D01*
X131052290Y-52092546D01*
X130985260Y-52112879D01*
X130923484Y-52145899D01*
X130869337Y-52190337D01*
X130851230Y-52212400D01*
X130734747Y-52212400D01*
X130659911Y-52162396D01*
X130522400Y-52105437D01*
X130376420Y-52076400D01*
X130227580Y-52076400D01*
X130081600Y-52105437D01*
X129944089Y-52162396D01*
X129820333Y-52245087D01*
X129715087Y-52350333D01*
X129667000Y-52422300D01*
X129618913Y-52350333D01*
X129513667Y-52245087D01*
X129389911Y-52162396D01*
X129252400Y-52105437D01*
X129106420Y-52076400D01*
X128957580Y-52076400D01*
X128811600Y-52105437D01*
X128674089Y-52162396D01*
X128550333Y-52245087D01*
X128445087Y-52350333D01*
X128362396Y-52474089D01*
X128305437Y-52611600D01*
X128276400Y-52757580D01*
X128276400Y-52906420D01*
X128305437Y-53052400D01*
X128362396Y-53189911D01*
X128445087Y-53313667D01*
X128517457Y-53386037D01*
X128512290Y-53386546D01*
X128445260Y-53406879D01*
X128383484Y-53439899D01*
X128329337Y-53484337D01*
X128284899Y-53538484D01*
X128251879Y-53600260D01*
X128231546Y-53667290D01*
X128224680Y-53737000D01*
X128224680Y-54237000D01*
X128231546Y-54306710D01*
X128251879Y-54373740D01*
X128284899Y-54435516D01*
X128329337Y-54489663D01*
X128383484Y-54534101D01*
X128445260Y-54567121D01*
X128512290Y-54587454D01*
X128582000Y-54594320D01*
X129482000Y-54594320D01*
X129551710Y-54587454D01*
X129618740Y-54567121D01*
X129680516Y-54534101D01*
X129734663Y-54489663D01*
X129779101Y-54435516D01*
X129812121Y-54373740D01*
X129832454Y-54306710D01*
X129839320Y-54237000D01*
X129839320Y-53737000D01*
X129832454Y-53667290D01*
X129812121Y-53600260D01*
X129779101Y-53538484D01*
X129734663Y-53484337D01*
X129680516Y-53439899D01*
X129618740Y-53406879D01*
X129551710Y-53386546D01*
X129546543Y-53386037D01*
X129618913Y-53313667D01*
X129667000Y-53241700D01*
X129715087Y-53313667D01*
X129820333Y-53418913D01*
X129944089Y-53501604D01*
X130081600Y-53558563D01*
X130227580Y-53587600D01*
X130376420Y-53587600D01*
X130522400Y-53558563D01*
X130659911Y-53501604D01*
X130783667Y-53418913D01*
X130888913Y-53313667D01*
X130934230Y-53245845D01*
X130985260Y-53273121D01*
X131052290Y-53293454D01*
X131122000Y-53300320D01*
X132022000Y-53300320D01*
X132091710Y-53293454D01*
X132158740Y-53273121D01*
X132220516Y-53240101D01*
X132274663Y-53195663D01*
X132319101Y-53141516D01*
X132352121Y-53079740D01*
X132361400Y-53049151D01*
X132361400Y-53394929D01*
X132273196Y-53483133D01*
X132220516Y-53439899D01*
X132158740Y-53406879D01*
X132091710Y-53386546D01*
X132022000Y-53379680D01*
X131122000Y-53379680D01*
X131052290Y-53386546D01*
X130985260Y-53406879D01*
X130923484Y-53439899D01*
X130869337Y-53484337D01*
X130824899Y-53538484D01*
X130791879Y-53600260D01*
X130771546Y-53667290D01*
X130764680Y-53737000D01*
X130764680Y-54237000D01*
X130771546Y-54306710D01*
X130791879Y-54373740D01*
X130824899Y-54435516D01*
X130869337Y-54489663D01*
X130923484Y-54534101D01*
X130985260Y-54567121D01*
X131052290Y-54587454D01*
X131122000Y-54594320D01*
X132022000Y-54594320D01*
X132091710Y-54587454D01*
X132158740Y-54567121D01*
X132220516Y-54534101D01*
X132274663Y-54489663D01*
X132292770Y-54467600D01*
X132425396Y-54467600D01*
X132449000Y-54469925D01*
X132472604Y-54467600D01*
X132472607Y-54467600D01*
X132543214Y-54460646D01*
X132633807Y-54433165D01*
X132717299Y-54388537D01*
X132790480Y-54328480D01*
X132805535Y-54310135D01*
X133165140Y-53950531D01*
X133183480Y-53935480D01*
X133243537Y-53862299D01*
X133288165Y-53778807D01*
X133306523Y-53718289D01*
X133304680Y-53737000D01*
X133304680Y-54237000D01*
X133311546Y-54306710D01*
X133331879Y-54373740D01*
X133364899Y-54435516D01*
X133409337Y-54489663D01*
X133463484Y-54534101D01*
X133525260Y-54567121D01*
X133592290Y-54587454D01*
X133662000Y-54594320D01*
X134562000Y-54594320D01*
X134631710Y-54587454D01*
X134698740Y-54567121D01*
X134760516Y-54534101D01*
X134814663Y-54489663D01*
X134832770Y-54467600D01*
X134890030Y-54467600D01*
X134900333Y-54477903D01*
X135024089Y-54560594D01*
X135161600Y-54617553D01*
X135307580Y-54646590D01*
X135456420Y-54646590D01*
X135602400Y-54617553D01*
X135739911Y-54560594D01*
X135863667Y-54477903D01*
X135905420Y-54436150D01*
X135949337Y-54489663D01*
X136003484Y-54534101D01*
X136065260Y-54567121D01*
X136132290Y-54587454D01*
X136202000Y-54594320D01*
X137102000Y-54594320D01*
X137171710Y-54587454D01*
X137238740Y-54567121D01*
X137300516Y-54534101D01*
X137354663Y-54489663D01*
X137398580Y-54436150D01*
X137440333Y-54477903D01*
X137564089Y-54560594D01*
X137701600Y-54617553D01*
X137847580Y-54646590D01*
X137996420Y-54646590D01*
X138142400Y-54617553D01*
X138279911Y-54560594D01*
X138403667Y-54477903D01*
X138445420Y-54436150D01*
X138489337Y-54489663D01*
X138543484Y-54534101D01*
X138605260Y-54567121D01*
X138672290Y-54587454D01*
X138742000Y-54594320D01*
X139642000Y-54594320D01*
X139711710Y-54587454D01*
X139778740Y-54567121D01*
X139840516Y-54534101D01*
X139894663Y-54489663D01*
X139939101Y-54435516D01*
X139972121Y-54373740D01*
X139992454Y-54306710D01*
X139999320Y-54237000D01*
X139999320Y-53737000D01*
X139992454Y-53667290D01*
X139972121Y-53600260D01*
X139939101Y-53538484D01*
X139894663Y-53484337D01*
X139840516Y-53439899D01*
X139778740Y-53406879D01*
X139711710Y-53386546D01*
X139642000Y-53379680D01*
X138742000Y-53379680D01*
X138672290Y-53386546D01*
X138605260Y-53406879D01*
X138598691Y-53410390D01*
X138509626Y-53410390D01*
X138508913Y-53409323D01*
X138403667Y-53304077D01*
X138279911Y-53221386D01*
X138142400Y-53164427D01*
X137996420Y-53135390D01*
X137847580Y-53135390D01*
X137701600Y-53164427D01*
X137564089Y-53221386D01*
X137440333Y-53304077D01*
X137335087Y-53409323D01*
X137309649Y-53447394D01*
X137300516Y-53439899D01*
X137238740Y-53406879D01*
X137171710Y-53386546D01*
X137159342Y-53385328D01*
X138245145Y-52299527D01*
X138263480Y-52284480D01*
X138279204Y-52265320D01*
X138323537Y-52211300D01*
X138368164Y-52127809D01*
X138372693Y-52112879D01*
X138395646Y-52037214D01*
X138402600Y-51966607D01*
X138402600Y-51966605D01*
X138404925Y-51943001D01*
X138402600Y-51919397D01*
X138402600Y-50321126D01*
X138479571Y-50398097D01*
X138662618Y-50520405D01*
X138866008Y-50604652D01*
X139081926Y-50647600D01*
X139302074Y-50647600D01*
X139517992Y-50604652D01*
X139721382Y-50520405D01*
X139904429Y-50398097D01*
X139981400Y-50321126D01*
X139981401Y-53316386D01*
X139979075Y-53340000D01*
X139988355Y-53434213D01*
X140015836Y-53524808D01*
X140056167Y-53600260D01*
X140060464Y-53608299D01*
X140120521Y-53681480D01*
X140138861Y-53696531D01*
X141251400Y-54809072D01*
X141251401Y-56139389D01*
X141202618Y-56159595D01*
X141019571Y-56281903D01*
X140863903Y-56437571D01*
X140741595Y-56620618D01*
X140657348Y-56824008D01*
X140614400Y-57039926D01*
X140614400Y-57260074D01*
X140657348Y-57475992D01*
X140741595Y-57679382D01*
X140863903Y-57862429D01*
X141019571Y-58018097D01*
X141202618Y-58140405D01*
X141406008Y-58224652D01*
X141621926Y-58267600D01*
X141842074Y-58267600D01*
X142057992Y-58224652D01*
X142261382Y-58140405D01*
X142444429Y-58018097D01*
X142600097Y-57862429D01*
X142722405Y-57679382D01*
X142806652Y-57475992D01*
X142849600Y-57260074D01*
X142849600Y-57039926D01*
X142823408Y-56908245D01*
X149268400Y-56908245D01*
X149268400Y-57091755D01*
X149304200Y-57271738D01*
X149374426Y-57441278D01*
X149476379Y-57593861D01*
X149606139Y-57723621D01*
X149758722Y-57825574D01*
X149928262Y-57895800D01*
X150108245Y-57931600D01*
X150291755Y-57931600D01*
X150471738Y-57895800D01*
X150641278Y-57825574D01*
X150793861Y-57723621D01*
X150923621Y-57593861D01*
X151025574Y-57441278D01*
X151095800Y-57271738D01*
X151131600Y-57091755D01*
X151131600Y-56908245D01*
X151095800Y-56728262D01*
X151025574Y-56558722D01*
X150923621Y-56406139D01*
X150793861Y-56276379D01*
X150641278Y-56174426D01*
X150471738Y-56104200D01*
X150291755Y-56068400D01*
X150108245Y-56068400D01*
X149928262Y-56104200D01*
X149758722Y-56174426D01*
X149606139Y-56276379D01*
X149476379Y-56406139D01*
X149374426Y-56558722D01*
X149304200Y-56728262D01*
X149268400Y-56908245D01*
X142823408Y-56908245D01*
X142806652Y-56824008D01*
X142722405Y-56620618D01*
X142600097Y-56437571D01*
X142444429Y-56281903D01*
X142261382Y-56159595D01*
X142212600Y-56139389D01*
X142212600Y-55482523D01*
X143438472Y-55482523D01*
X143485420Y-55650226D01*
X143569336Y-55817784D01*
X143684328Y-55965751D01*
X143825978Y-56088441D01*
X143988841Y-56181139D01*
X144166660Y-56240283D01*
X144352600Y-56263600D01*
X144627600Y-56263600D01*
X144627600Y-55333400D01*
X144678400Y-55333400D01*
X144678400Y-56263600D01*
X144953400Y-56263600D01*
X145139340Y-56240283D01*
X145317159Y-56181139D01*
X145480022Y-56088441D01*
X145621672Y-55965751D01*
X145736664Y-55817784D01*
X145820580Y-55650226D01*
X145867528Y-55482523D01*
X145794328Y-55333400D01*
X144678400Y-55333400D01*
X144627600Y-55333400D01*
X143511672Y-55333400D01*
X143438472Y-55482523D01*
X142212600Y-55482523D01*
X142212600Y-55133477D01*
X143438472Y-55133477D01*
X143511672Y-55282600D01*
X144627600Y-55282600D01*
X144627600Y-54352400D01*
X144678400Y-54352400D01*
X144678400Y-55282600D01*
X145794328Y-55282600D01*
X145867528Y-55133477D01*
X145820580Y-54965774D01*
X145736664Y-54798216D01*
X145621672Y-54650249D01*
X145480022Y-54527559D01*
X145317159Y-54434861D01*
X145139340Y-54375717D01*
X144953400Y-54352400D01*
X144678400Y-54352400D01*
X144627600Y-54352400D01*
X144352600Y-54352400D01*
X144166660Y-54375717D01*
X143988841Y-54434861D01*
X143825978Y-54527559D01*
X143684328Y-54650249D01*
X143569336Y-54798216D01*
X143485420Y-54965774D01*
X143438472Y-55133477D01*
X142212600Y-55133477D01*
X142212600Y-54633603D01*
X142214925Y-54609999D01*
X142210059Y-54560594D01*
X142205646Y-54515786D01*
X142178165Y-54425193D01*
X142158572Y-54388537D01*
X142133537Y-54341700D01*
X142088528Y-54286856D01*
X142088526Y-54286854D01*
X142073480Y-54268520D01*
X142072803Y-54267965D01*
X142094564Y-54258951D01*
X142218320Y-54176260D01*
X142323566Y-54071014D01*
X142406257Y-53947258D01*
X142463216Y-53809747D01*
X142492253Y-53663767D01*
X142492253Y-53514927D01*
X142463216Y-53368947D01*
X142437971Y-53308000D01*
X143417777Y-53308000D01*
X143436227Y-53495330D01*
X143490870Y-53675461D01*
X143579604Y-53841471D01*
X143699020Y-53986980D01*
X143844529Y-54106396D01*
X144010539Y-54195130D01*
X144190670Y-54249773D01*
X144331061Y-54263600D01*
X144974939Y-54263600D01*
X145115330Y-54249773D01*
X145295461Y-54195130D01*
X145461471Y-54106396D01*
X145606980Y-53986980D01*
X145726396Y-53841471D01*
X145815130Y-53675461D01*
X145869773Y-53495330D01*
X145888223Y-53308000D01*
X145869773Y-53120670D01*
X145815130Y-52940539D01*
X145726396Y-52774529D01*
X145606980Y-52629020D01*
X145461471Y-52509604D01*
X145295461Y-52420870D01*
X145115330Y-52366227D01*
X144974939Y-52352400D01*
X144331061Y-52352400D01*
X144190670Y-52366227D01*
X144010539Y-52420870D01*
X143844529Y-52509604D01*
X143699020Y-52629020D01*
X143579604Y-52774529D01*
X143490870Y-52940539D01*
X143436227Y-53120670D01*
X143417777Y-53308000D01*
X142437971Y-53308000D01*
X142406257Y-53231436D01*
X142400880Y-53223389D01*
X142434663Y-53195663D01*
X142479101Y-53141516D01*
X142512121Y-53079740D01*
X142532454Y-53012710D01*
X142539320Y-52943000D01*
X142539320Y-52443000D01*
X142532454Y-52373290D01*
X142512121Y-52306260D01*
X142479101Y-52244484D01*
X142434663Y-52190337D01*
X142380516Y-52145899D01*
X142318740Y-52112879D01*
X142251710Y-52092546D01*
X142182000Y-52085680D01*
X141282000Y-52085680D01*
X141212290Y-52092546D01*
X141145260Y-52112879D01*
X141083484Y-52145899D01*
X141029337Y-52190337D01*
X140984899Y-52244484D01*
X140951879Y-52306260D01*
X140942600Y-52336849D01*
X140942600Y-51549151D01*
X140951879Y-51579740D01*
X140984899Y-51641516D01*
X141029337Y-51695663D01*
X141083484Y-51740101D01*
X141145260Y-51773121D01*
X141212290Y-51793454D01*
X141282000Y-51800320D01*
X142182000Y-51800320D01*
X142251710Y-51793454D01*
X142318740Y-51773121D01*
X142380516Y-51740101D01*
X142434663Y-51695663D01*
X142479101Y-51641516D01*
X142512121Y-51579740D01*
X142532454Y-51512710D01*
X142539320Y-51443000D01*
X142539320Y-50943000D01*
X142532454Y-50873290D01*
X142512121Y-50806260D01*
X142479101Y-50744484D01*
X142434663Y-50690337D01*
X142380516Y-50645899D01*
X142318740Y-50612879D01*
X142251710Y-50592546D01*
X142212600Y-50588694D01*
X142212600Y-50540611D01*
X142261382Y-50520405D01*
X142444429Y-50398097D01*
X142600097Y-50242429D01*
X142722405Y-50059382D01*
X142806652Y-49855992D01*
X142849600Y-49640074D01*
X142849600Y-49419926D01*
X142806652Y-49204008D01*
X142722405Y-49000618D01*
X142600097Y-48817571D01*
X142444429Y-48661903D01*
X142261382Y-48539595D01*
X142057992Y-48455348D01*
X141842074Y-48412400D01*
X141621926Y-48412400D01*
X141406008Y-48455348D01*
X141202618Y-48539595D01*
X141019571Y-48661903D01*
X140942105Y-48739369D01*
X140935646Y-48673786D01*
X140908165Y-48583193D01*
X140863537Y-48499701D01*
X140803480Y-48426520D01*
X140785140Y-48411469D01*
X140493534Y-48119864D01*
X140478479Y-48101519D01*
X140439565Y-48069584D01*
X140457121Y-48036740D01*
X140477454Y-47969710D01*
X140484320Y-47900000D01*
X140484320Y-47630600D01*
X140930285Y-47630600D01*
X140956484Y-47652101D01*
X141018260Y-47685121D01*
X141085290Y-47705454D01*
X141155000Y-47712320D01*
X142055000Y-47712320D01*
X142124710Y-47705454D01*
X142191740Y-47685121D01*
X142253516Y-47652101D01*
X142307663Y-47607663D01*
X142352101Y-47553516D01*
X142385121Y-47491740D01*
X142405454Y-47424710D01*
X142412320Y-47355000D01*
X142412320Y-46855000D01*
X142405454Y-46785290D01*
X142385121Y-46718260D01*
X142352101Y-46656484D01*
X142307663Y-46602337D01*
X142253516Y-46557899D01*
X142191740Y-46524879D01*
X142124710Y-46504546D01*
X142055000Y-46497680D01*
X141155000Y-46497680D01*
X141085290Y-46504546D01*
X141018260Y-46524879D01*
X140956484Y-46557899D01*
X140902337Y-46602337D01*
X140857899Y-46656484D01*
X140850995Y-46669400D01*
X140484320Y-46669400D01*
X140484320Y-46400000D01*
X140477454Y-46330290D01*
X140457121Y-46263260D01*
X140424101Y-46201484D01*
X140379663Y-46147337D01*
X140325516Y-46102899D01*
X140263740Y-46069879D01*
X140196710Y-46049546D01*
X140127000Y-46042680D01*
X139672600Y-46042680D01*
X139672600Y-45355000D01*
X140797680Y-45355000D01*
X140797680Y-45855000D01*
X140804546Y-45924710D01*
X140824879Y-45991740D01*
X140857899Y-46053516D01*
X140902337Y-46107663D01*
X140956484Y-46152101D01*
X141018260Y-46185121D01*
X141085290Y-46205454D01*
X141155000Y-46212320D01*
X142055000Y-46212320D01*
X142124710Y-46205454D01*
X142191740Y-46185121D01*
X142253516Y-46152101D01*
X142307663Y-46107663D01*
X142352101Y-46053516D01*
X142385121Y-45991740D01*
X142405454Y-45924710D01*
X142412320Y-45855000D01*
X142412320Y-45355000D01*
X142405454Y-45285290D01*
X142385121Y-45218260D01*
X142352101Y-45156484D01*
X142307663Y-45102337D01*
X142268867Y-45070497D01*
X142274604Y-45061911D01*
X142331563Y-44924400D01*
X142360600Y-44778420D01*
X142360600Y-44629580D01*
X142331563Y-44483600D01*
X142274604Y-44346089D01*
X142191913Y-44222333D01*
X142086667Y-44117087D01*
X141962911Y-44034396D01*
X141825400Y-43977437D01*
X141679420Y-43948400D01*
X141530580Y-43948400D01*
X141384600Y-43977437D01*
X141247089Y-44034396D01*
X141123333Y-44117087D01*
X141018087Y-44222333D01*
X140935396Y-44346089D01*
X140878437Y-44483600D01*
X140849400Y-44629580D01*
X140849400Y-44778420D01*
X140878437Y-44924400D01*
X140935396Y-45061911D01*
X140941133Y-45070497D01*
X140902337Y-45102337D01*
X140857899Y-45156484D01*
X140824879Y-45218260D01*
X140804546Y-45285290D01*
X140797680Y-45355000D01*
X139672600Y-45355000D01*
X139672600Y-44854604D01*
X139674925Y-44831000D01*
X139672455Y-44805925D01*
X139665646Y-44736786D01*
X139638165Y-44646193D01*
X139593537Y-44562701D01*
X139533480Y-44489520D01*
X139515140Y-44474469D01*
X139037600Y-43996930D01*
X139037600Y-43045000D01*
X140797680Y-43045000D01*
X140797680Y-43545000D01*
X140804546Y-43614710D01*
X140824879Y-43681740D01*
X140857899Y-43743516D01*
X140902337Y-43797663D01*
X140956484Y-43842101D01*
X141018260Y-43875121D01*
X141085290Y-43895454D01*
X141155000Y-43902320D01*
X142055000Y-43902320D01*
X142124710Y-43895454D01*
X142191740Y-43875121D01*
X142253516Y-43842101D01*
X142307663Y-43797663D01*
X142325770Y-43775600D01*
X142663930Y-43775600D01*
X142902401Y-44014072D01*
X142902400Y-45696396D01*
X142900075Y-45720000D01*
X142902400Y-45743604D01*
X142902400Y-45743606D01*
X142909354Y-45814213D01*
X142936835Y-45904806D01*
X142981463Y-45988299D01*
X143041520Y-46061480D01*
X143059865Y-46076535D01*
X144172401Y-47189073D01*
X144172400Y-50350680D01*
X144027999Y-50350680D01*
X143909517Y-50362349D01*
X143795588Y-50396909D01*
X143690591Y-50453032D01*
X143598560Y-50528560D01*
X143523032Y-50620591D01*
X143466909Y-50725588D01*
X143432349Y-50839517D01*
X143420680Y-50957999D01*
X143420680Y-51658001D01*
X143432349Y-51776483D01*
X143466909Y-51890412D01*
X143523032Y-51995409D01*
X143598560Y-52087440D01*
X143690591Y-52162968D01*
X143795588Y-52219091D01*
X143909517Y-52253651D01*
X144027999Y-52265320D01*
X145278001Y-52265320D01*
X145396483Y-52253651D01*
X145510412Y-52219091D01*
X145615409Y-52162968D01*
X145707440Y-52087440D01*
X145782968Y-51995409D01*
X145839091Y-51890412D01*
X145873651Y-51776483D01*
X145885320Y-51658001D01*
X145885320Y-50957999D01*
X145873651Y-50839517D01*
X145839091Y-50725588D01*
X145782968Y-50620591D01*
X145707440Y-50528560D01*
X145615409Y-50453032D01*
X145510412Y-50396909D01*
X145396483Y-50362349D01*
X145278001Y-50350680D01*
X145133600Y-50350680D01*
X145133600Y-47013603D01*
X145135925Y-46989999D01*
X145133482Y-46965192D01*
X145126646Y-46895786D01*
X145099165Y-46805193D01*
X145099164Y-46805191D01*
X145054537Y-46721700D01*
X145009528Y-46666856D01*
X145009526Y-46666854D01*
X144994480Y-46648520D01*
X144976145Y-46633473D01*
X143863600Y-45520930D01*
X143863600Y-44130390D01*
X146126400Y-44130390D01*
X146126400Y-44515610D01*
X146201553Y-44893427D01*
X146348970Y-45249324D01*
X146562987Y-45569622D01*
X146835378Y-45842013D01*
X147155676Y-46056030D01*
X147511573Y-46203447D01*
X147889390Y-46278600D01*
X148274610Y-46278600D01*
X148652427Y-46203447D01*
X149008324Y-46056030D01*
X149328622Y-45842013D01*
X149601013Y-45569622D01*
X149815030Y-45249324D01*
X149962447Y-44893427D01*
X150037600Y-44515610D01*
X150037600Y-44130390D01*
X149962447Y-43752573D01*
X149815030Y-43396676D01*
X149601013Y-43076378D01*
X149328622Y-42803987D01*
X149008324Y-42589970D01*
X148652427Y-42442553D01*
X148274610Y-42367400D01*
X147889390Y-42367400D01*
X147511573Y-42442553D01*
X147155676Y-42589970D01*
X146835378Y-42803987D01*
X146562987Y-43076378D01*
X146348970Y-43396676D01*
X146201553Y-43752573D01*
X146126400Y-44130390D01*
X143863600Y-44130390D01*
X143863600Y-43838603D01*
X143865925Y-43814999D01*
X143862517Y-43780396D01*
X143856646Y-43720786D01*
X143829165Y-43630193D01*
X143803158Y-43581537D01*
X143784537Y-43546701D01*
X143763839Y-43521480D01*
X143724480Y-43473520D01*
X143706140Y-43458469D01*
X143219535Y-42971865D01*
X143204480Y-42953520D01*
X143131299Y-42893463D01*
X143047807Y-42848835D01*
X142957214Y-42821354D01*
X142886607Y-42814400D01*
X142886604Y-42814400D01*
X142863000Y-42812075D01*
X142839396Y-42814400D01*
X142325770Y-42814400D01*
X142307663Y-42792337D01*
X142253516Y-42747899D01*
X142191740Y-42714879D01*
X142124710Y-42694546D01*
X142055000Y-42687680D01*
X141155000Y-42687680D01*
X141085290Y-42694546D01*
X141018260Y-42714879D01*
X140956484Y-42747899D01*
X140902337Y-42792337D01*
X140857899Y-42846484D01*
X140824879Y-42908260D01*
X140804546Y-42975290D01*
X140797680Y-43045000D01*
X139037600Y-43045000D01*
X139037600Y-42806677D01*
X139055516Y-42797101D01*
X139109663Y-42752663D01*
X139154101Y-42698516D01*
X139187121Y-42636740D01*
X139192000Y-42620656D01*
X139196879Y-42636740D01*
X139229899Y-42698516D01*
X139274337Y-42752663D01*
X139328484Y-42797101D01*
X139390260Y-42830121D01*
X139457290Y-42850454D01*
X139527000Y-42857320D01*
X140127000Y-42857320D01*
X140196710Y-42850454D01*
X140263740Y-42830121D01*
X140325516Y-42797101D01*
X140379663Y-42752663D01*
X140424101Y-42698516D01*
X140457121Y-42636740D01*
X140477454Y-42569710D01*
X140484320Y-42500000D01*
X140484320Y-42230600D01*
X140850995Y-42230600D01*
X140857899Y-42243516D01*
X140902337Y-42297663D01*
X140956484Y-42342101D01*
X141018260Y-42375121D01*
X141085290Y-42395454D01*
X141155000Y-42402320D01*
X142055000Y-42402320D01*
X142124710Y-42395454D01*
X142191740Y-42375121D01*
X142253516Y-42342101D01*
X142307663Y-42297663D01*
X142352101Y-42243516D01*
X142385121Y-42181740D01*
X142405454Y-42114710D01*
X142412320Y-42045000D01*
X142412320Y-41908245D01*
X143068400Y-41908245D01*
X143068400Y-42091755D01*
X143104200Y-42271738D01*
X143174426Y-42441278D01*
X143276379Y-42593861D01*
X143406139Y-42723621D01*
X143558722Y-42825574D01*
X143728262Y-42895800D01*
X143908245Y-42931600D01*
X144091755Y-42931600D01*
X144271738Y-42895800D01*
X144441278Y-42825574D01*
X144593861Y-42723621D01*
X144723621Y-42593861D01*
X144825574Y-42441278D01*
X144895800Y-42271738D01*
X144931600Y-42091755D01*
X144931600Y-41908245D01*
X144895800Y-41728262D01*
X144825574Y-41558722D01*
X144723621Y-41406139D01*
X144593861Y-41276379D01*
X144441278Y-41174426D01*
X144271738Y-41104200D01*
X144091755Y-41068400D01*
X143908245Y-41068400D01*
X143728262Y-41104200D01*
X143558722Y-41174426D01*
X143406139Y-41276379D01*
X143276379Y-41406139D01*
X143174426Y-41558722D01*
X143104200Y-41728262D01*
X143068400Y-41908245D01*
X142412320Y-41908245D01*
X142412320Y-41545000D01*
X142405454Y-41475290D01*
X142385121Y-41408260D01*
X142352101Y-41346484D01*
X142307663Y-41292337D01*
X142253516Y-41247899D01*
X142191740Y-41214879D01*
X142124710Y-41194546D01*
X142055000Y-41187680D01*
X141155000Y-41187680D01*
X141085290Y-41194546D01*
X141018260Y-41214879D01*
X140956484Y-41247899D01*
X140930285Y-41269400D01*
X140484320Y-41269400D01*
X140484320Y-41000000D01*
X140477454Y-40930290D01*
X140457121Y-40863260D01*
X140424101Y-40801484D01*
X140379663Y-40747337D01*
X140325516Y-40702899D01*
X140263740Y-40669879D01*
X140196710Y-40649546D01*
X140127000Y-40642680D01*
X139527000Y-40642680D01*
X139457290Y-40649546D01*
X139390260Y-40669879D01*
X139328484Y-40702899D01*
X139274337Y-40747337D01*
X139229899Y-40801484D01*
X139196879Y-40863260D01*
X139192000Y-40879344D01*
X139187121Y-40863260D01*
X139154101Y-40801484D01*
X139109663Y-40747337D01*
X139055516Y-40702899D01*
X138993740Y-40669879D01*
X138926710Y-40649546D01*
X138857000Y-40642680D01*
X138257000Y-40642680D01*
X138187290Y-40649546D01*
X138120260Y-40669879D01*
X138058484Y-40702899D01*
X138004337Y-40747337D01*
X137959899Y-40801484D01*
X137926879Y-40863260D01*
X137922000Y-40879344D01*
X137917121Y-40863260D01*
X137884101Y-40801484D01*
X137839663Y-40747337D01*
X137785516Y-40702899D01*
X137723740Y-40669879D01*
X137656710Y-40649546D01*
X137587000Y-40642680D01*
X136987000Y-40642680D01*
X136917290Y-40649546D01*
X136850260Y-40669879D01*
X136788484Y-40702899D01*
X136734337Y-40747337D01*
X136689899Y-40801484D01*
X136656879Y-40863260D01*
X136652000Y-40879344D01*
X136647121Y-40863260D01*
X136614101Y-40801484D01*
X136569663Y-40747337D01*
X136515516Y-40702899D01*
X136453740Y-40669879D01*
X136386710Y-40649546D01*
X136317000Y-40642680D01*
X135717000Y-40642680D01*
X135647290Y-40649546D01*
X135580260Y-40669879D01*
X135518484Y-40702899D01*
X135464337Y-40747337D01*
X135419899Y-40801484D01*
X135386879Y-40863260D01*
X135382000Y-40879344D01*
X135377121Y-40863260D01*
X135344101Y-40801484D01*
X135299663Y-40747337D01*
X135245516Y-40702899D01*
X135183740Y-40669879D01*
X135116710Y-40649546D01*
X135047000Y-40642680D01*
X134447000Y-40642680D01*
X134377290Y-40649546D01*
X134310260Y-40669879D01*
X134248484Y-40702899D01*
X134194337Y-40747337D01*
X134149899Y-40801484D01*
X134116879Y-40863260D01*
X134112000Y-40879344D01*
X134107121Y-40863260D01*
X134074101Y-40801484D01*
X134029663Y-40747337D01*
X133975516Y-40702899D01*
X133913740Y-40669879D01*
X133846710Y-40649546D01*
X133777000Y-40642680D01*
X133177000Y-40642680D01*
X133107290Y-40649546D01*
X133040260Y-40669879D01*
X132978484Y-40702899D01*
X132924337Y-40747337D01*
X132879899Y-40801484D01*
X132846879Y-40863260D01*
X132842000Y-40879344D01*
X132837121Y-40863260D01*
X132804101Y-40801484D01*
X132759663Y-40747337D01*
X132705516Y-40702899D01*
X132643740Y-40669879D01*
X132576710Y-40649546D01*
X132507000Y-40642680D01*
X131907000Y-40642680D01*
X131837290Y-40649546D01*
X131770260Y-40669879D01*
X131708484Y-40702899D01*
X131654337Y-40747337D01*
X131609899Y-40801484D01*
X131576879Y-40863260D01*
X131572000Y-40879344D01*
X131567121Y-40863260D01*
X131534101Y-40801484D01*
X131489663Y-40747337D01*
X131435516Y-40702899D01*
X131373740Y-40669879D01*
X131306710Y-40649546D01*
X131237000Y-40642680D01*
X130637000Y-40642680D01*
X130567290Y-40649546D01*
X130500260Y-40669879D01*
X130438484Y-40702899D01*
X130384337Y-40747337D01*
X130339899Y-40801484D01*
X130306879Y-40863260D01*
X130286546Y-40930290D01*
X130279680Y-41000000D01*
X130279680Y-42500000D01*
X130286546Y-42569710D01*
X130306879Y-42636740D01*
X130339899Y-42698516D01*
X130384337Y-42752663D01*
X130438484Y-42797101D01*
X130456400Y-42806678D01*
X130456401Y-43742928D01*
X130229930Y-43969400D01*
X129809425Y-43969400D01*
X129822593Y-43958593D01*
X129894235Y-43871297D01*
X129947469Y-43771702D01*
X129980251Y-43663636D01*
X129991320Y-43551250D01*
X129991320Y-43113750D01*
X129980251Y-43001364D01*
X129947469Y-42893298D01*
X129894235Y-42793703D01*
X129822593Y-42706407D01*
X129735297Y-42634765D01*
X129635702Y-42581531D01*
X129537900Y-42551862D01*
X129634000Y-42552321D01*
X129703710Y-42545455D01*
X129770741Y-42525122D01*
X129832517Y-42492102D01*
X129886664Y-42447664D01*
X129931102Y-42393517D01*
X129964122Y-42331741D01*
X129984455Y-42264710D01*
X129991321Y-42195000D01*
X129989600Y-41871800D01*
X129900700Y-41782900D01*
X129184400Y-41782900D01*
X129184400Y-41802900D01*
X129133600Y-41802900D01*
X129133600Y-41782900D01*
X128417300Y-41782900D01*
X128328400Y-41871800D01*
X128326679Y-42195000D01*
X128333545Y-42264710D01*
X128353878Y-42331741D01*
X128386898Y-42393517D01*
X128431336Y-42447664D01*
X128485483Y-42492102D01*
X128547259Y-42525122D01*
X128614290Y-42545455D01*
X128684000Y-42552321D01*
X128780100Y-42551862D01*
X128682298Y-42581531D01*
X128582703Y-42634765D01*
X128495407Y-42706407D01*
X128423765Y-42793703D01*
X128370531Y-42893298D01*
X128337749Y-43001364D01*
X128326680Y-43113750D01*
X128326680Y-43551250D01*
X128337749Y-43663636D01*
X128370531Y-43771702D01*
X128423765Y-43871297D01*
X128495407Y-43958593D01*
X128549134Y-44002685D01*
X128489396Y-44092089D01*
X128432437Y-44229600D01*
X128403400Y-44375580D01*
X128403400Y-44524420D01*
X128432437Y-44670400D01*
X128489396Y-44807911D01*
X128549134Y-44897315D01*
X128495407Y-44941407D01*
X128423765Y-45028703D01*
X128370531Y-45128298D01*
X128337749Y-45236364D01*
X128326680Y-45348750D01*
X128326680Y-45786250D01*
X128337749Y-45898636D01*
X128370531Y-46006702D01*
X128423765Y-46106297D01*
X128495407Y-46193593D01*
X128582703Y-46265235D01*
X128682298Y-46318469D01*
X128780100Y-46348138D01*
X128684000Y-46347679D01*
X128614290Y-46354545D01*
X128547259Y-46374878D01*
X128485483Y-46407898D01*
X128431336Y-46452336D01*
X128386898Y-46506483D01*
X128353878Y-46568259D01*
X128333545Y-46635290D01*
X128326679Y-46705000D01*
X128328400Y-47028200D01*
X128417300Y-47117100D01*
X129133600Y-47117100D01*
X129133600Y-47097100D01*
X129184400Y-47097100D01*
X129184400Y-47117100D01*
X129900700Y-47117100D01*
X129989600Y-47028200D01*
X129991321Y-46705000D01*
X129984455Y-46635290D01*
X129964122Y-46568259D01*
X129931102Y-46506483D01*
X129886664Y-46452336D01*
X129832517Y-46407898D01*
X129817741Y-46400000D01*
X130279679Y-46400000D01*
X130281400Y-47035700D01*
X130370300Y-47124600D01*
X130911600Y-47124600D01*
X130911600Y-46133300D01*
X130822700Y-46044400D01*
X130637000Y-46042679D01*
X130567290Y-46049545D01*
X130500259Y-46069878D01*
X130438483Y-46102898D01*
X130384336Y-46147336D01*
X130339898Y-46201483D01*
X130306878Y-46263259D01*
X130286545Y-46330290D01*
X130279679Y-46400000D01*
X129817741Y-46400000D01*
X129770741Y-46374878D01*
X129703710Y-46354545D01*
X129634000Y-46347679D01*
X129537900Y-46348138D01*
X129635702Y-46318469D01*
X129735297Y-46265235D01*
X129822593Y-46193593D01*
X129894235Y-46106297D01*
X129947469Y-46006702D01*
X129980251Y-45898636D01*
X129991320Y-45786250D01*
X129991320Y-45348750D01*
X129980251Y-45236364D01*
X129947469Y-45128298D01*
X129894235Y-45028703D01*
X129822593Y-44941407D01*
X129809425Y-44930600D01*
X130405396Y-44930600D01*
X130429000Y-44932925D01*
X130452604Y-44930600D01*
X130452607Y-44930600D01*
X130523214Y-44923646D01*
X130613807Y-44896165D01*
X130697299Y-44851537D01*
X130770480Y-44791480D01*
X130785535Y-44773135D01*
X131260140Y-44298531D01*
X131278480Y-44283480D01*
X131322079Y-44230354D01*
X131338537Y-44210300D01*
X131383164Y-44126809D01*
X131383165Y-44126807D01*
X131410646Y-44036214D01*
X131417600Y-43965607D01*
X131417600Y-43965605D01*
X131419925Y-43942001D01*
X131417600Y-43918397D01*
X131417600Y-42806677D01*
X131435516Y-42797101D01*
X131489663Y-42752663D01*
X131534101Y-42698516D01*
X131567121Y-42636740D01*
X131572000Y-42620656D01*
X131576879Y-42636740D01*
X131609899Y-42698516D01*
X131654337Y-42752663D01*
X131708484Y-42797101D01*
X131726400Y-42806678D01*
X131726400Y-43791393D01*
X131724075Y-43815000D01*
X131726400Y-43838604D01*
X131726400Y-43838606D01*
X131733354Y-43909213D01*
X131760835Y-43999806D01*
X131805463Y-44083299D01*
X131865520Y-44156480D01*
X131883865Y-44171535D01*
X132358469Y-44646140D01*
X132373520Y-44664480D01*
X132392912Y-44680394D01*
X132446700Y-44724537D01*
X132530191Y-44769164D01*
X132530193Y-44769165D01*
X132620786Y-44796646D01*
X132691393Y-44803600D01*
X132691395Y-44803600D01*
X132714999Y-44805925D01*
X132738603Y-44803600D01*
X136064374Y-44803600D01*
X136065087Y-44804667D01*
X136170333Y-44909913D01*
X136294089Y-44992604D01*
X136431600Y-45049563D01*
X136577580Y-45078600D01*
X136726420Y-45078600D01*
X136872400Y-45049563D01*
X137009911Y-44992604D01*
X137133667Y-44909913D01*
X137238913Y-44804667D01*
X137321604Y-44680911D01*
X137378563Y-44543400D01*
X137407600Y-44397420D01*
X137407600Y-44248580D01*
X137378563Y-44102600D01*
X137321604Y-43965089D01*
X137301900Y-43935600D01*
X137361420Y-43935600D01*
X137507400Y-43906563D01*
X137644911Y-43849604D01*
X137768667Y-43766913D01*
X137873913Y-43661667D01*
X137956604Y-43537911D01*
X138013563Y-43400400D01*
X138042600Y-43254420D01*
X138042600Y-43105580D01*
X138013563Y-42959600D01*
X137956604Y-42822089D01*
X137878553Y-42705277D01*
X137884101Y-42698516D01*
X137917121Y-42636740D01*
X137922000Y-42620656D01*
X137926879Y-42636740D01*
X137959899Y-42698516D01*
X138004337Y-42752663D01*
X138058484Y-42797101D01*
X138076400Y-42806678D01*
X138076401Y-44172386D01*
X138074075Y-44196000D01*
X138080891Y-44265193D01*
X138083355Y-44290214D01*
X138097096Y-44335511D01*
X138110836Y-44380808D01*
X138155463Y-44464298D01*
X138155464Y-44464299D01*
X138215521Y-44537480D01*
X138233861Y-44552531D01*
X138711400Y-45030071D01*
X138711400Y-46042680D01*
X138257000Y-46042680D01*
X138187290Y-46049546D01*
X138120260Y-46069879D01*
X138071587Y-46095895D01*
X138083604Y-46077911D01*
X138140563Y-45940400D01*
X138169600Y-45794420D01*
X138169600Y-45645580D01*
X138140563Y-45499600D01*
X138083604Y-45362089D01*
X138000913Y-45238333D01*
X137895667Y-45133087D01*
X137771911Y-45050396D01*
X137634400Y-44993437D01*
X137488420Y-44964400D01*
X137339580Y-44964400D01*
X137193600Y-44993437D01*
X137056089Y-45050396D01*
X136932333Y-45133087D01*
X136827087Y-45238333D01*
X136744396Y-45362089D01*
X136687437Y-45499600D01*
X136658400Y-45645580D01*
X136658400Y-45794420D01*
X136687437Y-45940400D01*
X136744396Y-46077911D01*
X136770793Y-46117418D01*
X136734337Y-46147337D01*
X136689899Y-46201484D01*
X136656879Y-46263260D01*
X136652000Y-46279344D01*
X136647121Y-46263260D01*
X136614101Y-46201484D01*
X136569663Y-46147337D01*
X136515516Y-46102899D01*
X136453740Y-46069879D01*
X136386710Y-46049546D01*
X136317000Y-46042680D01*
X135717000Y-46042680D01*
X135647290Y-46049546D01*
X135580260Y-46069879D01*
X135518484Y-46102899D01*
X135464337Y-46147337D01*
X135419899Y-46201484D01*
X135386879Y-46263260D01*
X135382000Y-46279344D01*
X135377121Y-46263260D01*
X135344101Y-46201484D01*
X135299663Y-46147337D01*
X135245516Y-46102899D01*
X135183740Y-46069879D01*
X135116710Y-46049546D01*
X135047000Y-46042680D01*
X134447000Y-46042680D01*
X134377290Y-46049546D01*
X134310260Y-46069879D01*
X134248484Y-46102899D01*
X134194337Y-46147337D01*
X134149899Y-46201484D01*
X134116879Y-46263260D01*
X134112000Y-46279344D01*
X134107121Y-46263260D01*
X134074101Y-46201484D01*
X134029663Y-46147337D01*
X133975516Y-46102899D01*
X133913740Y-46069879D01*
X133846710Y-46049546D01*
X133777000Y-46042680D01*
X133177000Y-46042680D01*
X133107290Y-46049546D01*
X133040260Y-46069879D01*
X132978484Y-46102899D01*
X132924337Y-46147337D01*
X132879899Y-46201484D01*
X132846879Y-46263260D01*
X132842000Y-46279344D01*
X132837121Y-46263260D01*
X132804101Y-46201484D01*
X132759663Y-46147337D01*
X132705516Y-46102899D01*
X132643740Y-46069879D01*
X132576710Y-46049546D01*
X132507000Y-46042680D01*
X131907000Y-46042680D01*
X131837290Y-46049546D01*
X131770260Y-46069879D01*
X131708484Y-46102899D01*
X131654337Y-46147337D01*
X131609899Y-46201484D01*
X131576879Y-46263260D01*
X131572001Y-46279342D01*
X131567122Y-46263259D01*
X131534102Y-46201483D01*
X131489664Y-46147336D01*
X131435517Y-46102898D01*
X131373741Y-46069878D01*
X131306710Y-46049545D01*
X131237000Y-46042679D01*
X131051300Y-46044400D01*
X130962400Y-46133300D01*
X130962400Y-47124600D01*
X130982400Y-47124600D01*
X130982400Y-47175400D01*
X130962400Y-47175400D01*
X130962400Y-47195400D01*
X130911600Y-47195400D01*
X130911600Y-47175400D01*
X130370300Y-47175400D01*
X130281400Y-47264300D01*
X130279679Y-47900000D01*
X130280309Y-47906400D01*
X130198603Y-47906400D01*
X130174999Y-47904075D01*
X130151395Y-47906400D01*
X130151393Y-47906400D01*
X130080786Y-47913354D01*
X129990193Y-47940835D01*
X129990191Y-47940836D01*
X129906700Y-47985463D01*
X129872945Y-48013165D01*
X129833520Y-48045520D01*
X129818471Y-48063858D01*
X129406775Y-48475555D01*
X129357992Y-48455348D01*
X129142074Y-48412400D01*
X128921926Y-48412400D01*
X128706008Y-48455348D01*
X128502618Y-48539595D01*
X128319571Y-48661903D01*
X128163903Y-48817571D01*
X128041595Y-49000618D01*
X127957348Y-49204008D01*
X127914400Y-49419926D01*
X119379600Y-49419926D01*
X119379600Y-47580000D01*
X128326679Y-47580000D01*
X128333545Y-47649710D01*
X128353878Y-47716741D01*
X128386898Y-47778517D01*
X128431336Y-47832664D01*
X128485483Y-47877102D01*
X128547259Y-47910122D01*
X128614290Y-47930455D01*
X128684000Y-47937321D01*
X129044700Y-47935600D01*
X129133600Y-47846700D01*
X129133600Y-47167900D01*
X129184400Y-47167900D01*
X129184400Y-47846700D01*
X129273300Y-47935600D01*
X129634000Y-47937321D01*
X129703710Y-47930455D01*
X129770741Y-47910122D01*
X129832517Y-47877102D01*
X129886664Y-47832664D01*
X129931102Y-47778517D01*
X129964122Y-47716741D01*
X129984455Y-47649710D01*
X129991321Y-47580000D01*
X129989600Y-47256800D01*
X129900700Y-47167900D01*
X129184400Y-47167900D01*
X129133600Y-47167900D01*
X128417300Y-47167900D01*
X128328400Y-47256800D01*
X128326679Y-47580000D01*
X119379600Y-47580000D01*
X119379600Y-44130390D01*
X120726400Y-44130390D01*
X120726400Y-44515610D01*
X120801553Y-44893427D01*
X120948970Y-45249324D01*
X121162987Y-45569622D01*
X121435378Y-45842013D01*
X121755676Y-46056030D01*
X122111573Y-46203447D01*
X122489390Y-46278600D01*
X122874610Y-46278600D01*
X123252427Y-46203447D01*
X123608324Y-46056030D01*
X123928622Y-45842013D01*
X124201013Y-45569622D01*
X124415030Y-45249324D01*
X124562447Y-44893427D01*
X124637600Y-44515610D01*
X124637600Y-44130390D01*
X124562447Y-43752573D01*
X124415030Y-43396676D01*
X124201013Y-43076378D01*
X123928622Y-42803987D01*
X123608324Y-42589970D01*
X123252427Y-42442553D01*
X122874610Y-42367400D01*
X122489390Y-42367400D01*
X122111573Y-42442553D01*
X121755676Y-42589970D01*
X121435378Y-42803987D01*
X121162987Y-43076378D01*
X120948970Y-43396676D01*
X120801553Y-43752573D01*
X120726400Y-44130390D01*
X119379600Y-44130390D01*
X119379600Y-41908245D01*
X125668400Y-41908245D01*
X125668400Y-42091755D01*
X125704200Y-42271738D01*
X125774426Y-42441278D01*
X125876379Y-42593861D01*
X126006139Y-42723621D01*
X126158722Y-42825574D01*
X126328262Y-42895800D01*
X126508245Y-42931600D01*
X126691755Y-42931600D01*
X126871738Y-42895800D01*
X127041278Y-42825574D01*
X127193861Y-42723621D01*
X127323621Y-42593861D01*
X127425574Y-42441278D01*
X127495800Y-42271738D01*
X127531600Y-42091755D01*
X127531600Y-41908245D01*
X127495800Y-41728262D01*
X127425574Y-41558722D01*
X127323621Y-41406139D01*
X127237482Y-41320000D01*
X128326679Y-41320000D01*
X128328400Y-41643200D01*
X128417300Y-41732100D01*
X129133600Y-41732100D01*
X129133600Y-41053300D01*
X129184400Y-41053300D01*
X129184400Y-41732100D01*
X129900700Y-41732100D01*
X129989600Y-41643200D01*
X129991321Y-41320000D01*
X129984455Y-41250290D01*
X129964122Y-41183259D01*
X129931102Y-41121483D01*
X129886664Y-41067336D01*
X129832517Y-41022898D01*
X129770741Y-40989878D01*
X129703710Y-40969545D01*
X129634000Y-40962679D01*
X129273300Y-40964400D01*
X129184400Y-41053300D01*
X129133600Y-41053300D01*
X129044700Y-40964400D01*
X128684000Y-40962679D01*
X128614290Y-40969545D01*
X128547259Y-40989878D01*
X128485483Y-41022898D01*
X128431336Y-41067336D01*
X128386898Y-41121483D01*
X128353878Y-41183259D01*
X128333545Y-41250290D01*
X128326679Y-41320000D01*
X127237482Y-41320000D01*
X127193861Y-41276379D01*
X127041278Y-41174426D01*
X126871738Y-41104200D01*
X126691755Y-41068400D01*
X126508245Y-41068400D01*
X126328262Y-41104200D01*
X126158722Y-41174426D01*
X126006139Y-41276379D01*
X125876379Y-41406139D01*
X125774426Y-41558722D01*
X125704200Y-41728262D01*
X125668400Y-41908245D01*
X119379600Y-41908245D01*
X119379600Y-39780600D01*
X151385381Y-39780600D01*
X151384420Y-59019400D01*
M02*
